<svg id="visual" viewBox="0 0 2500 1250" width="2500" height="1250" xmlns="http://www.w3.org/2000/svg" xmlns:xlink="http://www.w3.org/1999/xlink" version="1.1"><g stroke-width="1" stroke-linejoin="bevel"><path d="M1192.8 690.3L1310.2 705.3L1184.8 555.7Z" fill="#00101c" stroke="#00101c"></path><path d="M1310.2 705.3L1354.2 559.7L1184.8 555.7Z" fill="#112e42" stroke="#112e42"></path><path d="M1354.2 559.7L1165.8 389.1L1184.8 555.7Z" fill="#205a7a" stroke="#205a7a"></path><path d="M927.5 720.3L1121.8 875.9L1192.8 690.3Z" fill="#0c2435" stroke="#0c2435"></path><path d="M1533.5 702.3L1500.5 502.7L1354.2 559.7Z" fill="#00101c" stroke="#00101c"></path><path d="M1354.2 559.7L1380.2 347.1L1165.8 389.1Z" fill="#277297" stroke="#277297"></path><path d="M1192.8 690.3L1321.2 887.9L1310.2 705.3Z" fill="#081a28" stroke="#081a28"></path><path d="M1310.2 705.3L1533.5 702.3L1354.2 559.7Z" fill="#19435d" stroke="#19435d"></path><path d="M1532.5 862.9L1533.5 702.3L1310.2 705.3Z" fill="#277297" stroke="#277297"></path><path d="M984.5 495.7L1192.8 690.3L1184.8 555.7Z" fill="#15384f" stroke="#15384f"></path><path d="M1192.8 690.3L1121.8 875.9L1321.2 887.9Z" fill="#19435d" stroke="#19435d"></path><path d="M1500.5 502.7L1380.2 347.1L1354.2 559.7Z" fill="#1d4e6b" stroke="#1d4e6b"></path><path d="M1165.8 389.1L984.5 495.7L1184.8 555.7Z" fill="#297ea6" stroke="#297ea6"></path><path d="M984.5 495.7L927.5 720.3L1192.8 690.3Z" fill="#0c2435" stroke="#0c2435"></path><path d="M1321.2 887.9L1532.5 862.9L1310.2 705.3Z" fill="#297ea6" stroke="#297ea6"></path><path d="M927.5 720.3L981.5 880.9L1121.8 875.9Z" fill="#081a28" stroke="#081a28"></path><path d="M1121.8 875.9L1187.8 1053.4L1321.2 887.9Z" fill="#081a28" stroke="#081a28"></path><path d="M1719.8 520.7L1560.5 331.1L1500.5 502.7Z" fill="#205a7a" stroke="#205a7a"></path><path d="M1500.5 502.7L1560.5 331.1L1380.2 347.1Z" fill="#112e42" stroke="#112e42"></path><path d="M1719.8 520.7L1500.5 502.7L1533.5 702.3Z" fill="#19435d" stroke="#19435d"></path><path d="M991.5 214.6L937.5 356.1L1165.8 389.1Z" fill="#081a28" stroke="#081a28"></path><path d="M1165.8 389.1L937.5 356.1L984.5 495.7Z" fill="#1d4e6b" stroke="#1d4e6b"></path><path d="M984.5 495.7L790.2 564.7L927.5 720.3Z" fill="#277297" stroke="#277297"></path><path d="M1148.8 208.6L1165.8 389.1L1380.2 347.1Z" fill="#297ea6" stroke="#297ea6"></path><path d="M1322.2 147.6L1148.8 208.6L1380.2 347.1Z" fill="#15384f" stroke="#15384f"></path><path d="M933.5 1063.4L1187.8 1053.4L1121.8 875.9Z" fill="#277297" stroke="#277297"></path><path d="M1321.2 887.9L1514.5 1082.4L1532.5 862.9Z" fill="#1d4e6b" stroke="#1d4e6b"></path><path d="M1532.5 862.9L1712.8 683.3L1533.5 702.3Z" fill="#246688" stroke="#246688"></path><path d="M1712.8 683.3L1719.8 520.7L1533.5 702.3Z" fill="#246688" stroke="#246688"></path><path d="M788.2 368.1L790.2 564.7L984.5 495.7Z" fill="#0c2435" stroke="#0c2435"></path><path d="M927.5 720.3L767.2 897.9L981.5 880.9Z" fill="#205a7a" stroke="#205a7a"></path><path d="M1522.5 211.6L1322.2 147.6L1380.2 347.1Z" fill="#15384f" stroke="#15384f"></path><path d="M1560.5 331.1L1522.5 211.6L1380.2 347.1Z" fill="#246688" stroke="#246688"></path><path d="M1705.8 172.6L1522.5 211.6L1560.5 331.1Z" fill="#0c2435" stroke="#0c2435"></path><path d="M1148.8 208.6L991.5 214.6L1165.8 389.1Z" fill="#0c2435" stroke="#0c2435"></path><path d="M937.5 356.1L788.2 368.1L984.5 495.7Z" fill="#19435d" stroke="#19435d"></path><path d="M1114.8 0L991.5 214.6L1148.8 208.6Z" fill="#297ea6" stroke="#297ea6"></path><path d="M1187.8 1053.4L1328.2 1100.4L1321.2 887.9Z" fill="#15384f" stroke="#15384f"></path><path d="M1532.5 862.9L1760.8 871.9L1712.8 683.3Z" fill="#246688" stroke="#246688"></path><path d="M790.2 564.7L765.2 724.3L927.5 720.3Z" fill="#277297" stroke="#277297"></path><path d="M981.5 880.9L933.5 1063.4L1121.8 875.9Z" fill="#15384f" stroke="#15384f"></path><path d="M1328.2 1100.4L1514.5 1082.4L1321.2 887.9Z" fill="#205a7a" stroke="#205a7a"></path><path d="M727.2 191.6L788.2 368.1L937.5 356.1Z" fill="#246688" stroke="#246688"></path><path d="M790.2 564.7L610.9 533.7L765.2 724.3Z" fill="#277297" stroke="#277297"></path><path d="M1931.1 368.1L1735.8 338.1L1719.8 520.7Z" fill="#19435d" stroke="#19435d"></path><path d="M1719.8 520.7L1735.8 338.1L1560.5 331.1Z" fill="#081a28" stroke="#081a28"></path><path d="M767.2 897.9L933.5 1063.4L981.5 880.9Z" fill="#205a7a" stroke="#205a7a"></path><path d="M1129.8 1250L1383.2 1250L1328.2 1100.4Z" fill="#15384f" stroke="#15384f"></path><path d="M1747.8 1065.4L1760.8 871.9L1532.5 862.9Z" fill="#00101c" stroke="#00101c"></path><path d="M1712.8 683.3L1887.1 563.7L1719.8 520.7Z" fill="#15384f" stroke="#15384f"></path><path d="M765.2 724.3L767.2 897.9L927.5 720.3Z" fill="#00101c" stroke="#00101c"></path><path d="M1522.5 0L1318.2 0L1322.2 147.6Z" fill="#19435d" stroke="#19435d"></path><path d="M1322.2 147.6L1114.8 0L1148.8 208.6Z" fill="#277297" stroke="#277297"></path><path d="M1522.5 0L1322.2 147.6L1522.5 211.6Z" fill="#0c2435" stroke="#0c2435"></path><path d="M1954.1 709.3L1887.1 563.7L1712.8 683.3Z" fill="#15384f" stroke="#15384f"></path><path d="M1908.1 205.6L1705.8 172.6L1735.8 338.1Z" fill="#205a7a" stroke="#205a7a"></path><path d="M1735.8 338.1L1705.8 172.6L1560.5 331.1Z" fill="#205a7a" stroke="#205a7a"></path><path d="M1318.2 0L1114.8 0L1322.2 147.6Z" fill="#246688" stroke="#246688"></path><path d="M991.5 214.6L727.2 191.6L937.5 356.1Z" fill="#0c2435" stroke="#0c2435"></path><path d="M1328.2 1100.4L1383.2 1250L1514.5 1082.4Z" fill="#081a28" stroke="#081a28"></path><path d="M1514.5 1082.4L1747.8 1065.4L1532.5 862.9Z" fill="#112e42" stroke="#112e42"></path><path d="M1129.8 1250L1328.2 1100.4L1187.8 1053.4Z" fill="#00101c" stroke="#00101c"></path><path d="M933.5 1063.4L1129.8 1250L1187.8 1053.4Z" fill="#205a7a" stroke="#205a7a"></path><path d="M602.9 319.1L610.9 533.7L788.2 368.1Z" fill="#00101c" stroke="#00101c"></path><path d="M788.2 368.1L610.9 533.7L790.2 564.7Z" fill="#15384f" stroke="#15384f"></path><path d="M765.2 724.3L601.9 742.3L767.2 897.9Z" fill="#0c2435" stroke="#0c2435"></path><path d="M1711.8 1250L1747.8 1065.4L1514.5 1082.4Z" fill="#277297" stroke="#277297"></path><path d="M1760.8 871.9L1954.1 709.3L1712.8 683.3Z" fill="#00101c" stroke="#00101c"></path><path d="M610.9 533.7L601.9 742.3L765.2 724.3Z" fill="#081a28" stroke="#081a28"></path><path d="M767.2 897.9L776.2 1084.4L933.5 1063.4Z" fill="#0c2435" stroke="#0c2435"></path><path d="M1705.8 172.6L1522.5 0L1522.5 211.6Z" fill="#246688" stroke="#246688"></path><path d="M587.9 878.9L776.2 1084.4L767.2 897.9Z" fill="#19435d" stroke="#19435d"></path><path d="M933.5 1063.4L948.5 1250L1129.8 1250Z" fill="#0c2435" stroke="#0c2435"></path><path d="M1383.2 1250L1498.5 1250L1514.5 1082.4Z" fill="#297ea6" stroke="#297ea6"></path><path d="M794.2 0L727.2 191.6L991.5 214.6Z" fill="#246688" stroke="#246688"></path><path d="M1114.8 0L953.5 0L991.5 214.6Z" fill="#112e42" stroke="#112e42"></path><path d="M1955.1 851.9L1954.1 709.3L1760.8 871.9Z" fill="#00101c" stroke="#00101c"></path><path d="M786.2 1250L948.5 1250L933.5 1063.4Z" fill="#081a28" stroke="#081a28"></path><path d="M1887.1 563.7L1931.1 368.1L1719.8 520.7Z" fill="#112e42" stroke="#112e42"></path><path d="M1705.8 172.6L1689.8 0L1522.5 0Z" fill="#15384f" stroke="#15384f"></path><path d="M2079.4 503.7L1931.1 368.1L1887.1 563.7Z" fill="#297ea6" stroke="#297ea6"></path><path d="M413.6 702.3L587.9 878.9L601.9 742.3Z" fill="#15384f" stroke="#15384f"></path><path d="M601.9 742.3L587.9 878.9L767.2 897.9Z" fill="#277297" stroke="#277297"></path><path d="M727.2 191.6L602.9 319.1L788.2 368.1Z" fill="#1d4e6b" stroke="#1d4e6b"></path><path d="M610.9 533.7L413.6 702.3L601.9 742.3Z" fill="#19435d" stroke="#19435d"></path><path d="M1946.1 1078.4L1955.1 851.9L1760.8 871.9Z" fill="#15384f" stroke="#15384f"></path><path d="M1935.1 0L1689.8 0L1705.8 172.6Z" fill="#205a7a" stroke="#205a7a"></path><path d="M1931.1 368.1L1908.1 205.6L1735.8 338.1Z" fill="#1d4e6b" stroke="#1d4e6b"></path><path d="M953.5 0L794.2 0L991.5 214.6Z" fill="#112e42" stroke="#112e42"></path><path d="M727.2 191.6L614.9 171.6L602.9 319.1Z" fill="#205a7a" stroke="#205a7a"></path><path d="M1498.5 1250L1711.8 1250L1514.5 1082.4Z" fill="#297ea6" stroke="#297ea6"></path><path d="M1747.8 1065.4L1946.1 1078.4L1760.8 871.9Z" fill="#1d4e6b" stroke="#1d4e6b"></path><path d="M794.2 0L614.9 171.6L727.2 191.6Z" fill="#00101c" stroke="#00101c"></path><path d="M549.9 1099.4L786.2 1250L776.2 1084.4Z" fill="#00101c" stroke="#00101c"></path><path d="M776.2 1084.4L786.2 1250L933.5 1063.4Z" fill="#1d4e6b" stroke="#1d4e6b"></path><path d="M1903.1 1250L1946.1 1078.4L1747.8 1065.4Z" fill="#1d4e6b" stroke="#1d4e6b"></path><path d="M2151.4 724.3L2079.4 503.7L1954.1 709.3Z" fill="#277297" stroke="#277297"></path><path d="M1954.1 709.3L2079.4 503.7L1887.1 563.7Z" fill="#277297" stroke="#277297"></path><path d="M1931.1 368.1L2091.4 194.6L1908.1 205.6Z" fill="#00101c" stroke="#00101c"></path><path d="M2151.4 724.3L1954.1 709.3L1955.1 851.9Z" fill="#15384f" stroke="#15384f"></path><path d="M372.6 543.7L413.6 702.3L610.9 533.7Z" fill="#081a28" stroke="#081a28"></path><path d="M587.9 878.9L549.9 1099.4L776.2 1084.4Z" fill="#15384f" stroke="#15384f"></path><path d="M372.6 543.7L610.9 533.7L602.9 319.1Z" fill="#00101c" stroke="#00101c"></path><path d="M365.6 875.9L549.9 1099.4L587.9 878.9Z" fill="#277297" stroke="#277297"></path><path d="M365.6 318.1L372.6 543.7L602.9 319.1Z" fill="#081a28" stroke="#081a28"></path><path d="M2144.4 930.9L2151.4 724.3L1955.1 851.9Z" fill="#15384f" stroke="#15384f"></path><path d="M1711.8 1250L1903.1 1250L1747.8 1065.4Z" fill="#15384f" stroke="#15384f"></path><path d="M1946.1 1078.4L2144.4 930.9L1955.1 851.9Z" fill="#00101c" stroke="#00101c"></path><path d="M2132.4 322.1L1931.1 368.1L2079.4 503.7Z" fill="#112e42" stroke="#112e42"></path><path d="M2091.4 194.6L1935.1 0L1908.1 205.6Z" fill="#1d4e6b" stroke="#1d4e6b"></path><path d="M1908.1 205.6L1935.1 0L1705.8 172.6Z" fill="#277297" stroke="#277297"></path><path d="M2306.7 384.1L2132.4 322.1L2079.4 503.7Z" fill="#15384f" stroke="#15384f"></path><path d="M794.2 0L579.9 0L614.9 171.6Z" fill="#1d4e6b" stroke="#1d4e6b"></path><path d="M398.6 196.6L365.6 318.1L602.9 319.1Z" fill="#277297" stroke="#277297"></path><path d="M2132.4 322.1L2091.4 194.6L1931.1 368.1Z" fill="#19435d" stroke="#19435d"></path><path d="M159.3 706.3L365.6 875.9L413.6 702.3Z" fill="#1d4e6b" stroke="#1d4e6b"></path><path d="M413.6 702.3L365.6 875.9L587.9 878.9Z" fill="#297ea6" stroke="#297ea6"></path><path d="M2137.4 1059.4L2144.4 930.9L1946.1 1078.4Z" fill="#15384f" stroke="#15384f"></path><path d="M398.6 196.6L602.9 319.1L614.9 171.6Z" fill="#112e42" stroke="#112e42"></path><path d="M174.3 1067.4L348.6 1100.4L365.6 875.9Z" fill="#277297" stroke="#277297"></path><path d="M411.6 1250L538.9 1250L549.9 1099.4Z" fill="#277297" stroke="#277297"></path><path d="M549.9 1099.4L538.9 1250L786.2 1250Z" fill="#1d4e6b" stroke="#1d4e6b"></path><path d="M579.9 0L398.6 196.6L614.9 171.6Z" fill="#19435d" stroke="#19435d"></path><path d="M2114.4 1250L2137.4 1059.4L1946.1 1078.4Z" fill="#205a7a" stroke="#205a7a"></path><path d="M2144.4 930.9L2269.7 752.3L2151.4 724.3Z" fill="#15384f" stroke="#15384f"></path><path d="M2151.4 724.3L2294.7 526.7L2079.4 503.7Z" fill="#19435d" stroke="#19435d"></path><path d="M2321.7 855.9L2269.7 752.3L2144.4 930.9Z" fill="#246688" stroke="#246688"></path><path d="M212.3 550.7L413.6 702.3L372.6 543.7Z" fill="#19435d" stroke="#19435d"></path><path d="M365.6 875.9L348.6 1100.4L549.9 1099.4Z" fill="#081a28" stroke="#081a28"></path><path d="M2269.7 752.3L2294.7 526.7L2151.4 724.3Z" fill="#277297" stroke="#277297"></path><path d="M2132.4 322.1L2292.7 210.6L2091.4 194.6Z" fill="#297ea6" stroke="#297ea6"></path><path d="M181.3 351.1L372.6 543.7L365.6 318.1Z" fill="#081a28" stroke="#081a28"></path><path d="M181.3 351.1L212.3 550.7L372.6 543.7Z" fill="#297ea6" stroke="#297ea6"></path><path d="M348.6 1100.4L411.6 1250L549.9 1099.4Z" fill="#277297" stroke="#277297"></path><path d="M1903.1 1250L2114.4 1250L1946.1 1078.4Z" fill="#19435d" stroke="#19435d"></path><path d="M2272.7 1081.4L2321.7 855.9L2144.4 930.9Z" fill="#00101c" stroke="#00101c"></path><path d="M2294.7 526.7L2306.7 384.1L2079.4 503.7Z" fill="#19435d" stroke="#19435d"></path><path d="M2091.4 194.6L2143.4 0L1935.1 0Z" fill="#081a28" stroke="#081a28"></path><path d="M2292.7 210.6L2143.4 0L2091.4 194.6Z" fill="#15384f" stroke="#15384f"></path><path d="M2272.7 1081.4L2144.4 930.9L2137.4 1059.4Z" fill="#246688" stroke="#246688"></path><path d="M2269.7 752.3L2500 677.3L2294.7 526.7Z" fill="#112e42" stroke="#112e42"></path><path d="M2294.7 526.7L2500 493.7L2306.7 384.1Z" fill="#297ea6" stroke="#297ea6"></path><path d="M579.9 0L357.6 0L398.6 196.6Z" fill="#0c2435" stroke="#0c2435"></path><path d="M227.3 142.6L181.3 351.1L365.6 318.1Z" fill="#15384f" stroke="#15384f"></path><path d="M212.3 550.7L159.3 706.3L413.6 702.3Z" fill="#205a7a" stroke="#205a7a"></path><path d="M348.6 1100.4L203.3 1250L411.6 1250Z" fill="#00101c" stroke="#00101c"></path><path d="M0 676.3L159.3 706.3L0 543.7Z" fill="#00101c" stroke="#00101c"></path><path d="M159.3 706.3L179.3 852.9L365.6 875.9Z" fill="#00101c" stroke="#00101c"></path><path d="M2306.7 384.1L2292.7 210.6L2132.4 322.1Z" fill="#19435d" stroke="#19435d"></path><path d="M2114.4 1250L2272.7 1081.4L2137.4 1059.4Z" fill="#112e42" stroke="#112e42"></path><path d="M227.3 142.6L365.6 318.1L398.6 196.6Z" fill="#19435d" stroke="#19435d"></path><path d="M357.6 0L227.3 142.6L398.6 196.6Z" fill="#205a7a" stroke="#205a7a"></path><path d="M0 897.9L174.3 1067.4L179.3 852.9Z" fill="#205a7a" stroke="#205a7a"></path><path d="M179.3 852.9L174.3 1067.4L365.6 875.9Z" fill="#15384f" stroke="#15384f"></path><path d="M2500 393.1L2292.7 210.6L2306.7 384.1Z" fill="#205a7a" stroke="#205a7a"></path><path d="M2500 183.6L2318.7 0L2292.7 210.6Z" fill="#0c2435" stroke="#0c2435"></path><path d="M2292.7 210.6L2318.7 0L2143.4 0Z" fill="#297ea6" stroke="#297ea6"></path><path d="M2500 866.9L2500 677.3L2321.7 855.9Z" fill="#297ea6" stroke="#297ea6"></path><path d="M2114.4 1250L2312.7 1250L2272.7 1081.4Z" fill="#205a7a" stroke="#205a7a"></path><path d="M174.3 1067.4L203.3 1250L348.6 1100.4Z" fill="#1d4e6b" stroke="#1d4e6b"></path><path d="M2500 866.9L2321.7 855.9L2500 1100.4Z" fill="#19435d" stroke="#19435d"></path><path d="M2321.7 855.9L2500 677.3L2269.7 752.3Z" fill="#00101c" stroke="#00101c"></path><path d="M2500 677.3L2500 493.7L2294.7 526.7Z" fill="#0c2435" stroke="#0c2435"></path><path d="M2500 493.7L2500 393.1L2306.7 384.1Z" fill="#246688" stroke="#246688"></path><path d="M159.3 706.3L0 897.9L179.3 852.9Z" fill="#00101c" stroke="#00101c"></path><path d="M174.3 1067.4L0 1095.4L203.3 1250Z" fill="#246688" stroke="#246688"></path><path d="M0 543.7L159.3 706.3L212.3 550.7Z" fill="#277297" stroke="#277297"></path><path d="M0 543.7L212.3 550.7L181.3 351.1Z" fill="#205a7a" stroke="#205a7a"></path><path d="M2500 1100.4L2321.7 855.9L2272.7 1081.4Z" fill="#081a28" stroke="#081a28"></path><path d="M0 371.1L0 543.7L181.3 351.1Z" fill="#00101c" stroke="#00101c"></path><path d="M357.6 0L150.3 0L227.3 142.6Z" fill="#205a7a" stroke="#205a7a"></path><path d="M0 168.6L0 371.1L181.3 351.1Z" fill="#19435d" stroke="#19435d"></path><path d="M0 168.6L181.3 351.1L227.3 142.6Z" fill="#1d4e6b" stroke="#1d4e6b"></path><path d="M0 676.3L0 897.9L159.3 706.3Z" fill="#297ea6" stroke="#297ea6"></path><path d="M2500 393.1L2500 183.6L2292.7 210.6Z" fill="#0c2435" stroke="#0c2435"></path><path d="M2312.7 1250L2500 1100.4L2272.7 1081.4Z" fill="#00101c" stroke="#00101c"></path><path d="M150.3 0L0 168.6L227.3 142.6Z" fill="#297ea6" stroke="#297ea6"></path><path d="M0 897.9L0 1095.4L174.3 1067.4Z" fill="#246688" stroke="#246688"></path><path d="M2500 183.6L2500 0L2318.7 0Z" fill="#1d4e6b" stroke="#1d4e6b"></path><path d="M2312.7 1250L2500 1250L2500 1100.4Z" fill="#00101c" stroke="#00101c"></path><path d="M150.3 0L0 0L0 168.6Z" fill="#15384f" stroke="#15384f"></path><path d="M0 1095.4L0 1250L203.3 1250Z" fill="#00101c" stroke="#00101c"></path></g></svg>