<svg id="visual" viewBox="0 0 2500 1250" width="2500" height="1250" xmlns="http://www.w3.org/2000/svg" xmlns:xlink="http://www.w3.org/1999/xlink" version="1.1"><g stroke-width="1" stroke-linejoin="bevel"><path d="M1335.2 546.7L1152.8 541.7L1181.8 741.3Z" fill="#246688" stroke="#246688"></path><path d="M1181.8 741.3L1351.2 737.3L1335.2 546.7Z" fill="#297ea6" stroke="#297ea6"></path><path d="M988.5 713.3L1135.8 866.9L1181.8 741.3Z" fill="#00101c" stroke="#00101c"></path><path d="M1181.8 741.3L1318.2 923.9L1351.2 737.3Z" fill="#205a7a" stroke="#205a7a"></path><path d="M1152.8 541.7L988.5 713.3L1181.8 741.3Z" fill="#1d4e6b" stroke="#1d4e6b"></path><path d="M994.5 539.7L988.5 713.3L1152.8 541.7Z" fill="#15384f" stroke="#15384f"></path><path d="M1335.2 546.7L1186.8 339.1L1152.8 541.7Z" fill="#112e42" stroke="#112e42"></path><path d="M1152.8 541.7L972.5 357.1L994.5 539.7Z" fill="#112e42" stroke="#112e42"></path><path d="M1135.8 866.9L1318.2 923.9L1181.8 741.3Z" fill="#0c2435" stroke="#0c2435"></path><path d="M1578.5 502.7L1386.2 351.1L1335.2 546.7Z" fill="#19435d" stroke="#19435d"></path><path d="M1335.2 546.7L1386.2 351.1L1186.8 339.1Z" fill="#246688" stroke="#246688"></path><path d="M1549.5 893.9L1551.5 748.3L1351.2 737.3Z" fill="#0c2435" stroke="#0c2435"></path><path d="M1351.2 737.3L1551.5 748.3L1335.2 546.7Z" fill="#1d4e6b" stroke="#1d4e6b"></path><path d="M1551.5 748.3L1578.5 502.7L1335.2 546.7Z" fill="#00101c" stroke="#00101c"></path><path d="M1186.8 339.1L972.5 357.1L1152.8 541.7Z" fill="#205a7a" stroke="#205a7a"></path><path d="M994.5 539.7L783.2 724.3L988.5 713.3Z" fill="#19435d" stroke="#19435d"></path><path d="M988.5 713.3L959.5 897.9L1135.8 866.9Z" fill="#246688" stroke="#246688"></path><path d="M1183.8 1095.4L1385.2 1070.4L1318.2 923.9Z" fill="#277297" stroke="#277297"></path><path d="M783.2 724.3L959.5 897.9L988.5 713.3Z" fill="#112e42" stroke="#112e42"></path><path d="M1318.2 923.9L1549.5 893.9L1351.2 737.3Z" fill="#112e42" stroke="#112e42"></path><path d="M1551.5 748.3L1738.8 710.3L1578.5 502.7Z" fill="#1d4e6b" stroke="#1d4e6b"></path><path d="M1578.5 502.7L1570.5 382.1L1386.2 351.1Z" fill="#297ea6" stroke="#297ea6"></path><path d="M1343.2 187.6L1147.8 195.6L1186.8 339.1Z" fill="#19435d" stroke="#19435d"></path><path d="M1186.8 339.1L1147.8 195.6L972.5 357.1Z" fill="#081a28" stroke="#081a28"></path><path d="M1343.2 187.6L1186.8 339.1L1386.2 351.1Z" fill="#246688" stroke="#246688"></path><path d="M1565.5 206.6L1343.2 187.6L1386.2 351.1Z" fill="#081a28" stroke="#081a28"></path><path d="M1183.8 1095.4L1318.2 923.9L1135.8 866.9Z" fill="#205a7a" stroke="#205a7a"></path><path d="M1318.2 923.9L1385.2 1070.4L1549.5 893.9Z" fill="#1d4e6b" stroke="#1d4e6b"></path><path d="M745.2 501.7L783.2 724.3L994.5 539.7Z" fill="#081a28" stroke="#081a28"></path><path d="M951.5 1077.4L1183.8 1095.4L1135.8 866.9Z" fill="#15384f" stroke="#15384f"></path><path d="M1753.8 883.9L1551.5 748.3L1549.5 893.9Z" fill="#081a28" stroke="#081a28"></path><path d="M1753.8 883.9L1738.8 710.3L1551.5 748.3Z" fill="#19435d" stroke="#19435d"></path><path d="M1578.5 502.7L1725.8 378.1L1570.5 382.1Z" fill="#00101c" stroke="#00101c"></path><path d="M1738.8 710.3L1740.8 535.7L1578.5 502.7Z" fill="#19435d" stroke="#19435d"></path><path d="M798.2 320.1L745.2 501.7L972.5 357.1Z" fill="#15384f" stroke="#15384f"></path><path d="M972.5 357.1L745.2 501.7L994.5 539.7Z" fill="#0c2435" stroke="#0c2435"></path><path d="M790.2 916.9L951.5 1077.4L959.5 897.9Z" fill="#246688" stroke="#246688"></path><path d="M959.5 897.9L951.5 1077.4L1135.8 866.9Z" fill="#19435d" stroke="#19435d"></path><path d="M1570.5 382.1L1565.5 206.6L1386.2 351.1Z" fill="#112e42" stroke="#112e42"></path><path d="M1725.8 378.1L1565.5 206.6L1570.5 382.1Z" fill="#19435d" stroke="#19435d"></path><path d="M783.2 724.3L790.2 916.9L959.5 897.9Z" fill="#205a7a" stroke="#205a7a"></path><path d="M592.9 871.9L790.2 916.9L783.2 724.3Z" fill="#1d4e6b" stroke="#1d4e6b"></path><path d="M1119.8 0L946.5 177.6L1147.8 195.6Z" fill="#246688" stroke="#246688"></path><path d="M1147.8 195.6L946.5 177.6L972.5 357.1Z" fill="#081a28" stroke="#081a28"></path><path d="M946.5 177.6L798.2 320.1L972.5 357.1Z" fill="#0c2435" stroke="#0c2435"></path><path d="M1740.8 535.7L1725.8 378.1L1578.5 502.7Z" fill="#19435d" stroke="#19435d"></path><path d="M1343.2 1250L1556.5 1101.4L1385.2 1070.4Z" fill="#1d4e6b" stroke="#1d4e6b"></path><path d="M1385.2 1070.4L1556.5 1101.4L1549.5 893.9Z" fill="#246688" stroke="#246688"></path><path d="M1753.8 1042.4L1753.8 883.9L1549.5 893.9Z" fill="#297ea6" stroke="#297ea6"></path><path d="M1945.1 693.3L1925.1 500.7L1740.8 535.7Z" fill="#205a7a" stroke="#205a7a"></path><path d="M601.9 1075.4L800.2 1076.4L790.2 916.9Z" fill="#205a7a" stroke="#205a7a"></path><path d="M790.2 916.9L800.2 1076.4L951.5 1077.4Z" fill="#277297" stroke="#277297"></path><path d="M1000.5 1250L1140.8 1250L1183.8 1095.4Z" fill="#19435d" stroke="#19435d"></path><path d="M1000.5 1250L1183.8 1095.4L951.5 1077.4Z" fill="#277297" stroke="#277297"></path><path d="M1183.8 1095.4L1343.2 1250L1385.2 1070.4Z" fill="#0c2435" stroke="#0c2435"></path><path d="M1140.8 1250L1343.2 1250L1183.8 1095.4Z" fill="#00101c" stroke="#00101c"></path><path d="M591.9 495.7L610.9 739.3L745.2 501.7Z" fill="#277297" stroke="#277297"></path><path d="M745.2 501.7L610.9 739.3L783.2 724.3Z" fill="#246688" stroke="#246688"></path><path d="M1565.5 206.6L1361.2 0L1343.2 187.6Z" fill="#00101c" stroke="#00101c"></path><path d="M1343.2 187.6L1361.2 0L1147.8 195.6Z" fill="#00101c" stroke="#00101c"></path><path d="M1361.2 0L1119.8 0L1147.8 195.6Z" fill="#297ea6" stroke="#297ea6"></path><path d="M549.9 390.1L745.2 501.7L798.2 320.1Z" fill="#297ea6" stroke="#297ea6"></path><path d="M1556.5 1101.4L1753.8 1042.4L1549.5 893.9Z" fill="#00101c" stroke="#00101c"></path><path d="M1703.8 1250L1753.8 1042.4L1556.5 1101.4Z" fill="#0c2435" stroke="#0c2435"></path><path d="M772.2 143.6L798.2 320.1L946.5 177.6Z" fill="#277297" stroke="#277297"></path><path d="M549.9 390.1L591.9 495.7L745.2 501.7Z" fill="#277297" stroke="#277297"></path><path d="M788.2 1250L1000.5 1250L951.5 1077.4Z" fill="#15384f" stroke="#15384f"></path><path d="M1897.1 215.6L1732.8 181.6L1725.8 378.1Z" fill="#297ea6" stroke="#297ea6"></path><path d="M1725.8 378.1L1732.8 181.6L1565.5 206.6Z" fill="#19435d" stroke="#19435d"></path><path d="M1565.5 206.6L1576.5 0L1361.2 0Z" fill="#205a7a" stroke="#205a7a"></path><path d="M1925.1 500.7L1725.8 378.1L1740.8 535.7Z" fill="#297ea6" stroke="#297ea6"></path><path d="M956.5 0L772.2 143.6L946.5 177.6Z" fill="#081a28" stroke="#081a28"></path><path d="M398.6 722.3L592.9 871.9L610.9 739.3Z" fill="#15384f" stroke="#15384f"></path><path d="M610.9 739.3L592.9 871.9L783.2 724.3Z" fill="#246688" stroke="#246688"></path><path d="M1119.8 0L956.5 0L946.5 177.6Z" fill="#19435d" stroke="#19435d"></path><path d="M1945.1 693.3L1738.8 710.3L1753.8 883.9Z" fill="#0c2435" stroke="#0c2435"></path><path d="M1945.1 693.3L1740.8 535.7L1738.8 710.3Z" fill="#19435d" stroke="#19435d"></path><path d="M1343.2 1250L1572.5 1250L1556.5 1101.4Z" fill="#205a7a" stroke="#205a7a"></path><path d="M1958.1 875.9L1945.1 693.3L1753.8 883.9Z" fill="#246688" stroke="#246688"></path><path d="M1732.8 181.6L1576.5 0L1565.5 206.6Z" fill="#297ea6" stroke="#297ea6"></path><path d="M1925.1 500.7L1914.1 377.1L1725.8 378.1Z" fill="#081a28" stroke="#081a28"></path><path d="M1732.8 181.6L1730.8 0L1576.5 0Z" fill="#0c2435" stroke="#0c2435"></path><path d="M2080.4 363.1L1914.1 377.1L1925.1 500.7Z" fill="#297ea6" stroke="#297ea6"></path><path d="M546.9 153.6L549.9 390.1L798.2 320.1Z" fill="#0c2435" stroke="#0c2435"></path><path d="M389.6 576.7L398.6 722.3L610.9 739.3Z" fill="#00101c" stroke="#00101c"></path><path d="M1958.1 1040.4L1753.8 883.9L1753.8 1042.4Z" fill="#15384f" stroke="#15384f"></path><path d="M1958.1 1040.4L1958.1 875.9L1753.8 883.9Z" fill="#1d4e6b" stroke="#1d4e6b"></path><path d="M601.9 1075.4L788.2 1250L800.2 1076.4Z" fill="#00101c" stroke="#00101c"></path><path d="M800.2 1076.4L788.2 1250L951.5 1077.4Z" fill="#19435d" stroke="#19435d"></path><path d="M1572.5 1250L1703.8 1250L1556.5 1101.4Z" fill="#00101c" stroke="#00101c"></path><path d="M1914.1 377.1L1897.1 215.6L1725.8 378.1Z" fill="#19435d" stroke="#19435d"></path><path d="M592.9 871.9L601.9 1075.4L790.2 916.9Z" fill="#15384f" stroke="#15384f"></path><path d="M409.6 1072.4L601.9 1075.4L592.9 871.9Z" fill="#277297" stroke="#277297"></path><path d="M1938.1 0L1730.8 0L1732.8 181.6Z" fill="#205a7a" stroke="#205a7a"></path><path d="M956.5 0L740.2 0L772.2 143.6Z" fill="#19435d" stroke="#19435d"></path><path d="M772.2 143.6L546.9 153.6L798.2 320.1Z" fill="#205a7a" stroke="#205a7a"></path><path d="M1957.1 1250L1958.1 1040.4L1753.8 1042.4Z" fill="#19435d" stroke="#19435d"></path><path d="M613.9 0L546.9 153.6L772.2 143.6Z" fill="#15384f" stroke="#15384f"></path><path d="M389.6 576.7L591.9 495.7L549.9 390.1Z" fill="#1d4e6b" stroke="#1d4e6b"></path><path d="M389.6 576.7L610.9 739.3L591.9 495.7Z" fill="#246688" stroke="#246688"></path><path d="M358.6 381.1L389.6 576.7L549.9 390.1Z" fill="#1d4e6b" stroke="#1d4e6b"></path><path d="M1958.1 875.9L2099.4 704.3L1945.1 693.3Z" fill="#00101c" stroke="#00101c"></path><path d="M1945.1 693.3L2122.4 571.7L1925.1 500.7Z" fill="#205a7a" stroke="#205a7a"></path><path d="M1914.1 377.1L2080.4 363.1L1897.1 215.6Z" fill="#297ea6" stroke="#297ea6"></path><path d="M2112.4 866.9L2099.4 704.3L1958.1 875.9Z" fill="#19435d" stroke="#19435d"></path><path d="M199.3 886.9L393.6 863.9L398.6 722.3Z" fill="#0c2435" stroke="#0c2435"></path><path d="M398.6 722.3L393.6 863.9L592.9 871.9Z" fill="#112e42" stroke="#112e42"></path><path d="M2122.4 571.7L2080.4 363.1L1925.1 500.7Z" fill="#1d4e6b" stroke="#1d4e6b"></path><path d="M1897.1 215.6L1938.1 0L1732.8 181.6Z" fill="#277297" stroke="#277297"></path><path d="M2099.4 704.3L2122.4 571.7L1945.1 693.3Z" fill="#1d4e6b" stroke="#1d4e6b"></path><path d="M740.2 0L613.9 0L772.2 143.6Z" fill="#1d4e6b" stroke="#1d4e6b"></path><path d="M2090.4 1029.4L2112.4 866.9L1958.1 875.9Z" fill="#205a7a" stroke="#205a7a"></path><path d="M2271.7 744.3L2266.7 555.7L2122.4 571.7Z" fill="#246688" stroke="#246688"></path><path d="M404.6 145.6L358.6 381.1L549.9 390.1Z" fill="#081a28" stroke="#081a28"></path><path d="M389.6 576.7L157.3 720.3L398.6 722.3Z" fill="#277297" stroke="#277297"></path><path d="M404.6 145.6L549.9 390.1L546.9 153.6Z" fill="#15384f" stroke="#15384f"></path><path d="M409.6 1072.4L537.9 1250L601.9 1075.4Z" fill="#205a7a" stroke="#205a7a"></path><path d="M601.9 1075.4L537.9 1250L788.2 1250Z" fill="#081a28" stroke="#081a28"></path><path d="M1957.1 1250L2090.4 1029.4L1958.1 1040.4Z" fill="#0c2435" stroke="#0c2435"></path><path d="M1958.1 1040.4L2090.4 1029.4L1958.1 875.9Z" fill="#081a28" stroke="#081a28"></path><path d="M2103.4 171.6L1938.1 0L1897.1 215.6Z" fill="#277297" stroke="#277297"></path><path d="M393.6 863.9L409.6 1072.4L592.9 871.9Z" fill="#277297" stroke="#277297"></path><path d="M1703.8 1250L1957.1 1250L1753.8 1042.4Z" fill="#15384f" stroke="#15384f"></path><path d="M613.9 0L404.6 145.6L546.9 153.6Z" fill="#081a28" stroke="#081a28"></path><path d="M2341.7 348.1L2103.4 171.6L2080.4 363.1Z" fill="#0c2435" stroke="#0c2435"></path><path d="M2080.4 363.1L2103.4 171.6L1897.1 215.6Z" fill="#277297" stroke="#277297"></path><path d="M2271.7 744.3L2122.4 571.7L2099.4 704.3Z" fill="#205a7a" stroke="#205a7a"></path><path d="M2122.4 571.7L2266.7 555.7L2080.4 363.1Z" fill="#246688" stroke="#246688"></path><path d="M2271.7 744.3L2099.4 704.3L2112.4 866.9Z" fill="#112e42" stroke="#112e42"></path><path d="M409.6 1072.4L413.6 1250L537.9 1250Z" fill="#1d4e6b" stroke="#1d4e6b"></path><path d="M198.3 1250L413.6 1250L409.6 1072.4Z" fill="#297ea6" stroke="#297ea6"></path><path d="M199.3 886.9L409.6 1072.4L393.6 863.9Z" fill="#205a7a" stroke="#205a7a"></path><path d="M2267.7 893.9L2271.7 744.3L2112.4 866.9Z" fill="#19435d" stroke="#19435d"></path><path d="M2267.7 893.9L2112.4 866.9L2090.4 1029.4Z" fill="#246688" stroke="#246688"></path><path d="M167.3 356.1L210.3 499.7L358.6 381.1Z" fill="#297ea6" stroke="#297ea6"></path><path d="M358.6 381.1L210.3 499.7L389.6 576.7Z" fill="#0c2435" stroke="#0c2435"></path><path d="M2330.7 0L2082.4 0L2103.4 171.6Z" fill="#205a7a" stroke="#205a7a"></path><path d="M2103.4 171.6L2082.4 0L1938.1 0Z" fill="#0c2435" stroke="#0c2435"></path><path d="M2305.7 1031.4L2267.7 893.9L2090.4 1029.4Z" fill="#081a28" stroke="#081a28"></path><path d="M157.3 720.3L199.3 886.9L398.6 722.3Z" fill="#297ea6" stroke="#297ea6"></path><path d="M210.3 499.7L157.3 720.3L389.6 576.7Z" fill="#081a28" stroke="#081a28"></path><path d="M1957.1 1250L2140.4 1250L2090.4 1029.4Z" fill="#205a7a" stroke="#205a7a"></path><path d="M613.9 0L347.6 0L404.6 145.6Z" fill="#00101c" stroke="#00101c"></path><path d="M206.3 169.6L167.3 356.1L358.6 381.1Z" fill="#112e42" stroke="#112e42"></path><path d="M206.3 169.6L358.6 381.1L404.6 145.6Z" fill="#0c2435" stroke="#0c2435"></path><path d="M210.3 499.7L0 573.7L157.3 720.3Z" fill="#00101c" stroke="#00101c"></path><path d="M347.6 0L206.3 169.6L404.6 145.6Z" fill="#15384f" stroke="#15384f"></path><path d="M0 886.9L178.3 1029.4L199.3 886.9Z" fill="#1d4e6b" stroke="#1d4e6b"></path><path d="M199.3 886.9L178.3 1029.4L409.6 1072.4Z" fill="#19435d" stroke="#19435d"></path><path d="M2266.7 555.7L2341.7 348.1L2080.4 363.1Z" fill="#277297" stroke="#277297"></path><path d="M2500 545.7L2341.7 348.1L2266.7 555.7Z" fill="#081a28" stroke="#081a28"></path><path d="M2500 545.7L2266.7 555.7L2271.7 744.3Z" fill="#112e42" stroke="#112e42"></path><path d="M2140.4 1250L2305.7 1031.4L2090.4 1029.4Z" fill="#246688" stroke="#246688"></path><path d="M2500 755.3L2500 545.7L2271.7 744.3Z" fill="#00101c" stroke="#00101c"></path><path d="M2341.7 348.1L2336.7 164.6L2103.4 171.6Z" fill="#277297" stroke="#277297"></path><path d="M178.3 1029.4L198.3 1250L409.6 1072.4Z" fill="#15384f" stroke="#15384f"></path><path d="M0 392.1L210.3 499.7L167.3 356.1Z" fill="#0c2435" stroke="#0c2435"></path><path d="M0 392.1L0 573.7L210.3 499.7Z" fill="#112e42" stroke="#112e42"></path><path d="M157.3 720.3L0 886.9L199.3 886.9Z" fill="#15384f" stroke="#15384f"></path><path d="M178.3 1029.4L0 1250L198.3 1250Z" fill="#112e42" stroke="#112e42"></path><path d="M0 573.7L0 706.3L157.3 720.3Z" fill="#246688" stroke="#246688"></path><path d="M2140.4 1250L2324.7 1250L2305.7 1031.4Z" fill="#0c2435" stroke="#0c2435"></path><path d="M2500 755.3L2271.7 744.3L2500 850.9Z" fill="#0c2435" stroke="#0c2435"></path><path d="M347.6 0L158.3 0L206.3 169.6Z" fill="#1d4e6b" stroke="#1d4e6b"></path><path d="M0 185.6L0 392.1L167.3 356.1Z" fill="#246688" stroke="#246688"></path><path d="M2336.7 164.6L2330.7 0L2103.4 171.6Z" fill="#246688" stroke="#246688"></path><path d="M2271.7 744.3L2267.7 893.9L2500 850.9Z" fill="#1d4e6b" stroke="#1d4e6b"></path><path d="M2341.7 348.1L2500 147.6L2336.7 164.6Z" fill="#00101c" stroke="#00101c"></path><path d="M2336.7 164.6L2500 147.6L2330.7 0Z" fill="#277297" stroke="#277297"></path><path d="M0 185.6L167.3 356.1L206.3 169.6Z" fill="#205a7a" stroke="#205a7a"></path><path d="M2500 850.9L2267.7 893.9L2305.7 1031.4Z" fill="#246688" stroke="#246688"></path><path d="M0 706.3L0 886.9L157.3 720.3Z" fill="#205a7a" stroke="#205a7a"></path><path d="M2500 1101.4L2500 850.9L2305.7 1031.4Z" fill="#081a28" stroke="#081a28"></path><path d="M2500 545.7L2500 393.1L2341.7 348.1Z" fill="#1d4e6b" stroke="#1d4e6b"></path><path d="M0 886.9L0 1040.4L178.3 1029.4Z" fill="#246688" stroke="#246688"></path><path d="M158.3 0L0 185.6L206.3 169.6Z" fill="#112e42" stroke="#112e42"></path><path d="M2324.7 1250L2500 1101.4L2305.7 1031.4Z" fill="#1d4e6b" stroke="#1d4e6b"></path><path d="M2500 393.1L2500 147.6L2341.7 348.1Z" fill="#205a7a" stroke="#205a7a"></path><path d="M0 1040.4L0 1250L178.3 1029.4Z" fill="#277297" stroke="#277297"></path><path d="M158.3 0L0 0L0 185.6Z" fill="#081a28" stroke="#081a28"></path><path d="M2324.7 1250L2500 1250L2500 1101.4Z" fill="#00101c" stroke="#00101c"></path><path d="M2500 147.6L2500 0L2330.7 0Z" fill="#246688" stroke="#246688"></path></g></svg>