<svg id="visual" viewBox="0 0 2500 1250" width="2500" height="1250" xmlns="http://www.w3.org/2000/svg" xmlns:xlink="http://www.w3.org/1999/xlink" version="1.1"><g stroke-width="1" stroke-linejoin="bevel"><path d="M1182.8 544.7L1358.2 673.3L1373.2 557.7Z" fill="#15384f" stroke="#15384f"></path><path d="M1182.8 544.7L1133.8 751.3L1358.2 673.3Z" fill="#297ea6" stroke="#297ea6"></path><path d="M1496.5 707.3L1504.5 537.7L1373.2 557.7Z" fill="#19435d" stroke="#19435d"></path><path d="M1373.2 557.7L1368.2 327.1L1182.8 544.7Z" fill="#246688" stroke="#246688"></path><path d="M1318.2 857.9L1496.5 707.3L1358.2 673.3Z" fill="#297ea6" stroke="#297ea6"></path><path d="M1358.2 673.3L1496.5 707.3L1373.2 557.7Z" fill="#081a28" stroke="#081a28"></path><path d="M1133.8 751.3L1318.2 857.9L1358.2 673.3Z" fill="#1d4e6b" stroke="#1d4e6b"></path><path d="M1504.5 537.7L1368.2 327.1L1373.2 557.7Z" fill="#297ea6" stroke="#297ea6"></path><path d="M1368.2 327.1L1190.8 316.1L1182.8 544.7Z" fill="#246688" stroke="#246688"></path><path d="M1182.8 544.7L958.5 530.7L1133.8 751.3Z" fill="#00101c" stroke="#00101c"></path><path d="M1133.8 751.3L1169.8 890.9L1318.2 857.9Z" fill="#19435d" stroke="#19435d"></path><path d="M1190.8 316.1L958.5 530.7L1182.8 544.7Z" fill="#246688" stroke="#246688"></path><path d="M1133.8 751.3L996.5 901.9L1169.8 890.9Z" fill="#112e42" stroke="#112e42"></path><path d="M958.5 530.7L930.5 688.3L1133.8 751.3Z" fill="#0c2435" stroke="#0c2435"></path><path d="M1738.8 519.7L1530.5 328.1L1504.5 537.7Z" fill="#081a28" stroke="#081a28"></path><path d="M1504.5 537.7L1530.5 328.1L1368.2 327.1Z" fill="#0c2435" stroke="#0c2435"></path><path d="M1368.2 327.1L1314.2 155.6L1190.8 316.1Z" fill="#19435d" stroke="#19435d"></path><path d="M930.5 688.3L996.5 901.9L1133.8 751.3Z" fill="#277297" stroke="#277297"></path><path d="M1318.2 857.9L1556.5 910.9L1496.5 707.3Z" fill="#1d4e6b" stroke="#1d4e6b"></path><path d="M1496.5 707.3L1738.8 519.7L1504.5 537.7Z" fill="#112e42" stroke="#112e42"></path><path d="M1350.2 1057.4L1556.5 910.9L1318.2 857.9Z" fill="#277297" stroke="#277297"></path><path d="M1350.2 1057.4L1318.2 857.9L1169.8 890.9Z" fill="#112e42" stroke="#112e42"></path><path d="M1190.8 316.1L950.5 320.1L958.5 530.7Z" fill="#297ea6" stroke="#297ea6"></path><path d="M783.2 560.7L802.2 705.3L930.5 688.3Z" fill="#00101c" stroke="#00101c"></path><path d="M1564.5 215.6L1314.2 155.6L1368.2 327.1Z" fill="#297ea6" stroke="#297ea6"></path><path d="M1190.8 316.1L1000.5 165.6L950.5 320.1Z" fill="#112e42" stroke="#112e42"></path><path d="M1314.2 155.6L1182.8 160.6L1190.8 316.1Z" fill="#205a7a" stroke="#205a7a"></path><path d="M1162.8 1083.4L1350.2 1057.4L1169.8 890.9Z" fill="#205a7a" stroke="#205a7a"></path><path d="M1757.8 741.3L1738.8 519.7L1496.5 707.3Z" fill="#246688" stroke="#246688"></path><path d="M783.2 560.7L930.5 688.3L958.5 530.7Z" fill="#205a7a" stroke="#205a7a"></path><path d="M930.5 688.3L802.2 705.3L996.5 901.9Z" fill="#205a7a" stroke="#205a7a"></path><path d="M1752.8 395.1L1564.5 215.6L1530.5 328.1Z" fill="#081a28" stroke="#081a28"></path><path d="M1530.5 328.1L1564.5 215.6L1368.2 327.1Z" fill="#246688" stroke="#246688"></path><path d="M999.5 1092.4L1162.8 1083.4L996.5 901.9Z" fill="#19435d" stroke="#19435d"></path><path d="M996.5 901.9L1162.8 1083.4L1169.8 890.9Z" fill="#00101c" stroke="#00101c"></path><path d="M754.2 334.1L783.2 560.7L958.5 530.7Z" fill="#277297" stroke="#277297"></path><path d="M1578.5 1052.4L1688.8 884.9L1556.5 910.9Z" fill="#112e42" stroke="#112e42"></path><path d="M1556.5 910.9L1688.8 884.9L1496.5 707.3Z" fill="#112e42" stroke="#112e42"></path><path d="M1688.8 884.9L1757.8 741.3L1496.5 707.3Z" fill="#1d4e6b" stroke="#1d4e6b"></path><path d="M1182.8 160.6L1000.5 165.6L1190.8 316.1Z" fill="#081a28" stroke="#081a28"></path><path d="M950.5 320.1L754.2 334.1L958.5 530.7Z" fill="#19435d" stroke="#19435d"></path><path d="M1142.8 0L1000.5 165.6L1182.8 160.6Z" fill="#19435d" stroke="#19435d"></path><path d="M1916.1 503.7L1752.8 395.1L1738.8 519.7Z" fill="#297ea6" stroke="#297ea6"></path><path d="M1738.8 519.7L1752.8 395.1L1530.5 328.1Z" fill="#112e42" stroke="#112e42"></path><path d="M1550.5 1250L1578.5 1052.4L1350.2 1057.4Z" fill="#297ea6" stroke="#297ea6"></path><path d="M1350.2 1057.4L1578.5 1052.4L1556.5 910.9Z" fill="#205a7a" stroke="#205a7a"></path><path d="M757.2 1069.4L999.5 1092.4L996.5 901.9Z" fill="#297ea6" stroke="#297ea6"></path><path d="M754.2 197.6L754.2 334.1L950.5 320.1Z" fill="#205a7a" stroke="#205a7a"></path><path d="M589.9 738.3L736.2 863.9L802.2 705.3Z" fill="#081a28" stroke="#081a28"></path><path d="M802.2 705.3L736.2 863.9L996.5 901.9Z" fill="#277297" stroke="#277297"></path><path d="M589.9 738.3L802.2 705.3L783.2 560.7Z" fill="#205a7a" stroke="#205a7a"></path><path d="M1547.5 0L1314.2 0L1314.2 155.6Z" fill="#15384f" stroke="#15384f"></path><path d="M1314.2 155.6L1314.2 0L1182.8 160.6Z" fill="#1d4e6b" stroke="#1d4e6b"></path><path d="M1314.2 0L1142.8 0L1182.8 160.6Z" fill="#081a28" stroke="#081a28"></path><path d="M1000.5 165.6L754.2 197.6L950.5 320.1Z" fill="#0c2435" stroke="#0c2435"></path><path d="M1954.1 904.9L1905.1 687.3L1757.8 741.3Z" fill="#1d4e6b" stroke="#1d4e6b"></path><path d="M1757.8 741.3L1905.1 687.3L1738.8 519.7Z" fill="#112e42" stroke="#112e42"></path><path d="M1954.1 904.9L1757.8 741.3L1688.8 884.9Z" fill="#246688" stroke="#246688"></path><path d="M1932.1 368.1L1736.8 153.6L1752.8 395.1Z" fill="#205a7a" stroke="#205a7a"></path><path d="M1752.8 395.1L1736.8 153.6L1564.5 215.6Z" fill="#1d4e6b" stroke="#1d4e6b"></path><path d="M1564.5 215.6L1547.5 0L1314.2 155.6Z" fill="#112e42" stroke="#112e42"></path><path d="M1905.1 687.3L1916.1 503.7L1738.8 519.7Z" fill="#0c2435" stroke="#0c2435"></path><path d="M1162.8 1083.4L1358.2 1250L1350.2 1057.4Z" fill="#0c2435" stroke="#0c2435"></path><path d="M1175.8 1250L1358.2 1250L1162.8 1083.4Z" fill="#112e42" stroke="#112e42"></path><path d="M921.5 1250L1175.8 1250L999.5 1092.4Z" fill="#0c2435" stroke="#0c2435"></path><path d="M999.5 1092.4L1175.8 1250L1162.8 1083.4Z" fill="#15384f" stroke="#15384f"></path><path d="M963.5 0L754.2 197.6L1000.5 165.6Z" fill="#1d4e6b" stroke="#1d4e6b"></path><path d="M537.9 527.7L589.9 738.3L783.2 560.7Z" fill="#0c2435" stroke="#0c2435"></path><path d="M1736.8 153.6L1547.5 0L1564.5 215.6Z" fill="#277297" stroke="#277297"></path><path d="M1142.8 0L963.5 0L1000.5 165.6Z" fill="#246688" stroke="#246688"></path><path d="M736.2 863.9L757.2 1069.4L996.5 901.9Z" fill="#277297" stroke="#277297"></path><path d="M1696.8 1250L1769.8 1094.4L1578.5 1052.4Z" fill="#205a7a" stroke="#205a7a"></path><path d="M1578.5 1052.4L1769.8 1094.4L1688.8 884.9Z" fill="#112e42" stroke="#112e42"></path><path d="M537.9 527.7L783.2 560.7L754.2 334.1Z" fill="#277297" stroke="#277297"></path><path d="M736.2 863.9L603.9 1029.4L757.2 1069.4Z" fill="#1d4e6b" stroke="#1d4e6b"></path><path d="M1916.1 503.7L1932.1 368.1L1752.8 395.1Z" fill="#112e42" stroke="#112e42"></path><path d="M2115.4 550.7L1932.1 368.1L1916.1 503.7Z" fill="#246688" stroke="#246688"></path><path d="M1358.2 1250L1550.5 1250L1350.2 1057.4Z" fill="#277297" stroke="#277297"></path><path d="M757.2 1069.4L921.5 1250L999.5 1092.4Z" fill="#297ea6" stroke="#297ea6"></path><path d="M534.9 331.1L537.9 527.7L754.2 334.1Z" fill="#00101c" stroke="#00101c"></path><path d="M1769.8 1094.4L1954.1 904.9L1688.8 884.9Z" fill="#15384f" stroke="#15384f"></path><path d="M1905.1 687.3L2115.4 550.7L1916.1 503.7Z" fill="#297ea6" stroke="#297ea6"></path><path d="M421.6 919.9L593.9 905.9L589.9 738.3Z" fill="#112e42" stroke="#112e42"></path><path d="M589.9 738.3L593.9 905.9L736.2 863.9Z" fill="#205a7a" stroke="#205a7a"></path><path d="M757.2 1069.4L783.2 1250L921.5 1250Z" fill="#0c2435" stroke="#0c2435"></path><path d="M1736.8 153.6L1717.8 0L1547.5 0Z" fill="#19435d" stroke="#19435d"></path><path d="M1927.1 0L1717.8 0L1736.8 153.6Z" fill="#297ea6" stroke="#297ea6"></path><path d="M1550.5 1250L1696.8 1250L1578.5 1052.4Z" fill="#297ea6" stroke="#297ea6"></path><path d="M1769.8 1094.4L1886.1 1104.4L1954.1 904.9Z" fill="#19435d" stroke="#19435d"></path><path d="M754.2 197.6L534.9 331.1L754.2 334.1Z" fill="#081a28" stroke="#081a28"></path><path d="M553.9 157.6L534.9 331.1L754.2 197.6Z" fill="#112e42" stroke="#112e42"></path><path d="M1910.1 1250L1886.1 1104.4L1769.8 1094.4Z" fill="#081a28" stroke="#081a28"></path><path d="M2102.4 323.1L1931.1 158.6L1932.1 368.1Z" fill="#19435d" stroke="#19435d"></path><path d="M1932.1 368.1L1931.1 158.6L1736.8 153.6Z" fill="#081a28" stroke="#081a28"></path><path d="M421.6 919.9L603.9 1029.4L593.9 905.9Z" fill="#246688" stroke="#246688"></path><path d="M593.9 905.9L603.9 1029.4L736.2 863.9Z" fill="#1d4e6b" stroke="#1d4e6b"></path><path d="M963.5 0L746.2 0L754.2 197.6Z" fill="#205a7a" stroke="#205a7a"></path><path d="M553.9 1250L783.2 1250L757.2 1069.4Z" fill="#246688" stroke="#246688"></path><path d="M2133.4 870.9L2081.4 726.3L1954.1 904.9Z" fill="#00101c" stroke="#00101c"></path><path d="M1954.1 904.9L2081.4 726.3L1905.1 687.3Z" fill="#0c2435" stroke="#0c2435"></path><path d="M2081.4 726.3L2115.4 550.7L1905.1 687.3Z" fill="#19435d" stroke="#19435d"></path><path d="M746.2 0L553.9 157.6L754.2 197.6Z" fill="#246688" stroke="#246688"></path><path d="M366.6 367.1L401.6 562.7L537.9 527.7Z" fill="#081a28" stroke="#081a28"></path><path d="M537.9 527.7L401.6 562.7L589.9 738.3Z" fill="#081a28" stroke="#081a28"></path><path d="M366.6 367.1L537.9 527.7L534.9 331.1Z" fill="#19435d" stroke="#19435d"></path><path d="M2115.4 550.7L2102.4 323.1L1932.1 368.1Z" fill="#112e42" stroke="#112e42"></path><path d="M2089.4 162.6L1927.1 0L1931.1 158.6Z" fill="#1d4e6b" stroke="#1d4e6b"></path><path d="M1931.1 158.6L1927.1 0L1736.8 153.6Z" fill="#277297" stroke="#277297"></path><path d="M2102.4 1074.4L2133.4 870.9L1954.1 904.9Z" fill="#1d4e6b" stroke="#1d4e6b"></path><path d="M2081.4 726.3L2290.7 701.3L2115.4 550.7Z" fill="#246688" stroke="#246688"></path><path d="M1696.8 1250L1910.1 1250L1769.8 1094.4Z" fill="#00101c" stroke="#00101c"></path><path d="M1886.1 1104.4L2102.4 1074.4L1954.1 904.9Z" fill="#246688" stroke="#246688"></path><path d="M354.6 685.3L421.6 919.9L589.9 738.3Z" fill="#246688" stroke="#246688"></path><path d="M603.9 1029.4L553.9 1250L757.2 1069.4Z" fill="#081a28" stroke="#081a28"></path><path d="M746.2 0L589.9 0L553.9 157.6Z" fill="#081a28" stroke="#081a28"></path><path d="M355.6 185.6L366.6 367.1L534.9 331.1Z" fill="#297ea6" stroke="#297ea6"></path><path d="M401.6 562.7L354.6 685.3L589.9 738.3Z" fill="#15384f" stroke="#15384f"></path><path d="M222.3 506.7L354.6 685.3L401.6 562.7Z" fill="#246688" stroke="#246688"></path><path d="M2102.4 323.1L2089.4 162.6L1931.1 158.6Z" fill="#1d4e6b" stroke="#1d4e6b"></path><path d="M355.6 185.6L534.9 331.1L553.9 157.6Z" fill="#205a7a" stroke="#205a7a"></path><path d="M1910.1 1250L2102.4 1074.4L1886.1 1104.4Z" fill="#081a28" stroke="#081a28"></path><path d="M230.3 900.9L410.6 1038.4L421.6 919.9Z" fill="#00101c" stroke="#00101c"></path><path d="M421.6 919.9L410.6 1038.4L603.9 1029.4Z" fill="#081a28" stroke="#081a28"></path><path d="M410.6 1038.4L553.9 1250L603.9 1029.4Z" fill="#0c2435" stroke="#0c2435"></path><path d="M342.6 0L355.6 185.6L553.9 157.6Z" fill="#081a28" stroke="#081a28"></path><path d="M366.6 367.1L222.3 506.7L401.6 562.7Z" fill="#19435d" stroke="#19435d"></path><path d="M2133.4 870.9L2290.7 701.3L2081.4 726.3Z" fill="#112e42" stroke="#112e42"></path><path d="M2115.4 550.7L2334.7 337.1L2102.4 323.1Z" fill="#1d4e6b" stroke="#1d4e6b"></path><path d="M2290.7 151.6L2151.4 0L2089.4 162.6Z" fill="#081a28" stroke="#081a28"></path><path d="M2280.7 863.9L2290.7 701.3L2133.4 870.9Z" fill="#081a28" stroke="#081a28"></path><path d="M2287.7 1033.4L2280.7 863.9L2133.4 870.9Z" fill="#205a7a" stroke="#205a7a"></path><path d="M218.3 373.1L222.3 506.7L366.6 367.1Z" fill="#00101c" stroke="#00101c"></path><path d="M354.6 685.3L230.3 900.9L421.6 919.9Z" fill="#246688" stroke="#246688"></path><path d="M2290.7 151.6L2089.4 162.6L2102.4 323.1Z" fill="#297ea6" stroke="#297ea6"></path><path d="M2089.4 162.6L2151.4 0L1927.1 0Z" fill="#112e42" stroke="#112e42"></path><path d="M2500 493.7L2345.7 563.7L2500 751.3Z" fill="#297ea6" stroke="#297ea6"></path><path d="M2290.7 701.3L2345.7 563.7L2115.4 550.7Z" fill="#277297" stroke="#277297"></path><path d="M355.6 185.6L218.3 373.1L366.6 367.1Z" fill="#1d4e6b" stroke="#1d4e6b"></path><path d="M178.3 752.3L230.3 900.9L354.6 685.3Z" fill="#297ea6" stroke="#297ea6"></path><path d="M410.6 1038.4L360.6 1250L553.9 1250Z" fill="#277297" stroke="#277297"></path><path d="M178.3 752.3L354.6 685.3L222.3 506.7Z" fill="#00101c" stroke="#00101c"></path><path d="M2102.4 1074.4L2287.7 1033.4L2133.4 870.9Z" fill="#19435d" stroke="#19435d"></path><path d="M1910.1 1250L2153.4 1250L2102.4 1074.4Z" fill="#277297" stroke="#277297"></path><path d="M2345.7 563.7L2334.7 337.1L2115.4 550.7Z" fill="#246688" stroke="#246688"></path><path d="M2153.4 1250L2287.7 1033.4L2102.4 1074.4Z" fill="#246688" stroke="#246688"></path><path d="M2500 751.3L2345.7 563.7L2290.7 701.3Z" fill="#15384f" stroke="#15384f"></path><path d="M0 575.7L178.3 752.3L222.3 506.7Z" fill="#15384f" stroke="#15384f"></path><path d="M589.9 0L342.6 0L553.9 157.6Z" fill="#112e42" stroke="#112e42"></path><path d="M355.6 185.6L230.3 151.6L218.3 373.1Z" fill="#297ea6" stroke="#297ea6"></path><path d="M2334.7 337.1L2290.7 151.6L2102.4 323.1Z" fill="#19435d" stroke="#19435d"></path><path d="M185.3 1095.4L360.6 1250L410.6 1038.4Z" fill="#15384f" stroke="#15384f"></path><path d="M342.6 0L230.3 151.6L355.6 185.6Z" fill="#1d4e6b" stroke="#1d4e6b"></path><path d="M0 369.1L0 575.7L222.3 506.7Z" fill="#0c2435" stroke="#0c2435"></path><path d="M0 913.9L185.3 1095.4L230.3 900.9Z" fill="#00101c" stroke="#00101c"></path><path d="M230.3 900.9L185.3 1095.4L410.6 1038.4Z" fill="#0c2435" stroke="#0c2435"></path><path d="M2500 202.6L2290.7 151.6L2334.7 337.1Z" fill="#277297" stroke="#277297"></path><path d="M2500 202.6L2342.7 0L2290.7 151.6Z" fill="#112e42" stroke="#112e42"></path><path d="M2290.7 151.6L2342.7 0L2151.4 0Z" fill="#246688" stroke="#246688"></path><path d="M185.3 1095.4L230.3 1250L360.6 1250Z" fill="#15384f" stroke="#15384f"></path><path d="M2500 751.3L2290.7 701.3L2280.7 863.9Z" fill="#297ea6" stroke="#297ea6"></path><path d="M2345.7 563.7L2500 493.7L2334.7 337.1Z" fill="#1d4e6b" stroke="#1d4e6b"></path><path d="M2153.4 1250L2325.7 1250L2287.7 1033.4Z" fill="#246688" stroke="#246688"></path><path d="M2500 902.9L2500 751.3L2280.7 863.9Z" fill="#277297" stroke="#277297"></path><path d="M2500 902.9L2280.7 863.9L2287.7 1033.4Z" fill="#277297" stroke="#277297"></path><path d="M2500 493.7L2500 315.1L2334.7 337.1Z" fill="#19435d" stroke="#19435d"></path><path d="M2500 1070.4L2500 902.9L2287.7 1033.4Z" fill="#277297" stroke="#277297"></path><path d="M342.6 0L157.3 0L230.3 151.6Z" fill="#246688" stroke="#246688"></path><path d="M0 369.1L222.3 506.7L218.3 373.1Z" fill="#19435d" stroke="#19435d"></path><path d="M178.3 752.3L0 913.9L230.3 900.9Z" fill="#112e42" stroke="#112e42"></path><path d="M0 369.1L218.3 373.1L0 157.6Z" fill="#19435d" stroke="#19435d"></path><path d="M185.3 1095.4L0 1250L230.3 1250Z" fill="#0c2435" stroke="#0c2435"></path><path d="M0 575.7L0 728.3L178.3 752.3Z" fill="#205a7a" stroke="#205a7a"></path><path d="M2500 315.1L2500 202.6L2334.7 337.1Z" fill="#205a7a" stroke="#205a7a"></path><path d="M0 157.6L218.3 373.1L230.3 151.6Z" fill="#112e42" stroke="#112e42"></path><path d="M2325.7 1250L2500 1070.4L2287.7 1033.4Z" fill="#19435d" stroke="#19435d"></path><path d="M0 728.3L0 913.9L178.3 752.3Z" fill="#15384f" stroke="#15384f"></path><path d="M0 913.9L0 1049.4L185.3 1095.4Z" fill="#205a7a" stroke="#205a7a"></path><path d="M157.3 0L0 157.6L230.3 151.6Z" fill="#246688" stroke="#246688"></path><path d="M2500 202.6L2500 0L2342.7 0Z" fill="#246688" stroke="#246688"></path><path d="M2325.7 1250L2500 1250L2500 1070.4Z" fill="#112e42" stroke="#112e42"></path><path d="M157.3 0L0 0L0 157.6Z" fill="#1d4e6b" stroke="#1d4e6b"></path><path d="M0 1049.4L0 1250L185.3 1095.4Z" fill="#081a28" stroke="#081a28"></path></g></svg>