<svg id="visual" viewBox="0 0 2500 1250" width="2500" height="1250" xmlns="http://www.w3.org/2000/svg" xmlns:xlink="http://www.w3.org/1999/xlink" version="1.1"><g stroke-width="1" stroke-linejoin="bevel"><path d="M1189.8 707.3L1331.2 509.7L1154.8 569.7Z" fill="#112e42" stroke="#112e42"></path><path d="M1189.8 707.3L1359.2 700.3L1331.2 509.7Z" fill="#15384f" stroke="#15384f"></path><path d="M1189.8 707.3L1327.2 855.9L1359.2 700.3Z" fill="#081a28" stroke="#081a28"></path><path d="M1498.5 380.1L1379.2 384.1L1331.2 509.7Z" fill="#15384f" stroke="#15384f"></path><path d="M1331.2 509.7L1190.8 362.1L1154.8 569.7Z" fill="#081a28" stroke="#081a28"></path><path d="M1379.2 384.1L1190.8 362.1L1331.2 509.7Z" fill="#0c2435" stroke="#0c2435"></path><path d="M932.5 725.3L1130.8 858.9L1189.8 707.3Z" fill="#205a7a" stroke="#205a7a"></path><path d="M1189.8 707.3L1130.8 858.9L1327.2 855.9Z" fill="#297ea6" stroke="#297ea6"></path><path d="M1576.5 743.3L1545.5 547.7L1359.2 700.3Z" fill="#205a7a" stroke="#205a7a"></path><path d="M1359.2 700.3L1545.5 547.7L1331.2 509.7Z" fill="#246688" stroke="#246688"></path><path d="M1545.5 547.7L1498.5 380.1L1331.2 509.7Z" fill="#297ea6" stroke="#297ea6"></path><path d="M1314.2 145.6L1159.8 219.6L1190.8 362.1Z" fill="#15384f" stroke="#15384f"></path><path d="M967.5 345.1L942.5 559.7L1154.8 569.7Z" fill="#15384f" stroke="#15384f"></path><path d="M1154.8 569.7L932.5 725.3L1189.8 707.3Z" fill="#277297" stroke="#277297"></path><path d="M1327.2 855.9L1576.5 743.3L1359.2 700.3Z" fill="#081a28" stroke="#081a28"></path><path d="M942.5 559.7L932.5 725.3L1154.8 569.7Z" fill="#205a7a" stroke="#205a7a"></path><path d="M932.5 725.3L995.5 868.9L1130.8 858.9Z" fill="#112e42" stroke="#112e42"></path><path d="M1506.5 1029.4L1576.5 904.9L1327.2 855.9Z" fill="#205a7a" stroke="#205a7a"></path><path d="M1159.8 219.6L967.5 345.1L1190.8 362.1Z" fill="#205a7a" stroke="#205a7a"></path><path d="M1190.8 362.1L967.5 345.1L1154.8 569.7Z" fill="#1d4e6b" stroke="#1d4e6b"></path><path d="M1314.2 145.6L1190.8 362.1L1379.2 384.1Z" fill="#081a28" stroke="#081a28"></path><path d="M1327.2 855.9L1576.5 904.9L1576.5 743.3Z" fill="#0c2435" stroke="#0c2435"></path><path d="M1145.8 1043.4L1327.2 855.9L1130.8 858.9Z" fill="#205a7a" stroke="#205a7a"></path><path d="M995.5 868.9L1145.8 1043.4L1130.8 858.9Z" fill="#1d4e6b" stroke="#1d4e6b"></path><path d="M1145.8 1043.4L1336.2 1059.4L1327.2 855.9Z" fill="#081a28" stroke="#081a28"></path><path d="M1735.8 899.9L1715.8 724.3L1576.5 743.3Z" fill="#15384f" stroke="#15384f"></path><path d="M1576.5 743.3L1715.8 724.3L1545.5 547.7Z" fill="#246688" stroke="#246688"></path><path d="M1743.8 386.1L1519.5 218.6L1498.5 380.1Z" fill="#112e42" stroke="#112e42"></path><path d="M1743.8 386.1L1498.5 380.1L1545.5 547.7Z" fill="#19435d" stroke="#19435d"></path><path d="M1498.5 380.1L1519.5 218.6L1379.2 384.1Z" fill="#1d4e6b" stroke="#1d4e6b"></path><path d="M1519.5 218.6L1314.2 145.6L1379.2 384.1Z" fill="#246688" stroke="#246688"></path><path d="M1336.2 1059.4L1506.5 1029.4L1327.2 855.9Z" fill="#15384f" stroke="#15384f"></path><path d="M1576.5 904.9L1735.8 899.9L1576.5 743.3Z" fill="#277297" stroke="#277297"></path><path d="M1715.8 724.3L1754.8 551.7L1545.5 547.7Z" fill="#19435d" stroke="#19435d"></path><path d="M790.2 338.1L764.2 556.7L942.5 559.7Z" fill="#15384f" stroke="#15384f"></path><path d="M942.5 559.7L764.2 556.7L932.5 725.3Z" fill="#0c2435" stroke="#0c2435"></path><path d="M736.2 894.9L978.5 1033.4L995.5 868.9Z" fill="#0c2435" stroke="#0c2435"></path><path d="M773.2 755.3L995.5 868.9L932.5 725.3Z" fill="#0c2435" stroke="#0c2435"></path><path d="M995.5 868.9L978.5 1033.4L1145.8 1043.4Z" fill="#277297" stroke="#277297"></path><path d="M1145.8 1043.4L1150.8 1250L1336.2 1059.4Z" fill="#1d4e6b" stroke="#1d4e6b"></path><path d="M764.2 556.7L773.2 755.3L932.5 725.3Z" fill="#00101c" stroke="#00101c"></path><path d="M1754.8 551.7L1743.8 386.1L1545.5 547.7Z" fill="#1d4e6b" stroke="#1d4e6b"></path><path d="M1709.8 1043.4L1735.8 899.9L1576.5 904.9Z" fill="#1d4e6b" stroke="#1d4e6b"></path><path d="M1946.1 713.3L1950.1 571.7L1754.8 551.7Z" fill="#081a28" stroke="#081a28"></path><path d="M802.2 193.6L790.2 338.1L967.5 345.1Z" fill="#00101c" stroke="#00101c"></path><path d="M967.5 345.1L790.2 338.1L942.5 559.7Z" fill="#081a28" stroke="#081a28"></path><path d="M954.5 151.6L967.5 345.1L1159.8 219.6Z" fill="#0c2435" stroke="#0c2435"></path><path d="M1115.8 0L954.5 151.6L1159.8 219.6Z" fill="#1d4e6b" stroke="#1d4e6b"></path><path d="M594.9 871.9L736.2 894.9L773.2 755.3Z" fill="#112e42" stroke="#112e42"></path><path d="M773.2 755.3L736.2 894.9L995.5 868.9Z" fill="#1d4e6b" stroke="#1d4e6b"></path><path d="M1506.5 1029.4L1709.8 1043.4L1576.5 904.9Z" fill="#297ea6" stroke="#297ea6"></path><path d="M1499.5 1250L1709.8 1043.4L1506.5 1029.4Z" fill="#112e42" stroke="#112e42"></path><path d="M1562.5 0L1314.2 145.6L1519.5 218.6Z" fill="#246688" stroke="#246688"></path><path d="M1562.5 0L1333.2 0L1314.2 145.6Z" fill="#0c2435" stroke="#0c2435"></path><path d="M1314.2 145.6L1115.8 0L1159.8 219.6Z" fill="#297ea6" stroke="#297ea6"></path><path d="M735.2 0L802.2 193.6L954.5 151.6Z" fill="#297ea6" stroke="#297ea6"></path><path d="M954.5 151.6L802.2 193.6L967.5 345.1Z" fill="#277297" stroke="#277297"></path><path d="M576.9 373.1L569.9 551.7L764.2 556.7Z" fill="#19435d" stroke="#19435d"></path><path d="M1333.2 0L1115.8 0L1314.2 145.6Z" fill="#0c2435" stroke="#0c2435"></path><path d="M1918.1 390.1L1765.8 217.6L1743.8 386.1Z" fill="#0c2435" stroke="#0c2435"></path><path d="M1743.8 386.1L1765.8 217.6L1519.5 218.6Z" fill="#112e42" stroke="#112e42"></path><path d="M996.5 1250L1145.8 1043.4L978.5 1033.4Z" fill="#205a7a" stroke="#205a7a"></path><path d="M996.5 1250L1150.8 1250L1145.8 1043.4Z" fill="#081a28" stroke="#081a28"></path><path d="M1336.2 1059.4L1387.2 1250L1506.5 1029.4Z" fill="#15384f" stroke="#15384f"></path><path d="M1150.8 1250L1387.2 1250L1336.2 1059.4Z" fill="#1d4e6b" stroke="#1d4e6b"></path><path d="M736.2 894.9L787.2 1081.4L978.5 1033.4Z" fill="#277297" stroke="#277297"></path><path d="M1387.2 1250L1499.5 1250L1506.5 1029.4Z" fill="#00101c" stroke="#00101c"></path><path d="M1765.8 217.6L1562.5 0L1519.5 218.6Z" fill="#1d4e6b" stroke="#1d4e6b"></path><path d="M1946.1 713.3L1754.8 551.7L1715.8 724.3Z" fill="#205a7a" stroke="#205a7a"></path><path d="M1754.8 551.7L1918.1 390.1L1743.8 386.1Z" fill="#19435d" stroke="#19435d"></path><path d="M1946.1 713.3L1715.8 724.3L1885.1 923.9Z" fill="#205a7a" stroke="#205a7a"></path><path d="M1885.1 923.9L1715.8 724.3L1735.8 899.9Z" fill="#15384f" stroke="#15384f"></path><path d="M1115.8 0L964.5 0L954.5 151.6Z" fill="#297ea6" stroke="#297ea6"></path><path d="M1950.1 571.7L1918.1 390.1L1754.8 551.7Z" fill="#19435d" stroke="#19435d"></path><path d="M1898.1 1102.4L1885.1 923.9L1709.8 1043.4Z" fill="#00101c" stroke="#00101c"></path><path d="M1709.8 1043.4L1885.1 923.9L1735.8 899.9Z" fill="#277297" stroke="#277297"></path><path d="M787.2 1081.4L996.5 1250L978.5 1033.4Z" fill="#1d4e6b" stroke="#1d4e6b"></path><path d="M576.9 373.1L764.2 556.7L790.2 338.1Z" fill="#19435d" stroke="#19435d"></path><path d="M764.2 556.7L534.9 723.3L773.2 755.3Z" fill="#15384f" stroke="#15384f"></path><path d="M736.2 894.9L579.9 1065.4L787.2 1081.4Z" fill="#15384f" stroke="#15384f"></path><path d="M534.9 723.3L594.9 871.9L773.2 755.3Z" fill="#205a7a" stroke="#205a7a"></path><path d="M541.9 181.6L576.9 373.1L790.2 338.1Z" fill="#297ea6" stroke="#297ea6"></path><path d="M541.9 181.6L790.2 338.1L802.2 193.6Z" fill="#15384f" stroke="#15384f"></path><path d="M569.9 551.7L534.9 723.3L764.2 556.7Z" fill="#081a28" stroke="#081a28"></path><path d="M403.6 743.3L534.9 723.3L356.6 572.7Z" fill="#246688" stroke="#246688"></path><path d="M1765.8 217.6L1750.8 0L1562.5 0Z" fill="#1d4e6b" stroke="#1d4e6b"></path><path d="M1895.1 0L1750.8 0L1765.8 217.6Z" fill="#0c2435" stroke="#0c2435"></path><path d="M562.9 1250L792.2 1250L787.2 1081.4Z" fill="#00101c" stroke="#00101c"></path><path d="M787.2 1081.4L792.2 1250L996.5 1250Z" fill="#15384f" stroke="#15384f"></path><path d="M1499.5 1250L1744.8 1250L1709.8 1043.4Z" fill="#205a7a" stroke="#205a7a"></path><path d="M1744.8 1250L1898.1 1102.4L1709.8 1043.4Z" fill="#297ea6" stroke="#297ea6"></path><path d="M2135.4 879.9L2115.4 678.3L1946.1 713.3Z" fill="#297ea6" stroke="#297ea6"></path><path d="M2115.4 678.3L2074.4 512.7L1950.1 571.7Z" fill="#277297" stroke="#277297"></path><path d="M1950.1 571.7L2074.4 512.7L1918.1 390.1Z" fill="#19435d" stroke="#19435d"></path><path d="M1918.1 390.1L1960.1 136.6L1765.8 217.6Z" fill="#297ea6" stroke="#297ea6"></path><path d="M2115.4 678.3L1950.1 571.7L1946.1 713.3Z" fill="#1d4e6b" stroke="#1d4e6b"></path><path d="M964.5 0L735.2 0L954.5 151.6Z" fill="#19435d" stroke="#19435d"></path><path d="M594.9 871.9L579.9 1065.4L736.2 894.9Z" fill="#246688" stroke="#246688"></path><path d="M377.6 1038.4L579.9 1065.4L594.9 871.9Z" fill="#297ea6" stroke="#297ea6"></path><path d="M2091.4 370.1L1960.1 136.6L1918.1 390.1Z" fill="#277297" stroke="#277297"></path><path d="M735.2 0L541.9 181.6L802.2 193.6Z" fill="#0c2435" stroke="#0c2435"></path><path d="M356.6 572.7L534.9 723.3L569.9 551.7Z" fill="#00101c" stroke="#00101c"></path><path d="M2135.4 879.9L1946.1 713.3L1885.1 923.9Z" fill="#00101c" stroke="#00101c"></path><path d="M2074.4 512.7L2091.4 370.1L1918.1 390.1Z" fill="#277297" stroke="#277297"></path><path d="M2276.7 393.1L2091.4 370.1L2074.4 512.7Z" fill="#081a28" stroke="#081a28"></path><path d="M410.6 391.1L569.9 551.7L576.9 373.1Z" fill="#0c2435" stroke="#0c2435"></path><path d="M534.9 723.3L388.6 867.9L594.9 871.9Z" fill="#112e42" stroke="#112e42"></path><path d="M2145.4 0L1895.1 0L1960.1 136.6Z" fill="#081a28" stroke="#081a28"></path><path d="M1960.1 136.6L1895.1 0L1765.8 217.6Z" fill="#297ea6" stroke="#297ea6"></path><path d="M413.6 218.6L410.6 391.1L576.9 373.1Z" fill="#15384f" stroke="#15384f"></path><path d="M735.2 0L611.9 0L541.9 181.6Z" fill="#00101c" stroke="#00101c"></path><path d="M541.9 181.6L413.6 218.6L576.9 373.1Z" fill="#297ea6" stroke="#297ea6"></path><path d="M2091.4 1107.4L1885.1 923.9L1898.1 1102.4Z" fill="#277297" stroke="#277297"></path><path d="M2091.4 1107.4L2135.4 879.9L1885.1 923.9Z" fill="#0c2435" stroke="#0c2435"></path><path d="M2276.7 393.1L2151.4 191.6L2091.4 370.1Z" fill="#112e42" stroke="#112e42"></path><path d="M410.6 391.1L356.6 572.7L569.9 551.7Z" fill="#277297" stroke="#277297"></path><path d="M200.3 675.3L388.6 867.9L403.6 743.3Z" fill="#205a7a" stroke="#205a7a"></path><path d="M403.6 743.3L388.6 867.9L534.9 723.3Z" fill="#246688" stroke="#246688"></path><path d="M1744.8 1250L1948.1 1250L1898.1 1102.4Z" fill="#205a7a" stroke="#205a7a"></path><path d="M410.6 391.1L218.3 525.7L356.6 572.7Z" fill="#00101c" stroke="#00101c"></path><path d="M417.6 0L413.6 218.6L541.9 181.6Z" fill="#00101c" stroke="#00101c"></path><path d="M389.6 1250L562.9 1250L579.9 1065.4Z" fill="#15384f" stroke="#15384f"></path><path d="M579.9 1065.4L562.9 1250L787.2 1081.4Z" fill="#277297" stroke="#277297"></path><path d="M1948.1 1250L2091.4 1107.4L1898.1 1102.4Z" fill="#081a28" stroke="#081a28"></path><path d="M2276.7 393.1L2074.4 512.7L2344.7 573.7Z" fill="#19435d" stroke="#19435d"></path><path d="M2091.4 370.1L2151.4 191.6L1960.1 136.6Z" fill="#19435d" stroke="#19435d"></path><path d="M207.3 929.9L377.6 1038.4L388.6 867.9Z" fill="#19435d" stroke="#19435d"></path><path d="M388.6 867.9L377.6 1038.4L594.9 871.9Z" fill="#112e42" stroke="#112e42"></path><path d="M2315.7 726.3L2115.4 678.3L2135.4 879.9Z" fill="#277297" stroke="#277297"></path><path d="M2344.7 573.7L2074.4 512.7L2115.4 678.3Z" fill="#277297" stroke="#277297"></path><path d="M1948.1 1250L2090.4 1250L2091.4 1107.4Z" fill="#0c2435" stroke="#0c2435"></path><path d="M2332.7 863.9L2315.7 726.3L2135.4 879.9Z" fill="#112e42" stroke="#112e42"></path><path d="M611.9 0L417.6 0L541.9 181.6Z" fill="#297ea6" stroke="#297ea6"></path><path d="M161.3 322.1L218.3 525.7L410.6 391.1Z" fill="#277297" stroke="#277297"></path><path d="M2332.7 863.9L2135.4 879.9L2308.7 1032.4Z" fill="#205a7a" stroke="#205a7a"></path><path d="M161.3 322.1L410.6 391.1L413.6 218.6Z" fill="#297ea6" stroke="#297ea6"></path><path d="M356.6 572.7L200.3 675.3L403.6 743.3Z" fill="#081a28" stroke="#081a28"></path><path d="M218.3 525.7L200.3 675.3L356.6 572.7Z" fill="#1d4e6b" stroke="#1d4e6b"></path><path d="M2268.7 163.6L2145.4 0L2151.4 191.6Z" fill="#00101c" stroke="#00101c"></path><path d="M2151.4 191.6L2145.4 0L1960.1 136.6Z" fill="#15384f" stroke="#15384f"></path><path d="M2315.7 726.3L2344.7 573.7L2115.4 678.3Z" fill="#277297" stroke="#277297"></path><path d="M2276.7 393.1L2268.7 163.6L2151.4 191.6Z" fill="#15384f" stroke="#15384f"></path><path d="M377.6 1038.4L389.6 1250L579.9 1065.4Z" fill="#1d4e6b" stroke="#1d4e6b"></path><path d="M173.3 1060.4L389.6 1250L377.6 1038.4Z" fill="#205a7a" stroke="#205a7a"></path><path d="M2308.7 1032.4L2135.4 879.9L2091.4 1107.4Z" fill="#0c2435" stroke="#0c2435"></path><path d="M2315.7 726.3L2500 672.3L2344.7 573.7Z" fill="#19435d" stroke="#19435d"></path><path d="M2500 326.1L2268.7 163.6L2276.7 393.1Z" fill="#112e42" stroke="#112e42"></path><path d="M200.3 675.3L207.3 929.9L388.6 867.9Z" fill="#277297" stroke="#277297"></path><path d="M2293.7 1250L2308.7 1032.4L2091.4 1107.4Z" fill="#246688" stroke="#246688"></path><path d="M211.3 147.6L161.3 322.1L413.6 218.6Z" fill="#081a28" stroke="#081a28"></path><path d="M218.3 525.7L0 528.7L200.3 675.3Z" fill="#0c2435" stroke="#0c2435"></path><path d="M0 859.9L173.3 1060.4L207.3 929.9Z" fill="#112e42" stroke="#112e42"></path><path d="M417.6 0L211.3 147.6L413.6 218.6Z" fill="#00101c" stroke="#00101c"></path><path d="M0 859.9L207.3 929.9L200.3 675.3Z" fill="#297ea6" stroke="#297ea6"></path><path d="M207.3 929.9L173.3 1060.4L377.6 1038.4Z" fill="#15384f" stroke="#15384f"></path><path d="M2500 142.6L2303.7 0L2268.7 163.6Z" fill="#246688" stroke="#246688"></path><path d="M2268.7 163.6L2303.7 0L2145.4 0Z" fill="#246688" stroke="#246688"></path><path d="M2090.4 1250L2293.7 1250L2091.4 1107.4Z" fill="#246688" stroke="#246688"></path><path d="M2500 871.9L2315.7 726.3L2332.7 863.9Z" fill="#1d4e6b" stroke="#1d4e6b"></path><path d="M2500 871.9L2500 672.3L2315.7 726.3Z" fill="#081a28" stroke="#081a28"></path><path d="M2344.7 573.7L2500 526.7L2276.7 393.1Z" fill="#297ea6" stroke="#297ea6"></path><path d="M2500 871.9L2332.7 863.9L2308.7 1032.4Z" fill="#0c2435" stroke="#0c2435"></path><path d="M2500 672.3L2500 526.7L2344.7 573.7Z" fill="#205a7a" stroke="#205a7a"></path><path d="M0 196.6L0 359.1L161.3 322.1Z" fill="#205a7a" stroke="#205a7a"></path><path d="M417.6 0L184.3 0L211.3 147.6Z" fill="#1d4e6b" stroke="#1d4e6b"></path><path d="M2500 1098.4L2500 871.9L2308.7 1032.4Z" fill="#19435d" stroke="#19435d"></path><path d="M173.3 1060.4L177.3 1250L389.6 1250Z" fill="#297ea6" stroke="#297ea6"></path><path d="M2500 526.7L2500 326.1L2276.7 393.1Z" fill="#112e42" stroke="#112e42"></path><path d="M0 359.1L0 528.7L161.3 322.1Z" fill="#277297" stroke="#277297"></path><path d="M161.3 322.1L0 528.7L218.3 525.7Z" fill="#205a7a" stroke="#205a7a"></path><path d="M173.3 1060.4L0 1102.4L177.3 1250Z" fill="#19435d" stroke="#19435d"></path><path d="M0 528.7L0 710.3L200.3 675.3Z" fill="#246688" stroke="#246688"></path><path d="M0 710.3L0 859.9L200.3 675.3Z" fill="#0c2435" stroke="#0c2435"></path><path d="M0 196.6L161.3 322.1L211.3 147.6Z" fill="#00101c" stroke="#00101c"></path><path d="M2500 326.1L2500 142.6L2268.7 163.6Z" fill="#297ea6" stroke="#297ea6"></path><path d="M2293.7 1250L2500 1098.4L2308.7 1032.4Z" fill="#297ea6" stroke="#297ea6"></path><path d="M0 0L0 196.6L211.3 147.6Z" fill="#081a28" stroke="#081a28"></path><path d="M0 859.9L0 1102.4L173.3 1060.4Z" fill="#19435d" stroke="#19435d"></path><path d="M2500 142.6L2500 0L2303.7 0Z" fill="#1d4e6b" stroke="#1d4e6b"></path><path d="M2293.7 1250L2500 1250L2500 1098.4Z" fill="#297ea6" stroke="#297ea6"></path><path d="M184.3 0L0 0L211.3 147.6Z" fill="#1d4e6b" stroke="#1d4e6b"></path><path d="M0 1102.4L0 1250L177.3 1250Z" fill="#297ea6" stroke="#297ea6"></path></g></svg>