<svg id="visual" viewBox="0 0 2500 1250" width="2500" height="1250" xmlns="http://www.w3.org/2000/svg" xmlns:xlink="http://www.w3.org/1999/xlink" version="1.1"><g stroke-width="1" stroke-linejoin="bevel"><path d="M1157.8 575.7L1126.8 685.3L1358.2 676.3Z" fill="#0c2435" stroke="#0c2435"></path><path d="M1358.2 676.3L1342.2 524.7L1157.8 575.7Z" fill="#246688" stroke="#246688"></path><path d="M1126.8 685.3L1374.2 867.9L1358.2 676.3Z" fill="#246688" stroke="#246688"></path><path d="M1126.8 685.3L1189.8 926.9L1374.2 867.9Z" fill="#297ea6" stroke="#297ea6"></path><path d="M1374.2 867.9L1516.5 731.3L1358.2 676.3Z" fill="#0c2435" stroke="#0c2435"></path><path d="M1358.2 676.3L1548.5 513.7L1342.2 524.7Z" fill="#1d4e6b" stroke="#1d4e6b"></path><path d="M1548.5 513.7L1374.2 397.1L1342.2 524.7Z" fill="#1d4e6b" stroke="#1d4e6b"></path><path d="M1342.2 524.7L1114.8 386.1L1157.8 575.7Z" fill="#246688" stroke="#246688"></path><path d="M1374.2 397.1L1114.8 386.1L1342.2 524.7Z" fill="#19435d" stroke="#19435d"></path><path d="M951.5 518.7L943.5 711.3L1126.8 685.3Z" fill="#277297" stroke="#277297"></path><path d="M951.5 518.7L1126.8 685.3L1157.8 575.7Z" fill="#0c2435" stroke="#0c2435"></path><path d="M1126.8 685.3L942.5 916.9L1189.8 926.9Z" fill="#277297" stroke="#277297"></path><path d="M1114.8 386.1L951.5 518.7L1157.8 575.7Z" fill="#081a28" stroke="#081a28"></path><path d="M1516.5 731.3L1548.5 513.7L1358.2 676.3Z" fill="#19435d" stroke="#19435d"></path><path d="M1374.2 867.9L1558.5 863.9L1516.5 731.3Z" fill="#246688" stroke="#246688"></path><path d="M1516.5 731.3L1709.8 728.3L1548.5 513.7Z" fill="#297ea6" stroke="#297ea6"></path><path d="M1537.5 1098.4L1558.5 863.9L1374.2 867.9Z" fill="#1d4e6b" stroke="#1d4e6b"></path><path d="M1548.5 513.7L1506.5 389.1L1374.2 397.1Z" fill="#0c2435" stroke="#0c2435"></path><path d="M1374.2 397.1L1152.8 185.6L1114.8 386.1Z" fill="#0c2435" stroke="#0c2435"></path><path d="M943.5 711.3L942.5 916.9L1126.8 685.3Z" fill="#297ea6" stroke="#297ea6"></path><path d="M1152.8 185.6L954.5 373.1L1114.8 386.1Z" fill="#081a28" stroke="#081a28"></path><path d="M1114.8 386.1L954.5 373.1L951.5 518.7Z" fill="#297ea6" stroke="#297ea6"></path><path d="M951.5 518.7L800.2 516.7L943.5 711.3Z" fill="#19435d" stroke="#19435d"></path><path d="M1155.8 1107.4L1324.2 1058.4L1189.8 926.9Z" fill="#205a7a" stroke="#205a7a"></path><path d="M1189.8 926.9L1324.2 1058.4L1374.2 867.9Z" fill="#1d4e6b" stroke="#1d4e6b"></path><path d="M945.5 1058.4L1155.8 1107.4L1189.8 926.9Z" fill="#205a7a" stroke="#205a7a"></path><path d="M954.5 373.1L800.2 516.7L951.5 518.7Z" fill="#0c2435" stroke="#0c2435"></path><path d="M943.5 711.3L787.2 880.9L942.5 916.9Z" fill="#19435d" stroke="#19435d"></path><path d="M800.2 516.7L778.2 718.3L943.5 711.3Z" fill="#19435d" stroke="#19435d"></path><path d="M1558.5 863.9L1709.8 728.3L1516.5 731.3Z" fill="#277297" stroke="#277297"></path><path d="M1548.5 513.7L1720.8 326.1L1506.5 389.1Z" fill="#19435d" stroke="#19435d"></path><path d="M1371.2 171.6L1152.8 185.6L1374.2 397.1Z" fill="#112e42" stroke="#112e42"></path><path d="M954.5 373.1L736.2 346.1L800.2 516.7Z" fill="#277297" stroke="#277297"></path><path d="M787.2 880.9L945.5 1058.4L942.5 916.9Z" fill="#297ea6" stroke="#297ea6"></path><path d="M942.5 916.9L945.5 1058.4L1189.8 926.9Z" fill="#205a7a" stroke="#205a7a"></path><path d="M1506.5 389.1L1371.2 171.6L1374.2 397.1Z" fill="#15384f" stroke="#15384f"></path><path d="M778.2 718.3L787.2 880.9L943.5 711.3Z" fill="#277297" stroke="#277297"></path><path d="M1340.2 1250L1537.5 1098.4L1324.2 1058.4Z" fill="#1d4e6b" stroke="#1d4e6b"></path><path d="M1324.2 1058.4L1537.5 1098.4L1374.2 867.9Z" fill="#00101c" stroke="#00101c"></path><path d="M1558.5 863.9L1764.8 931.9L1709.8 728.3Z" fill="#277297" stroke="#277297"></path><path d="M1709.8 728.3L1766.8 554.7L1548.5 513.7Z" fill="#19435d" stroke="#19435d"></path><path d="M1506.5 389.1L1538.5 162.6L1371.2 171.6Z" fill="#15384f" stroke="#15384f"></path><path d="M1720.8 326.1L1538.5 162.6L1506.5 389.1Z" fill="#15384f" stroke="#15384f"></path><path d="M1766.8 554.7L1720.8 326.1L1548.5 513.7Z" fill="#0c2435" stroke="#0c2435"></path><path d="M977.5 0L939.5 156.6L1152.8 185.6Z" fill="#277297" stroke="#277297"></path><path d="M1152.8 185.6L939.5 156.6L954.5 373.1Z" fill="#081a28" stroke="#081a28"></path><path d="M1331.2 0L1152.8 185.6L1371.2 171.6Z" fill="#081a28" stroke="#081a28"></path><path d="M1692.8 1088.4L1764.8 931.9L1558.5 863.9Z" fill="#112e42" stroke="#112e42"></path><path d="M1921.1 721.3L1904.1 544.7L1766.8 554.7Z" fill="#112e42" stroke="#112e42"></path><path d="M763.2 196.6L736.2 346.1L954.5 373.1Z" fill="#15384f" stroke="#15384f"></path><path d="M800.2 516.7L617.9 499.7L778.2 718.3Z" fill="#00101c" stroke="#00101c"></path><path d="M778.2 718.3L573.9 752.3L787.2 880.9Z" fill="#19435d" stroke="#19435d"></path><path d="M1155.8 1107.4L1340.2 1250L1324.2 1058.4Z" fill="#277297" stroke="#277297"></path><path d="M1537.5 1098.4L1692.8 1088.4L1558.5 863.9Z" fill="#1d4e6b" stroke="#1d4e6b"></path><path d="M1125.8 1250L1340.2 1250L1155.8 1107.4Z" fill="#277297" stroke="#277297"></path><path d="M969.5 1250L1125.8 1250L1155.8 1107.4Z" fill="#19435d" stroke="#19435d"></path><path d="M1519.5 1250L1692.8 1088.4L1537.5 1098.4Z" fill="#112e42" stroke="#112e42"></path><path d="M736.2 346.1L617.9 499.7L800.2 516.7Z" fill="#112e42" stroke="#112e42"></path><path d="M771.2 1112.4L969.5 1250L945.5 1058.4Z" fill="#19435d" stroke="#19435d"></path><path d="M945.5 1058.4L969.5 1250L1155.8 1107.4Z" fill="#0c2435" stroke="#0c2435"></path><path d="M1340.2 1250L1519.5 1250L1537.5 1098.4Z" fill="#19435d" stroke="#19435d"></path><path d="M787.2 880.9L771.2 1112.4L945.5 1058.4Z" fill="#00101c" stroke="#00101c"></path><path d="M540.9 1111.4L771.2 1112.4L787.2 880.9Z" fill="#277297" stroke="#277297"></path><path d="M1543.5 0L1331.2 0L1371.2 171.6Z" fill="#112e42" stroke="#112e42"></path><path d="M939.5 156.6L763.2 196.6L954.5 373.1Z" fill="#00101c" stroke="#00101c"></path><path d="M736.2 346.1L606.9 360.1L617.9 499.7Z" fill="#1d4e6b" stroke="#1d4e6b"></path><path d="M798.2 0L763.2 196.6L939.5 156.6Z" fill="#0c2435" stroke="#0c2435"></path><path d="M1331.2 0L1143.8 0L1152.8 185.6Z" fill="#112e42" stroke="#112e42"></path><path d="M1921.1 721.3L1766.8 554.7L1709.8 728.3Z" fill="#00101c" stroke="#00101c"></path><path d="M1766.8 554.7L1895.1 376.1L1720.8 326.1Z" fill="#19435d" stroke="#19435d"></path><path d="M617.9 499.7L573.9 752.3L778.2 718.3Z" fill="#112e42" stroke="#112e42"></path><path d="M1921.1 853.9L1921.1 721.3L1709.8 728.3Z" fill="#081a28" stroke="#081a28"></path><path d="M1921.1 853.9L1709.8 728.3L1764.8 931.9Z" fill="#297ea6" stroke="#297ea6"></path><path d="M1895.1 376.1L1746.8 196.6L1720.8 326.1Z" fill="#277297" stroke="#277297"></path><path d="M1720.8 326.1L1746.8 196.6L1538.5 162.6Z" fill="#112e42" stroke="#112e42"></path><path d="M1538.5 162.6L1543.5 0L1371.2 171.6Z" fill="#297ea6" stroke="#297ea6"></path><path d="M763.2 196.6L606.9 360.1L736.2 346.1Z" fill="#00101c" stroke="#00101c"></path><path d="M617.9 499.7L416.6 716.3L573.9 752.3Z" fill="#1d4e6b" stroke="#1d4e6b"></path><path d="M1890.1 1095.4L1921.1 853.9L1764.8 931.9Z" fill="#0c2435" stroke="#0c2435"></path><path d="M1143.8 0L977.5 0L1152.8 185.6Z" fill="#0c2435" stroke="#0c2435"></path><path d="M1904.1 544.7L1895.1 376.1L1766.8 554.7Z" fill="#297ea6" stroke="#297ea6"></path><path d="M2132.4 529.7L1895.1 376.1L1904.1 544.7Z" fill="#297ea6" stroke="#297ea6"></path><path d="M1711.8 0L1543.5 0L1538.5 162.6Z" fill="#112e42" stroke="#112e42"></path><path d="M416.6 716.3L541.9 850.9L573.9 752.3Z" fill="#19435d" stroke="#19435d"></path><path d="M573.9 752.3L541.9 850.9L787.2 880.9Z" fill="#277297" stroke="#277297"></path><path d="M614.9 1250L765.2 1250L771.2 1112.4Z" fill="#00101c" stroke="#00101c"></path><path d="M771.2 1112.4L765.2 1250L969.5 1250Z" fill="#19435d" stroke="#19435d"></path><path d="M1767.8 1250L1890.1 1095.4L1692.8 1088.4Z" fill="#00101c" stroke="#00101c"></path><path d="M1692.8 1088.4L1890.1 1095.4L1764.8 931.9Z" fill="#112e42" stroke="#112e42"></path><path d="M1519.5 1250L1767.8 1250L1692.8 1088.4Z" fill="#15384f" stroke="#15384f"></path><path d="M977.5 0L798.2 0L939.5 156.6Z" fill="#19435d" stroke="#19435d"></path><path d="M763.2 196.6L570.9 152.6L606.9 360.1Z" fill="#297ea6" stroke="#297ea6"></path><path d="M1746.8 196.6L1711.8 0L1538.5 162.6Z" fill="#00101c" stroke="#00101c"></path><path d="M1887.1 0L1711.8 0L1746.8 196.6Z" fill="#297ea6" stroke="#297ea6"></path><path d="M380.6 570.7L416.6 716.3L617.9 499.7Z" fill="#15384f" stroke="#15384f"></path><path d="M541.9 850.9L540.9 1111.4L787.2 880.9Z" fill="#297ea6" stroke="#297ea6"></path><path d="M380.6 570.7L617.9 499.7L378.6 322.1Z" fill="#1d4e6b" stroke="#1d4e6b"></path><path d="M346.6 907.9L540.9 1111.4L541.9 850.9Z" fill="#15384f" stroke="#15384f"></path><path d="M798.2 0L570.9 152.6L763.2 196.6Z" fill="#0c2435" stroke="#0c2435"></path><path d="M540.9 1111.4L614.9 1250L771.2 1112.4Z" fill="#1d4e6b" stroke="#1d4e6b"></path><path d="M378.6 322.1L617.9 499.7L606.9 360.1Z" fill="#277297" stroke="#277297"></path><path d="M1921.1 853.9L2111.4 701.3L1921.1 721.3Z" fill="#112e42" stroke="#112e42"></path><path d="M1921.1 721.3L2111.4 701.3L1904.1 544.7Z" fill="#246688" stroke="#246688"></path><path d="M1895.1 376.1L1953.1 141.6L1746.8 196.6Z" fill="#246688" stroke="#246688"></path><path d="M2101.4 926.9L2111.4 701.3L1921.1 853.9Z" fill="#15384f" stroke="#15384f"></path><path d="M2145.4 359.1L1953.1 141.6L1895.1 376.1Z" fill="#0c2435" stroke="#0c2435"></path><path d="M2111.4 701.3L2132.4 529.7L1904.1 544.7Z" fill="#112e42" stroke="#112e42"></path><path d="M2104.4 1053.4L2101.4 926.9L1890.1 1095.4Z" fill="#112e42" stroke="#112e42"></path><path d="M1890.1 1095.4L2101.4 926.9L1921.1 853.9Z" fill="#246688" stroke="#246688"></path><path d="M2111.4 701.3L2268.7 713.3L2132.4 529.7Z" fill="#297ea6" stroke="#297ea6"></path><path d="M1767.8 1250L1947.1 1250L1890.1 1095.4Z" fill="#081a28" stroke="#081a28"></path><path d="M1953.1 141.6L1887.1 0L1746.8 196.6Z" fill="#00101c" stroke="#00101c"></path><path d="M417.6 166.6L378.6 322.1L606.9 360.1Z" fill="#081a28" stroke="#081a28"></path><path d="M186.3 730.3L346.6 907.9L416.6 716.3Z" fill="#297ea6" stroke="#297ea6"></path><path d="M416.6 716.3L346.6 907.9L541.9 850.9Z" fill="#19435d" stroke="#19435d"></path><path d="M540.9 1111.4L365.6 1250L614.9 1250Z" fill="#19435d" stroke="#19435d"></path><path d="M186.3 730.3L416.6 716.3L380.6 570.7Z" fill="#246688" stroke="#246688"></path><path d="M1947.1 1250L2104.4 1053.4L1890.1 1095.4Z" fill="#246688" stroke="#246688"></path><path d="M2101.4 926.9L2268.7 713.3L2111.4 701.3Z" fill="#277297" stroke="#277297"></path><path d="M2132.4 529.7L2145.4 359.1L1895.1 376.1Z" fill="#297ea6" stroke="#297ea6"></path><path d="M1953.1 141.6L2100.4 0L1887.1 0Z" fill="#19435d" stroke="#19435d"></path><path d="M2266.7 391.1L2145.4 359.1L2132.4 529.7Z" fill="#112e42" stroke="#112e42"></path><path d="M798.2 0L549.9 0L570.9 152.6Z" fill="#112e42" stroke="#112e42"></path><path d="M570.9 152.6L417.6 166.6L606.9 360.1Z" fill="#277297" stroke="#277297"></path><path d="M549.9 0L417.6 166.6L570.9 152.6Z" fill="#246688" stroke="#246688"></path><path d="M346.6 907.9L366.6 1084.4L540.9 1111.4Z" fill="#00101c" stroke="#00101c"></path><path d="M155.3 333.1L229.3 542.7L378.6 322.1Z" fill="#0c2435" stroke="#0c2435"></path><path d="M378.6 322.1L229.3 542.7L380.6 570.7Z" fill="#19435d" stroke="#19435d"></path><path d="M346.6 907.9L186.3 930.9L366.6 1084.4Z" fill="#00101c" stroke="#00101c"></path><path d="M2330.7 851.9L2268.7 713.3L2101.4 926.9Z" fill="#15384f" stroke="#15384f"></path><path d="M2268.7 713.3L2269.7 517.7L2132.4 529.7Z" fill="#0c2435" stroke="#0c2435"></path><path d="M2145.4 359.1L2143.4 140.6L1953.1 141.6Z" fill="#205a7a" stroke="#205a7a"></path><path d="M2278.7 180.6L2143.4 140.6L2145.4 359.1Z" fill="#246688" stroke="#246688"></path><path d="M196.3 1250L365.6 1250L366.6 1084.4Z" fill="#277297" stroke="#277297"></path><path d="M366.6 1084.4L365.6 1250L540.9 1111.4Z" fill="#0c2435" stroke="#0c2435"></path><path d="M229.3 542.7L186.3 730.3L380.6 570.7Z" fill="#297ea6" stroke="#297ea6"></path><path d="M2269.7 517.7L2266.7 391.1L2132.4 529.7Z" fill="#00101c" stroke="#00101c"></path><path d="M549.9 0L389.6 0L417.6 166.6Z" fill="#297ea6" stroke="#297ea6"></path><path d="M204.3 170.6L155.3 333.1L378.6 322.1Z" fill="#0c2435" stroke="#0c2435"></path><path d="M2300.7 0L2100.4 0L2143.4 140.6Z" fill="#1d4e6b" stroke="#1d4e6b"></path><path d="M2143.4 140.6L2100.4 0L1953.1 141.6Z" fill="#277297" stroke="#277297"></path><path d="M1947.1 1250L2151.4 1250L2104.4 1053.4Z" fill="#15384f" stroke="#15384f"></path><path d="M2317.7 1045.4L2330.7 851.9L2101.4 926.9Z" fill="#15384f" stroke="#15384f"></path><path d="M186.3 730.3L186.3 930.9L346.6 907.9Z" fill="#277297" stroke="#277297"></path><path d="M2268.7 713.3L2500 497.7L2269.7 517.7Z" fill="#00101c" stroke="#00101c"></path><path d="M2269.7 517.7L2500 497.7L2266.7 391.1Z" fill="#1d4e6b" stroke="#1d4e6b"></path><path d="M2317.7 1045.4L2101.4 926.9L2104.4 1053.4Z" fill="#0c2435" stroke="#0c2435"></path><path d="M204.3 170.6L378.6 322.1L417.6 166.6Z" fill="#19435d" stroke="#19435d"></path><path d="M229.3 542.7L0 688.3L186.3 730.3Z" fill="#0c2435" stroke="#0c2435"></path><path d="M0 1034.4L159.3 1086.4L186.3 930.9Z" fill="#1d4e6b" stroke="#1d4e6b"></path><path d="M2500 380.1L2278.7 180.6L2266.7 391.1Z" fill="#277297" stroke="#277297"></path><path d="M2266.7 391.1L2278.7 180.6L2145.4 359.1Z" fill="#246688" stroke="#246688"></path><path d="M2270.7 1250L2317.7 1045.4L2104.4 1053.4Z" fill="#00101c" stroke="#00101c"></path><path d="M389.6 0L204.3 170.6L417.6 166.6Z" fill="#112e42" stroke="#112e42"></path><path d="M0 903.9L186.3 930.9L186.3 730.3Z" fill="#112e42" stroke="#112e42"></path><path d="M186.3 930.9L159.3 1086.4L366.6 1084.4Z" fill="#297ea6" stroke="#297ea6"></path><path d="M2151.4 1250L2270.7 1250L2104.4 1053.4Z" fill="#00101c" stroke="#00101c"></path><path d="M159.3 1086.4L196.3 1250L366.6 1084.4Z" fill="#1d4e6b" stroke="#1d4e6b"></path><path d="M389.6 0L204.3 0L204.3 170.6Z" fill="#277297" stroke="#277297"></path><path d="M0 205.6L0 339.1L155.3 333.1Z" fill="#297ea6" stroke="#297ea6"></path><path d="M0 535.7L0 688.3L229.3 542.7Z" fill="#19435d" stroke="#19435d"></path><path d="M159.3 1086.4L0 1250L196.3 1250Z" fill="#081a28" stroke="#081a28"></path><path d="M0 535.7L229.3 542.7L155.3 333.1Z" fill="#297ea6" stroke="#297ea6"></path><path d="M2500 183.6L2300.7 0L2278.7 180.6Z" fill="#205a7a" stroke="#205a7a"></path><path d="M2278.7 180.6L2300.7 0L2143.4 140.6Z" fill="#0c2435" stroke="#0c2435"></path><path d="M0 339.1L0 535.7L155.3 333.1Z" fill="#297ea6" stroke="#297ea6"></path><path d="M2500 891.9L2500 735.3L2330.7 851.9Z" fill="#1d4e6b" stroke="#1d4e6b"></path><path d="M2330.7 851.9L2500 735.3L2268.7 713.3Z" fill="#19435d" stroke="#19435d"></path><path d="M2500 891.9L2330.7 851.9L2317.7 1045.4Z" fill="#1d4e6b" stroke="#1d4e6b"></path><path d="M0 688.3L0 903.9L186.3 730.3Z" fill="#1d4e6b" stroke="#1d4e6b"></path><path d="M2500 735.3L2500 497.7L2268.7 713.3Z" fill="#297ea6" stroke="#297ea6"></path><path d="M2500 1032.4L2500 891.9L2317.7 1045.4Z" fill="#081a28" stroke="#081a28"></path><path d="M0 205.6L155.3 333.1L204.3 170.6Z" fill="#205a7a" stroke="#205a7a"></path><path d="M2500 497.7L2500 380.1L2266.7 391.1Z" fill="#0c2435" stroke="#0c2435"></path><path d="M0 903.9L0 1034.4L186.3 930.9Z" fill="#081a28" stroke="#081a28"></path><path d="M2500 1250L2500 1032.4L2317.7 1045.4Z" fill="#1d4e6b" stroke="#1d4e6b"></path><path d="M0 0L0 205.6L204.3 170.6Z" fill="#081a28" stroke="#081a28"></path><path d="M2500 380.1L2500 183.6L2278.7 180.6Z" fill="#081a28" stroke="#081a28"></path><path d="M0 1034.4L0 1250L159.3 1086.4Z" fill="#112e42" stroke="#112e42"></path><path d="M2270.7 1250L2500 1250L2317.7 1045.4Z" fill="#15384f" stroke="#15384f"></path><path d="M204.3 0L0 0L204.3 170.6Z" fill="#205a7a" stroke="#205a7a"></path><path d="M2500 183.6L2500 0L2300.7 0Z" fill="#112e42" stroke="#112e42"></path></g></svg>