<svg id="visual" viewBox="0 0 2500 1250" width="2500" height="1250" xmlns="http://www.w3.org/2000/svg" xmlns:xlink="http://www.w3.org/1999/xlink" version="1.1"><g stroke-width="1" stroke-linejoin="bevel"><path d="M1171.8 525.7L1323.2 353.1L1191.8 365.1Z" fill="#112e42" stroke="#112e42"></path><path d="M1171.8 525.7L1369.2 548.7L1323.2 353.1Z" fill="#00101c" stroke="#00101c"></path><path d="M1565.5 152.6L1315.2 210.6L1323.2 353.1Z" fill="#19435d" stroke="#19435d"></path><path d="M1323.2 353.1L1315.2 210.6L1191.8 365.1Z" fill="#246688" stroke="#246688"></path><path d="M1369.2 548.7L1522.5 514.7L1323.2 353.1Z" fill="#00101c" stroke="#00101c"></path><path d="M1171.8 525.7L1344.2 729.3L1369.2 548.7Z" fill="#1d4e6b" stroke="#1d4e6b"></path><path d="M1369.2 548.7L1548.5 743.3L1522.5 514.7Z" fill="#19435d" stroke="#19435d"></path><path d="M1171.8 525.7L1173.8 740.3L1344.2 729.3Z" fill="#15384f" stroke="#15384f"></path><path d="M1522.5 514.7L1579.5 384.1L1323.2 353.1Z" fill="#15384f" stroke="#15384f"></path><path d="M985.5 177.6L962.5 340.1L1191.8 365.1Z" fill="#0c2435" stroke="#0c2435"></path><path d="M1191.8 365.1L962.5 340.1L1171.8 525.7Z" fill="#205a7a" stroke="#205a7a"></path><path d="M1171.8 525.7L920.5 704.3L1173.8 740.3Z" fill="#246688" stroke="#246688"></path><path d="M1315.2 210.6L1154.8 146.6L1191.8 365.1Z" fill="#277297" stroke="#277297"></path><path d="M962.5 340.1L919.5 511.7L1171.8 525.7Z" fill="#297ea6" stroke="#297ea6"></path><path d="M1154.8 146.6L985.5 177.6L1191.8 365.1Z" fill="#0c2435" stroke="#0c2435"></path><path d="M747.2 382.1L764.2 569.7L919.5 511.7Z" fill="#19435d" stroke="#19435d"></path><path d="M1344.2 729.3L1548.5 743.3L1369.2 548.7Z" fill="#19435d" stroke="#19435d"></path><path d="M1758.8 521.7L1716.8 357.1L1579.5 384.1Z" fill="#1d4e6b" stroke="#1d4e6b"></path><path d="M1385.2 850.9L1548.5 743.3L1344.2 729.3Z" fill="#277297" stroke="#277297"></path><path d="M1173.8 740.3L1385.2 850.9L1344.2 729.3Z" fill="#112e42" stroke="#112e42"></path><path d="M919.5 511.7L920.5 704.3L1171.8 525.7Z" fill="#081a28" stroke="#081a28"></path><path d="M1173.8 740.3L1112.8 920.9L1385.2 850.9Z" fill="#297ea6" stroke="#297ea6"></path><path d="M1579.5 384.1L1565.5 152.6L1323.2 353.1Z" fill="#205a7a" stroke="#205a7a"></path><path d="M1315.2 210.6L1326.2 0L1154.8 146.6Z" fill="#081a28" stroke="#081a28"></path><path d="M1565.5 152.6L1326.2 0L1315.2 210.6Z" fill="#0c2435" stroke="#0c2435"></path><path d="M1154.8 146.6L941.5 0L985.5 177.6Z" fill="#19435d" stroke="#19435d"></path><path d="M1758.8 521.7L1579.5 384.1L1522.5 514.7Z" fill="#00101c" stroke="#00101c"></path><path d="M1579.5 384.1L1716.8 357.1L1565.5 152.6Z" fill="#1d4e6b" stroke="#1d4e6b"></path><path d="M1326.2 0L1167.8 0L1154.8 146.6Z" fill="#19435d" stroke="#19435d"></path><path d="M1552.5 855.9L1691.8 673.3L1548.5 743.3Z" fill="#19435d" stroke="#19435d"></path><path d="M1548.5 743.3L1691.8 673.3L1522.5 514.7Z" fill="#205a7a" stroke="#205a7a"></path><path d="M920.5 704.3L1112.8 920.9L1173.8 740.3Z" fill="#15384f" stroke="#15384f"></path><path d="M1532.5 1082.4L1552.5 855.9L1385.2 850.9Z" fill="#277297" stroke="#277297"></path><path d="M1385.2 850.9L1552.5 855.9L1548.5 743.3Z" fill="#19435d" stroke="#19435d"></path><path d="M1691.8 673.3L1758.8 521.7L1522.5 514.7Z" fill="#297ea6" stroke="#297ea6"></path><path d="M747.2 382.1L919.5 511.7L962.5 340.1Z" fill="#0c2435" stroke="#0c2435"></path><path d="M919.5 511.7L802.2 688.3L920.5 704.3Z" fill="#081a28" stroke="#081a28"></path><path d="M920.5 704.3L951.5 920.9L1112.8 920.9Z" fill="#1d4e6b" stroke="#1d4e6b"></path><path d="M764.2 569.7L802.2 688.3L919.5 511.7Z" fill="#19435d" stroke="#19435d"></path><path d="M740.2 216.6L962.5 340.1L985.5 177.6Z" fill="#205a7a" stroke="#205a7a"></path><path d="M740.2 216.6L747.2 382.1L962.5 340.1Z" fill="#205a7a" stroke="#205a7a"></path><path d="M1565.5 152.6L1557.5 0L1326.2 0Z" fill="#1d4e6b" stroke="#1d4e6b"></path><path d="M1723.8 159.6L1557.5 0L1565.5 152.6Z" fill="#19435d" stroke="#19435d"></path><path d="M1898.1 319.1L1723.8 159.6L1716.8 357.1Z" fill="#081a28" stroke="#081a28"></path><path d="M1716.8 357.1L1723.8 159.6L1565.5 152.6Z" fill="#277297" stroke="#277297"></path><path d="M1167.8 0L941.5 0L1154.8 146.6Z" fill="#246688" stroke="#246688"></path><path d="M755.2 865.9L951.5 920.9L920.5 704.3Z" fill="#112e42" stroke="#112e42"></path><path d="M941.5 0L740.2 216.6L985.5 177.6Z" fill="#205a7a" stroke="#205a7a"></path><path d="M1139.8 1066.4L1321.2 1044.4L1112.8 920.9Z" fill="#081a28" stroke="#081a28"></path><path d="M1112.8 920.9L1321.2 1044.4L1385.2 850.9Z" fill="#0c2435" stroke="#0c2435"></path><path d="M951.5 920.9L1139.8 1066.4L1112.8 920.9Z" fill="#246688" stroke="#246688"></path><path d="M1953.1 566.7L1898.1 319.1L1758.8 521.7Z" fill="#112e42" stroke="#112e42"></path><path d="M1758.8 521.7L1898.1 319.1L1716.8 357.1Z" fill="#277297" stroke="#277297"></path><path d="M1723.8 159.6L1751.8 0L1557.5 0Z" fill="#19435d" stroke="#19435d"></path><path d="M802.2 688.3L755.2 865.9L920.5 704.3Z" fill="#112e42" stroke="#112e42"></path><path d="M951.5 920.9L922.5 1079.4L1139.8 1066.4Z" fill="#246688" stroke="#246688"></path><path d="M556.9 700.3L755.2 865.9L802.2 688.3Z" fill="#15384f" stroke="#15384f"></path><path d="M556.9 700.3L802.2 688.3L764.2 569.7Z" fill="#112e42" stroke="#112e42"></path><path d="M588.9 523.7L764.2 569.7L747.2 382.1Z" fill="#15384f" stroke="#15384f"></path><path d="M1898.1 0L1751.8 0L1723.8 159.6Z" fill="#00101c" stroke="#00101c"></path><path d="M1552.5 855.9L1766.8 912.9L1691.8 673.3Z" fill="#277297" stroke="#277297"></path><path d="M1691.8 673.3L1953.1 566.7L1758.8 521.7Z" fill="#246688" stroke="#246688"></path><path d="M1716.8 1081.4L1766.8 912.9L1552.5 855.9Z" fill="#1d4e6b" stroke="#1d4e6b"></path><path d="M1313.2 1250L1532.5 1082.4L1321.2 1044.4Z" fill="#15384f" stroke="#15384f"></path><path d="M1321.2 1044.4L1532.5 1082.4L1385.2 850.9Z" fill="#15384f" stroke="#15384f"></path><path d="M543.9 359.1L588.9 523.7L747.2 382.1Z" fill="#15384f" stroke="#15384f"></path><path d="M941.5 0L752.2 0L740.2 216.6Z" fill="#19435d" stroke="#19435d"></path><path d="M740.2 216.6L543.9 359.1L747.2 382.1Z" fill="#205a7a" stroke="#205a7a"></path><path d="M1962.1 716.3L1953.1 566.7L1691.8 673.3Z" fill="#246688" stroke="#246688"></path><path d="M755.2 865.9L922.5 1079.4L951.5 920.9Z" fill="#277297" stroke="#277297"></path><path d="M1176.8 1250L1313.2 1250L1321.2 1044.4Z" fill="#277297" stroke="#277297"></path><path d="M1898.1 319.1L1939.1 219.6L1723.8 159.6Z" fill="#081a28" stroke="#081a28"></path><path d="M2126.4 359.1L1939.1 219.6L1898.1 319.1Z" fill="#246688" stroke="#246688"></path><path d="M580.9 162.6L543.9 359.1L740.2 216.6Z" fill="#246688" stroke="#246688"></path><path d="M1766.8 912.9L1962.1 716.3L1691.8 673.3Z" fill="#1d4e6b" stroke="#1d4e6b"></path><path d="M1953.1 566.7L2126.4 359.1L1898.1 319.1Z" fill="#0c2435" stroke="#0c2435"></path><path d="M752.2 0L580.9 162.6L740.2 216.6Z" fill="#081a28" stroke="#081a28"></path><path d="M392.6 497.7L556.9 700.3L588.9 523.7Z" fill="#277297" stroke="#277297"></path><path d="M588.9 523.7L556.9 700.3L764.2 569.7Z" fill="#15384f" stroke="#15384f"></path><path d="M755.2 865.9L751.2 1093.4L922.5 1079.4Z" fill="#112e42" stroke="#112e42"></path><path d="M1532.5 1082.4L1716.8 1081.4L1552.5 855.9Z" fill="#00101c" stroke="#00101c"></path><path d="M1766.8 912.9L1929.1 927.9L1962.1 716.3Z" fill="#19435d" stroke="#19435d"></path><path d="M1939.1 219.6L1898.1 0L1723.8 159.6Z" fill="#246688" stroke="#246688"></path><path d="M1176.8 1250L1321.2 1044.4L1139.8 1066.4Z" fill="#112e42" stroke="#112e42"></path><path d="M1532.5 1082.4L1555.5 1250L1716.8 1081.4Z" fill="#205a7a" stroke="#205a7a"></path><path d="M938.5 1250L1176.8 1250L1139.8 1066.4Z" fill="#00101c" stroke="#00101c"></path><path d="M1936.1 1052.4L1929.1 927.9L1766.8 912.9Z" fill="#246688" stroke="#246688"></path><path d="M565.9 883.9L751.2 1093.4L755.2 865.9Z" fill="#205a7a" stroke="#205a7a"></path><path d="M922.5 1079.4L938.5 1250L1139.8 1066.4Z" fill="#112e42" stroke="#112e42"></path><path d="M556.9 700.3L565.9 883.9L755.2 865.9Z" fill="#205a7a" stroke="#205a7a"></path><path d="M1313.2 1250L1555.5 1250L1532.5 1082.4Z" fill="#205a7a" stroke="#205a7a"></path><path d="M1716.8 1081.4L1936.1 1052.4L1766.8 912.9Z" fill="#246688" stroke="#246688"></path><path d="M752.2 0L552.9 0L580.9 162.6Z" fill="#205a7a" stroke="#205a7a"></path><path d="M355.6 337.1L392.6 497.7L543.9 359.1Z" fill="#081a28" stroke="#081a28"></path><path d="M2122.4 748.3L2112.4 535.7L1962.1 716.3Z" fill="#15384f" stroke="#15384f"></path><path d="M1962.1 716.3L2112.4 535.7L1953.1 566.7Z" fill="#00101c" stroke="#00101c"></path><path d="M1939.1 219.6L2118.4 153.6L1898.1 0Z" fill="#15384f" stroke="#15384f"></path><path d="M785.2 1250L938.5 1250L922.5 1079.4Z" fill="#0c2435" stroke="#0c2435"></path><path d="M2112.4 535.7L2126.4 359.1L1953.1 566.7Z" fill="#00101c" stroke="#00101c"></path><path d="M543.9 359.1L392.6 497.7L588.9 523.7Z" fill="#297ea6" stroke="#297ea6"></path><path d="M556.9 700.3L422.6 855.9L565.9 883.9Z" fill="#081a28" stroke="#081a28"></path><path d="M355.6 337.1L543.9 359.1L375.6 180.6Z" fill="#297ea6" stroke="#297ea6"></path><path d="M1907.1 1250L1936.1 1052.4L1716.8 1081.4Z" fill="#15384f" stroke="#15384f"></path><path d="M2091.4 871.9L2122.4 748.3L1962.1 716.3Z" fill="#19435d" stroke="#19435d"></path><path d="M2126.4 359.1L2118.4 153.6L1939.1 219.6Z" fill="#246688" stroke="#246688"></path><path d="M2091.4 871.9L1962.1 716.3L1929.1 927.9Z" fill="#1d4e6b" stroke="#1d4e6b"></path><path d="M2112.4 535.7L2286.7 377.1L2126.4 359.1Z" fill="#112e42" stroke="#112e42"></path><path d="M1555.5 1250L1701.8 1250L1716.8 1081.4Z" fill="#00101c" stroke="#00101c"></path><path d="M375.6 180.6L543.9 359.1L580.9 162.6Z" fill="#112e42" stroke="#112e42"></path><path d="M2085.4 1051.4L2091.4 871.9L1929.1 927.9Z" fill="#081a28" stroke="#081a28"></path><path d="M556.9 1250L785.2 1250L751.2 1093.4Z" fill="#19435d" stroke="#19435d"></path><path d="M751.2 1093.4L785.2 1250L922.5 1079.4Z" fill="#205a7a" stroke="#205a7a"></path><path d="M552.9 0L375.6 180.6L580.9 162.6Z" fill="#1d4e6b" stroke="#1d4e6b"></path><path d="M347.6 713.3L556.9 700.3L392.6 497.7Z" fill="#0c2435" stroke="#0c2435"></path><path d="M347.6 713.3L422.6 855.9L556.9 700.3Z" fill="#297ea6" stroke="#297ea6"></path><path d="M565.9 883.9L569.9 1078.4L751.2 1093.4Z" fill="#246688" stroke="#246688"></path><path d="M404.6 1098.4L569.9 1078.4L565.9 883.9Z" fill="#00101c" stroke="#00101c"></path><path d="M2118.4 153.6L2092.4 0L1898.1 0Z" fill="#205a7a" stroke="#205a7a"></path><path d="M200.3 528.7L347.6 713.3L392.6 497.7Z" fill="#246688" stroke="#246688"></path><path d="M1907.1 1250L2085.4 1051.4L1936.1 1052.4Z" fill="#277297" stroke="#277297"></path><path d="M1936.1 1052.4L2085.4 1051.4L1929.1 927.9Z" fill="#19435d" stroke="#19435d"></path><path d="M2292.7 875.9L2301.7 719.3L2122.4 748.3Z" fill="#15384f" stroke="#15384f"></path><path d="M1701.8 1250L1907.1 1250L1716.8 1081.4Z" fill="#297ea6" stroke="#297ea6"></path><path d="M171.3 185.6L226.3 363.1L355.6 337.1Z" fill="#205a7a" stroke="#205a7a"></path><path d="M355.6 337.1L226.3 363.1L392.6 497.7Z" fill="#297ea6" stroke="#297ea6"></path><path d="M552.9 0L352.6 0L375.6 180.6Z" fill="#15384f" stroke="#15384f"></path><path d="M2339.7 539.7L2286.7 377.1L2112.4 535.7Z" fill="#19435d" stroke="#19435d"></path><path d="M2126.4 359.1L2286.7 377.1L2118.4 153.6Z" fill="#277297" stroke="#277297"></path><path d="M2118.4 153.6L2307.7 0L2092.4 0Z" fill="#1d4e6b" stroke="#1d4e6b"></path><path d="M2301.7 719.3L2112.4 535.7L2122.4 748.3Z" fill="#1d4e6b" stroke="#1d4e6b"></path><path d="M171.3 185.6L355.6 337.1L375.6 180.6Z" fill="#19435d" stroke="#19435d"></path><path d="M404.6 1098.4L556.9 1250L569.9 1078.4Z" fill="#277297" stroke="#277297"></path><path d="M569.9 1078.4L556.9 1250L751.2 1093.4Z" fill="#00101c" stroke="#00101c"></path><path d="M404.6 1098.4L565.9 883.9L422.6 855.9Z" fill="#112e42" stroke="#112e42"></path><path d="M2292.7 875.9L2122.4 748.3L2091.4 871.9Z" fill="#1d4e6b" stroke="#1d4e6b"></path><path d="M226.3 363.1L200.3 528.7L392.6 497.7Z" fill="#205a7a" stroke="#205a7a"></path><path d="M229.3 1095.4L404.6 1098.4L422.6 855.9Z" fill="#1d4e6b" stroke="#1d4e6b"></path><path d="M172.3 907.9L422.6 855.9L347.6 713.3Z" fill="#205a7a" stroke="#205a7a"></path><path d="M2301.7 719.3L2339.7 539.7L2112.4 535.7Z" fill="#277297" stroke="#277297"></path><path d="M200.3 528.7L197.3 694.3L347.6 713.3Z" fill="#081a28" stroke="#081a28"></path><path d="M2085.4 1051.4L2292.7 875.9L2091.4 871.9Z" fill="#081a28" stroke="#081a28"></path><path d="M2500 708.3L2500 503.7L2339.7 539.7Z" fill="#297ea6" stroke="#297ea6"></path><path d="M2281.7 1070.4L2292.7 875.9L2085.4 1051.4Z" fill="#112e42" stroke="#112e42"></path><path d="M2500 376.1L2347.7 174.6L2286.7 377.1Z" fill="#205a7a" stroke="#205a7a"></path><path d="M2286.7 377.1L2347.7 174.6L2118.4 153.6Z" fill="#00101c" stroke="#00101c"></path><path d="M210.3 0L171.3 185.6L375.6 180.6Z" fill="#205a7a" stroke="#205a7a"></path><path d="M226.3 363.1L0 500.7L200.3 528.7Z" fill="#15384f" stroke="#15384f"></path><path d="M0 743.3L172.3 907.9L197.3 694.3Z" fill="#15384f" stroke="#15384f"></path><path d="M2347.7 174.6L2307.7 0L2118.4 153.6Z" fill="#081a28" stroke="#081a28"></path><path d="M352.6 0L210.3 0L375.6 180.6Z" fill="#1d4e6b" stroke="#1d4e6b"></path><path d="M1907.1 1250L2139.4 1250L2085.4 1051.4Z" fill="#205a7a" stroke="#205a7a"></path><path d="M0 500.7L197.3 694.3L200.3 528.7Z" fill="#277297" stroke="#277297"></path><path d="M197.3 694.3L172.3 907.9L347.6 713.3Z" fill="#0c2435" stroke="#0c2435"></path><path d="M404.6 1098.4L350.6 1250L556.9 1250Z" fill="#205a7a" stroke="#205a7a"></path><path d="M2139.4 1250L2281.7 1070.4L2085.4 1051.4Z" fill="#246688" stroke="#246688"></path><path d="M2500 708.3L2339.7 539.7L2301.7 719.3Z" fill="#297ea6" stroke="#297ea6"></path><path d="M229.3 1095.4L350.6 1250L404.6 1098.4Z" fill="#1d4e6b" stroke="#1d4e6b"></path><path d="M172.3 907.9L229.3 1095.4L422.6 855.9Z" fill="#112e42" stroke="#112e42"></path><path d="M2500 708.3L2301.7 719.3L2292.7 875.9Z" fill="#15384f" stroke="#15384f"></path><path d="M2339.7 539.7L2500 376.1L2286.7 377.1Z" fill="#0c2435" stroke="#0c2435"></path><path d="M2347.7 174.6L2500 0L2307.7 0Z" fill="#081a28" stroke="#081a28"></path><path d="M2500 503.7L2500 376.1L2339.7 539.7Z" fill="#15384f" stroke="#15384f"></path><path d="M2500 376.1L2500 217.6L2347.7 174.6Z" fill="#112e42" stroke="#112e42"></path><path d="M2500 916.9L2500 708.3L2292.7 875.9Z" fill="#15384f" stroke="#15384f"></path><path d="M0 341.1L0 500.7L226.3 363.1Z" fill="#081a28" stroke="#081a28"></path><path d="M0 1250L201.3 1250L229.3 1095.4Z" fill="#1d4e6b" stroke="#1d4e6b"></path><path d="M0 341.1L226.3 363.1L171.3 185.6Z" fill="#277297" stroke="#277297"></path><path d="M0 195.6L0 341.1L171.3 185.6Z" fill="#19435d" stroke="#19435d"></path><path d="M0 0L0 195.6L171.3 185.6Z" fill="#15384f" stroke="#15384f"></path><path d="M0 500.7L0 743.3L197.3 694.3Z" fill="#112e42" stroke="#112e42"></path><path d="M2500 217.6L2500 0L2347.7 174.6Z" fill="#297ea6" stroke="#297ea6"></path><path d="M2500 1050.4L2500 916.9L2281.7 1070.4Z" fill="#205a7a" stroke="#205a7a"></path><path d="M2281.7 1070.4L2500 916.9L2292.7 875.9Z" fill="#00101c" stroke="#00101c"></path><path d="M0 1051.4L229.3 1095.4L172.3 907.9Z" fill="#205a7a" stroke="#205a7a"></path><path d="M229.3 1095.4L201.3 1250L350.6 1250Z" fill="#00101c" stroke="#00101c"></path><path d="M2139.4 1250L2331.7 1250L2281.7 1070.4Z" fill="#15384f" stroke="#15384f"></path><path d="M0 743.3L0 881.9L172.3 907.9Z" fill="#15384f" stroke="#15384f"></path><path d="M210.3 0L0 0L171.3 185.6Z" fill="#112e42" stroke="#112e42"></path><path d="M2331.7 1250L2500 1050.4L2281.7 1070.4Z" fill="#19435d" stroke="#19435d"></path><path d="M0 881.9L0 1051.4L172.3 907.9Z" fill="#00101c" stroke="#00101c"></path><path d="M2331.7 1250L2500 1250L2500 1050.4Z" fill="#00101c" stroke="#00101c"></path><path d="M0 1051.4L0 1250L229.3 1095.4Z" fill="#19435d" stroke="#19435d"></path></g></svg>