<svg id="visual" viewBox="0 0 2500 1250" width="2500" height="1250" xmlns="http://www.w3.org/2000/svg" xmlns:xlink="http://www.w3.org/1999/xlink" version="1.1"><g stroke-width="1" stroke-linejoin="bevel"><path d="M1190.8 576.7L1125.8 693.3L1373.2 703.3Z" fill="#19435d" stroke="#19435d"></path><path d="M1373.2 703.3L1374.2 524.7L1190.8 576.7Z" fill="#205a7a" stroke="#205a7a"></path><path d="M1180.8 882.9L1318.2 882.9L1373.2 703.3Z" fill="#112e42" stroke="#112e42"></path><path d="M1125.8 693.3L1180.8 882.9L1373.2 703.3Z" fill="#00101c" stroke="#00101c"></path><path d="M941.5 562.7L986.5 748.3L1125.8 693.3Z" fill="#0c2435" stroke="#0c2435"></path><path d="M1125.8 693.3L986.5 748.3L1180.8 882.9Z" fill="#205a7a" stroke="#205a7a"></path><path d="M1565.5 914.9L1568.5 698.3L1373.2 703.3Z" fill="#0c2435" stroke="#0c2435"></path><path d="M1373.2 703.3L1572.5 552.7L1374.2 524.7Z" fill="#277297" stroke="#277297"></path><path d="M1177.8 341.1L941.5 562.7L1190.8 576.7Z" fill="#297ea6" stroke="#297ea6"></path><path d="M1190.8 576.7L941.5 562.7L1125.8 693.3Z" fill="#246688" stroke="#246688"></path><path d="M761.2 743.3L965.5 865.9L986.5 748.3Z" fill="#246688" stroke="#246688"></path><path d="M986.5 748.3L965.5 865.9L1180.8 882.9Z" fill="#205a7a" stroke="#205a7a"></path><path d="M1552.5 375.1L1371.2 367.1L1374.2 524.7Z" fill="#297ea6" stroke="#297ea6"></path><path d="M1374.2 524.7L1177.8 341.1L1190.8 576.7Z" fill="#277297" stroke="#277297"></path><path d="M1568.5 698.3L1572.5 552.7L1373.2 703.3Z" fill="#297ea6" stroke="#297ea6"></path><path d="M1371.2 367.1L1177.8 341.1L1374.2 524.7Z" fill="#1d4e6b" stroke="#1d4e6b"></path><path d="M1180.8 882.9L1366.2 1039.4L1318.2 882.9Z" fill="#277297" stroke="#277297"></path><path d="M1318.2 882.9L1565.5 914.9L1373.2 703.3Z" fill="#081a28" stroke="#081a28"></path><path d="M1163.8 1086.4L1366.2 1039.4L1180.8 882.9Z" fill="#112e42" stroke="#112e42"></path><path d="M1366.2 1039.4L1565.5 914.9L1318.2 882.9Z" fill="#297ea6" stroke="#297ea6"></path><path d="M1568.5 698.3L1703.8 673.3L1572.5 552.7Z" fill="#297ea6" stroke="#297ea6"></path><path d="M954.5 1071.4L1163.8 1086.4L1180.8 882.9Z" fill="#246688" stroke="#246688"></path><path d="M1572.5 552.7L1552.5 375.1L1374.2 524.7Z" fill="#112e42" stroke="#112e42"></path><path d="M1350.2 208.6L1180.8 206.6L1177.8 341.1Z" fill="#277297" stroke="#277297"></path><path d="M1177.8 341.1L973.5 326.1L941.5 562.7Z" fill="#1d4e6b" stroke="#1d4e6b"></path><path d="M1719.8 879.9L1703.8 673.3L1568.5 698.3Z" fill="#081a28" stroke="#081a28"></path><path d="M1572.5 552.7L1718.8 548.7L1552.5 375.1Z" fill="#19435d" stroke="#19435d"></path><path d="M1350.2 208.6L1177.8 341.1L1371.2 367.1Z" fill="#15384f" stroke="#15384f"></path><path d="M1177.8 341.1L1180.8 206.6L973.5 326.1Z" fill="#205a7a" stroke="#205a7a"></path><path d="M807.2 908.9L954.5 1071.4L965.5 865.9Z" fill="#19435d" stroke="#19435d"></path><path d="M965.5 865.9L954.5 1071.4L1180.8 882.9Z" fill="#0c2435" stroke="#0c2435"></path><path d="M1530.5 1250L1546.5 1071.4L1366.2 1039.4Z" fill="#081a28" stroke="#081a28"></path><path d="M1366.2 1039.4L1546.5 1071.4L1565.5 914.9Z" fill="#19435d" stroke="#19435d"></path><path d="M1565.5 914.9L1719.8 879.9L1568.5 698.3Z" fill="#19435d" stroke="#19435d"></path><path d="M1547.5 174.6L1350.2 208.6L1371.2 367.1Z" fill="#00101c" stroke="#00101c"></path><path d="M1703.8 673.3L1718.8 548.7L1572.5 552.7Z" fill="#277297" stroke="#277297"></path><path d="M768.2 515.7L761.2 743.3L941.5 562.7Z" fill="#112e42" stroke="#112e42"></path><path d="M941.5 562.7L761.2 743.3L986.5 748.3Z" fill="#1d4e6b" stroke="#1d4e6b"></path><path d="M761.2 743.3L807.2 908.9L965.5 865.9Z" fill="#0c2435" stroke="#0c2435"></path><path d="M1724.8 1054.4L1719.8 879.9L1565.5 914.9Z" fill="#277297" stroke="#277297"></path><path d="M1703.8 673.3L1950.1 573.7L1718.8 548.7Z" fill="#277297" stroke="#277297"></path><path d="M973.5 326.1L768.2 515.7L941.5 562.7Z" fill="#1d4e6b" stroke="#1d4e6b"></path><path d="M1163.8 1086.4L1312.2 1250L1366.2 1039.4Z" fill="#0c2435" stroke="#0c2435"></path><path d="M1174.8 1250L1312.2 1250L1163.8 1086.4Z" fill="#15384f" stroke="#15384f"></path><path d="M978.5 1250L1174.8 1250L1163.8 1086.4Z" fill="#246688" stroke="#246688"></path><path d="M1180.8 206.6L934.5 205.6L973.5 326.1Z" fill="#00101c" stroke="#00101c"></path><path d="M973.5 326.1L759.2 344.1L768.2 515.7Z" fill="#297ea6" stroke="#297ea6"></path><path d="M1552.5 375.1L1547.5 174.6L1371.2 367.1Z" fill="#19435d" stroke="#19435d"></path><path d="M1350.2 208.6L1339.2 0L1180.8 206.6Z" fill="#0c2435" stroke="#0c2435"></path><path d="M920.5 0L801.2 187.6L934.5 205.6Z" fill="#00101c" stroke="#00101c"></path><path d="M1704.8 197.6L1547.5 174.6L1552.5 375.1Z" fill="#15384f" stroke="#15384f"></path><path d="M934.5 205.6L759.2 344.1L973.5 326.1Z" fill="#1d4e6b" stroke="#1d4e6b"></path><path d="M606.9 551.7L605.9 733.3L761.2 743.3Z" fill="#297ea6" stroke="#297ea6"></path><path d="M1546.5 1071.4L1724.8 1054.4L1565.5 914.9Z" fill="#1d4e6b" stroke="#1d4e6b"></path><path d="M1902.1 387.1L1755.8 359.1L1718.8 548.7Z" fill="#246688" stroke="#246688"></path><path d="M1704.8 1250L1724.8 1054.4L1546.5 1071.4Z" fill="#246688" stroke="#246688"></path><path d="M1886.1 909.9L1703.8 673.3L1719.8 879.9Z" fill="#277297" stroke="#277297"></path><path d="M1718.8 548.7L1755.8 359.1L1552.5 375.1Z" fill="#081a28" stroke="#081a28"></path><path d="M807.2 908.9L745.2 1048.4L954.5 1071.4Z" fill="#00101c" stroke="#00101c"></path><path d="M954.5 1071.4L978.5 1250L1163.8 1086.4Z" fill="#1d4e6b" stroke="#1d4e6b"></path><path d="M587.9 868.9L745.2 1048.4L807.2 908.9Z" fill="#15384f" stroke="#15384f"></path><path d="M587.9 868.9L807.2 908.9L761.2 743.3Z" fill="#297ea6" stroke="#297ea6"></path><path d="M766.2 1250L978.5 1250L954.5 1071.4Z" fill="#0c2435" stroke="#0c2435"></path><path d="M1312.2 1250L1530.5 1250L1366.2 1039.4Z" fill="#205a7a" stroke="#205a7a"></path><path d="M606.9 551.7L761.2 743.3L768.2 515.7Z" fill="#112e42" stroke="#112e42"></path><path d="M583.9 377.1L606.9 551.7L768.2 515.7Z" fill="#0c2435" stroke="#0c2435"></path><path d="M1755.8 359.1L1704.8 197.6L1552.5 375.1Z" fill="#246688" stroke="#246688"></path><path d="M934.5 205.6L801.2 187.6L759.2 344.1Z" fill="#15384f" stroke="#15384f"></path><path d="M759.2 344.1L583.9 377.1L768.2 515.7Z" fill="#297ea6" stroke="#297ea6"></path><path d="M1131.8 0L934.5 205.6L1180.8 206.6Z" fill="#246688" stroke="#246688"></path><path d="M1884.1 1104.4L1886.1 909.9L1724.8 1054.4Z" fill="#0c2435" stroke="#0c2435"></path><path d="M1724.8 1054.4L1886.1 909.9L1719.8 879.9Z" fill="#0c2435" stroke="#0c2435"></path><path d="M401.6 898.9L587.9 868.9L605.9 733.3Z" fill="#297ea6" stroke="#297ea6"></path><path d="M605.9 733.3L587.9 868.9L761.2 743.3Z" fill="#297ea6" stroke="#297ea6"></path><path d="M1501.5 0L1350.2 208.6L1547.5 174.6Z" fill="#1d4e6b" stroke="#1d4e6b"></path><path d="M1501.5 0L1339.2 0L1350.2 208.6Z" fill="#081a28" stroke="#081a28"></path><path d="M1339.2 0L1131.8 0L1180.8 206.6Z" fill="#00101c" stroke="#00101c"></path><path d="M1961.1 673.3L1950.1 573.7L1703.8 673.3Z" fill="#0c2435" stroke="#0c2435"></path><path d="M1755.8 359.1L1916.1 188.6L1704.8 197.6Z" fill="#297ea6" stroke="#297ea6"></path><path d="M1886.1 909.9L1961.1 673.3L1703.8 673.3Z" fill="#297ea6" stroke="#297ea6"></path><path d="M1950.1 573.7L1902.1 387.1L1718.8 548.7Z" fill="#277297" stroke="#277297"></path><path d="M1530.5 1250L1704.8 1250L1546.5 1071.4Z" fill="#081a28" stroke="#081a28"></path><path d="M1723.8 0L1501.5 0L1547.5 174.6Z" fill="#205a7a" stroke="#205a7a"></path><path d="M1723.8 0L1547.5 174.6L1704.8 197.6Z" fill="#00101c" stroke="#00101c"></path><path d="M575.9 203.6L583.9 377.1L759.2 344.1Z" fill="#205a7a" stroke="#205a7a"></path><path d="M606.9 551.7L414.6 523.7L605.9 733.3Z" fill="#19435d" stroke="#19435d"></path><path d="M562.9 1250L766.2 1250L745.2 1048.4Z" fill="#081a28" stroke="#081a28"></path><path d="M745.2 1048.4L766.2 1250L954.5 1071.4Z" fill="#277297" stroke="#277297"></path><path d="M1704.8 1250L1884.1 1104.4L1724.8 1054.4Z" fill="#205a7a" stroke="#205a7a"></path><path d="M2149.4 741.3L2074.4 510.7L1961.1 673.3Z" fill="#15384f" stroke="#15384f"></path><path d="M1131.8 0L920.5 0L934.5 205.6Z" fill="#081a28" stroke="#081a28"></path><path d="M801.2 187.6L575.9 203.6L759.2 344.1Z" fill="#0c2435" stroke="#0c2435"></path><path d="M401.6 898.9L542.9 1072.4L587.9 868.9Z" fill="#19435d" stroke="#19435d"></path><path d="M587.9 868.9L542.9 1072.4L745.2 1048.4Z" fill="#246688" stroke="#246688"></path><path d="M782.2 0L575.9 203.6L801.2 187.6Z" fill="#297ea6" stroke="#297ea6"></path><path d="M583.9 377.1L414.6 523.7L606.9 551.7Z" fill="#15384f" stroke="#15384f"></path><path d="M920.5 0L782.2 0L801.2 187.6Z" fill="#112e42" stroke="#112e42"></path><path d="M2153.4 346.1L1916.1 188.6L1902.1 387.1Z" fill="#15384f" stroke="#15384f"></path><path d="M1902.1 387.1L1916.1 188.6L1755.8 359.1Z" fill="#112e42" stroke="#112e42"></path><path d="M2074.4 510.7L1902.1 387.1L1950.1 573.7Z" fill="#15384f" stroke="#15384f"></path><path d="M1916.1 188.6L1723.8 0L1704.8 197.6Z" fill="#246688" stroke="#246688"></path><path d="M2149.4 741.3L1961.1 673.3L1886.1 909.9Z" fill="#205a7a" stroke="#205a7a"></path><path d="M1961.1 673.3L2074.4 510.7L1950.1 573.7Z" fill="#246688" stroke="#246688"></path><path d="M396.6 387.1L414.6 523.7L583.9 377.1Z" fill="#15384f" stroke="#15384f"></path><path d="M1704.8 1250L1888.1 1250L1884.1 1104.4Z" fill="#081a28" stroke="#081a28"></path><path d="M2152.4 913.9L2149.4 741.3L1886.1 909.9Z" fill="#277297" stroke="#277297"></path><path d="M346.6 713.3L401.6 898.9L605.9 733.3Z" fill="#081a28" stroke="#081a28"></path><path d="M542.9 1072.4L562.9 1250L745.2 1048.4Z" fill="#15384f" stroke="#15384f"></path><path d="M390.6 1250L562.9 1250L542.9 1072.4Z" fill="#277297" stroke="#277297"></path><path d="M2152.4 913.9L1886.1 909.9L2155.4 1092.4Z" fill="#112e42" stroke="#112e42"></path><path d="M414.6 523.7L346.6 713.3L605.9 733.3Z" fill="#297ea6" stroke="#297ea6"></path><path d="M575.9 203.6L396.6 387.1L583.9 377.1Z" fill="#00101c" stroke="#00101c"></path><path d="M216.3 499.7L225.3 704.3L346.6 713.3Z" fill="#1d4e6b" stroke="#1d4e6b"></path><path d="M2155.4 1092.4L1886.1 909.9L1884.1 1104.4Z" fill="#00101c" stroke="#00101c"></path><path d="M2106.4 0L1913.1 0L1916.1 188.6Z" fill="#1d4e6b" stroke="#1d4e6b"></path><path d="M1916.1 188.6L1913.1 0L1723.8 0Z" fill="#081a28" stroke="#081a28"></path><path d="M2153.4 346.1L1902.1 387.1L2074.4 510.7Z" fill="#00101c" stroke="#00101c"></path><path d="M782.2 0L571.9 0L575.9 203.6Z" fill="#112e42" stroke="#112e42"></path><path d="M575.9 203.6L362.6 181.6L396.6 387.1Z" fill="#297ea6" stroke="#297ea6"></path><path d="M2296.7 513.7L2153.4 346.1L2074.4 510.7Z" fill="#297ea6" stroke="#297ea6"></path><path d="M2296.7 513.7L2074.4 510.7L2149.4 741.3Z" fill="#081a28" stroke="#081a28"></path><path d="M223.3 909.9L362.6 1090.4L401.6 898.9Z" fill="#19435d" stroke="#19435d"></path><path d="M401.6 898.9L362.6 1090.4L542.9 1072.4Z" fill="#277297" stroke="#277297"></path><path d="M2120.4 1250L2155.4 1092.4L1884.1 1104.4Z" fill="#19435d" stroke="#19435d"></path><path d="M2336.7 746.3L2296.7 513.7L2149.4 741.3Z" fill="#00101c" stroke="#00101c"></path><path d="M419.6 0L362.6 181.6L575.9 203.6Z" fill="#0c2435" stroke="#0c2435"></path><path d="M216.3 499.7L346.6 713.3L414.6 523.7Z" fill="#277297" stroke="#277297"></path><path d="M216.3 499.7L414.6 523.7L396.6 387.1Z" fill="#0c2435" stroke="#0c2435"></path><path d="M346.6 713.3L223.3 909.9L401.6 898.9Z" fill="#246688" stroke="#246688"></path><path d="M362.6 1090.4L390.6 1250L542.9 1072.4Z" fill="#246688" stroke="#246688"></path><path d="M150.3 1250L390.6 1250L362.6 1090.4Z" fill="#205a7a" stroke="#205a7a"></path><path d="M2153.4 346.1L2135.4 153.6L1916.1 188.6Z" fill="#00101c" stroke="#00101c"></path><path d="M1888.1 1250L2120.4 1250L1884.1 1104.4Z" fill="#00101c" stroke="#00101c"></path><path d="M213.3 339.1L216.3 499.7L396.6 387.1Z" fill="#19435d" stroke="#19435d"></path><path d="M157.3 1097.4L223.3 909.9L0 1037.4Z" fill="#19435d" stroke="#19435d"></path><path d="M225.3 704.3L223.3 909.9L346.6 713.3Z" fill="#297ea6" stroke="#297ea6"></path><path d="M2305.7 915.9L2152.4 913.9L2270.7 1066.4Z" fill="#112e42" stroke="#112e42"></path><path d="M2305.7 915.9L2149.4 741.3L2152.4 913.9Z" fill="#246688" stroke="#246688"></path><path d="M2153.4 346.1L2314.7 187.6L2135.4 153.6Z" fill="#246688" stroke="#246688"></path><path d="M571.9 0L419.6 0L575.9 203.6Z" fill="#112e42" stroke="#112e42"></path><path d="M362.6 181.6L213.3 339.1L396.6 387.1Z" fill="#297ea6" stroke="#297ea6"></path><path d="M2270.7 1066.4L2152.4 913.9L2155.4 1092.4Z" fill="#15384f" stroke="#15384f"></path><path d="M2305.7 915.9L2336.7 746.3L2149.4 741.3Z" fill="#15384f" stroke="#15384f"></path><path d="M2344.7 1250L2270.7 1066.4L2155.4 1092.4Z" fill="#297ea6" stroke="#297ea6"></path><path d="M217.3 156.6L213.3 339.1L362.6 181.6Z" fill="#246688" stroke="#246688"></path><path d="M0 863.9L223.3 909.9L225.3 704.3Z" fill="#246688" stroke="#246688"></path><path d="M2342.7 0L2106.4 0L2135.4 153.6Z" fill="#297ea6" stroke="#297ea6"></path><path d="M2135.4 153.6L2106.4 0L1916.1 188.6Z" fill="#205a7a" stroke="#205a7a"></path><path d="M2296.7 513.7L2306.7 369.1L2153.4 346.1Z" fill="#19435d" stroke="#19435d"></path><path d="M2500 366.1L2306.7 369.1L2296.7 513.7Z" fill="#297ea6" stroke="#297ea6"></path><path d="M196.3 0L217.3 156.6L362.6 181.6Z" fill="#246688" stroke="#246688"></path><path d="M0 706.3L225.3 704.3L0 517.7Z" fill="#0c2435" stroke="#0c2435"></path><path d="M223.3 909.9L157.3 1097.4L362.6 1090.4Z" fill="#277297" stroke="#277297"></path><path d="M225.3 704.3L216.3 499.7L0 517.7Z" fill="#112e42" stroke="#112e42"></path><path d="M2500 366.1L2314.7 187.6L2306.7 369.1Z" fill="#246688" stroke="#246688"></path><path d="M2306.7 369.1L2314.7 187.6L2153.4 346.1Z" fill="#0c2435" stroke="#0c2435"></path><path d="M2120.4 1250L2344.7 1250L2155.4 1092.4Z" fill="#297ea6" stroke="#297ea6"></path><path d="M2500 1081.4L2500 891.9L2305.7 915.9Z" fill="#246688" stroke="#246688"></path><path d="M2500 891.9L2500 753.3L2336.7 746.3Z" fill="#00101c" stroke="#00101c"></path><path d="M157.3 1097.4L150.3 1250L362.6 1090.4Z" fill="#297ea6" stroke="#297ea6"></path><path d="M0 517.7L216.3 499.7L0 379.1Z" fill="#00101c" stroke="#00101c"></path><path d="M157.3 1097.4L0 1250L150.3 1250Z" fill="#297ea6" stroke="#297ea6"></path><path d="M2500 891.9L2336.7 746.3L2305.7 915.9Z" fill="#277297" stroke="#277297"></path><path d="M2336.7 746.3L2500 553.7L2296.7 513.7Z" fill="#15384f" stroke="#15384f"></path><path d="M2500 753.3L2500 553.7L2336.7 746.3Z" fill="#1d4e6b" stroke="#1d4e6b"></path><path d="M419.6 0L196.3 0L362.6 181.6Z" fill="#0c2435" stroke="#0c2435"></path><path d="M0 379.1L216.3 499.7L213.3 339.1Z" fill="#277297" stroke="#277297"></path><path d="M0 379.1L213.3 339.1L0 146.6Z" fill="#15384f" stroke="#15384f"></path><path d="M0 706.3L0 863.9L225.3 704.3Z" fill="#277297" stroke="#277297"></path><path d="M2500 1081.4L2305.7 915.9L2270.7 1066.4Z" fill="#15384f" stroke="#15384f"></path><path d="M0 146.6L213.3 339.1L217.3 156.6Z" fill="#246688" stroke="#246688"></path><path d="M2500 140.6L2342.7 0L2314.7 187.6Z" fill="#0c2435" stroke="#0c2435"></path><path d="M2314.7 187.6L2342.7 0L2135.4 153.6Z" fill="#19435d" stroke="#19435d"></path><path d="M2500 553.7L2500 366.1L2296.7 513.7Z" fill="#0c2435" stroke="#0c2435"></path><path d="M0 863.9L0 1037.4L223.3 909.9Z" fill="#1d4e6b" stroke="#1d4e6b"></path><path d="M2344.7 1250L2500 1081.4L2270.7 1066.4Z" fill="#1d4e6b" stroke="#1d4e6b"></path><path d="M196.3 0L0 146.6L217.3 156.6Z" fill="#00101c" stroke="#00101c"></path><path d="M2500 366.1L2500 140.6L2314.7 187.6Z" fill="#297ea6" stroke="#297ea6"></path><path d="M0 1037.4L0 1250L157.3 1097.4Z" fill="#1d4e6b" stroke="#1d4e6b"></path><path d="M2344.7 1250L2500 1250L2500 1081.4Z" fill="#081a28" stroke="#081a28"></path><path d="M196.3 0L0 0L0 146.6Z" fill="#112e42" stroke="#112e42"></path><path d="M2500 140.6L2500 0L2342.7 0Z" fill="#1d4e6b" stroke="#1d4e6b"></path></g></svg>