<svg id="visual" viewBox="0 0 2500 1250" width="2500" height="1250" xmlns="http://www.w3.org/2000/svg" xmlns:xlink="http://www.w3.org/1999/xlink" version="1.1"><g stroke-width="1" stroke-linejoin="bevel"><path d="M1327.2 677.3L1304.2 517.7L1126.8 505.7Z" fill="#246688" stroke="#246688"></path><path d="M1126.8 505.7L1111.8 729.3L1327.2 677.3Z" fill="#00101c" stroke="#00101c"></path><path d="M1304.2 517.7L1124.8 390.1L1126.8 505.7Z" fill="#205a7a" stroke="#205a7a"></path><path d="M1126.8 505.7L970.5 722.3L1111.8 729.3Z" fill="#19435d" stroke="#19435d"></path><path d="M941.5 506.7L970.5 722.3L1126.8 505.7Z" fill="#00101c" stroke="#00101c"></path><path d="M1510.5 357.1L1340.2 369.1L1304.2 517.7Z" fill="#15384f" stroke="#15384f"></path><path d="M1304.2 517.7L1340.2 369.1L1124.8 390.1Z" fill="#297ea6" stroke="#297ea6"></path><path d="M1180.8 922.9L1308.2 874.9L1111.8 729.3Z" fill="#00101c" stroke="#00101c"></path><path d="M1111.8 729.3L1308.2 874.9L1327.2 677.3Z" fill="#00101c" stroke="#00101c"></path><path d="M1002.5 380.1L941.5 506.7L1126.8 505.7Z" fill="#112e42" stroke="#112e42"></path><path d="M1185.8 165.6L1002.5 380.1L1124.8 390.1Z" fill="#15384f" stroke="#15384f"></path><path d="M1124.8 390.1L1002.5 380.1L1126.8 505.7Z" fill="#0c2435" stroke="#0c2435"></path><path d="M975.5 853.9L1180.8 922.9L1111.8 729.3Z" fill="#15384f" stroke="#15384f"></path><path d="M755.2 753.3L975.5 853.9L970.5 722.3Z" fill="#00101c" stroke="#00101c"></path><path d="M970.5 722.3L975.5 853.9L1111.8 729.3Z" fill="#277297" stroke="#277297"></path><path d="M1565.5 742.3L1579.5 556.7L1327.2 677.3Z" fill="#297ea6" stroke="#297ea6"></path><path d="M1327.2 677.3L1579.5 556.7L1304.2 517.7Z" fill="#297ea6" stroke="#297ea6"></path><path d="M1308.2 874.9L1565.5 742.3L1327.2 677.3Z" fill="#112e42" stroke="#112e42"></path><path d="M1579.5 556.7L1510.5 357.1L1304.2 517.7Z" fill="#19435d" stroke="#19435d"></path><path d="M1340.2 369.1L1185.8 165.6L1124.8 390.1Z" fill="#081a28" stroke="#081a28"></path><path d="M1308.2 874.9L1541.5 878.9L1565.5 742.3Z" fill="#081a28" stroke="#081a28"></path><path d="M1379.2 1070.4L1541.5 878.9L1308.2 874.9Z" fill="#19435d" stroke="#19435d"></path><path d="M751.2 344.1L795.2 507.7L941.5 506.7Z" fill="#15384f" stroke="#15384f"></path><path d="M941.5 506.7L795.2 507.7L970.5 722.3Z" fill="#246688" stroke="#246688"></path><path d="M1356.2 166.6L1185.8 165.6L1340.2 369.1Z" fill="#15384f" stroke="#15384f"></path><path d="M1002.5 380.1L751.2 344.1L941.5 506.7Z" fill="#297ea6" stroke="#297ea6"></path><path d="M993.5 1049.4L1170.8 1065.4L1180.8 922.9Z" fill="#1d4e6b" stroke="#1d4e6b"></path><path d="M1180.8 922.9L1379.2 1070.4L1308.2 874.9Z" fill="#00101c" stroke="#00101c"></path><path d="M1510.5 357.1L1356.2 166.6L1340.2 369.1Z" fill="#00101c" stroke="#00101c"></path><path d="M795.2 507.7L755.2 753.3L970.5 722.3Z" fill="#297ea6" stroke="#297ea6"></path><path d="M975.5 853.9L993.5 1049.4L1180.8 922.9Z" fill="#0c2435" stroke="#0c2435"></path><path d="M786.2 1079.4L993.5 1049.4L975.5 853.9Z" fill="#112e42" stroke="#112e42"></path><path d="M1170.8 1065.4L1379.2 1070.4L1180.8 922.9Z" fill="#277297" stroke="#277297"></path><path d="M1510.5 357.1L1535.5 217.6L1356.2 166.6Z" fill="#19435d" stroke="#19435d"></path><path d="M1734.8 394.1L1535.5 217.6L1510.5 357.1Z" fill="#0c2435" stroke="#0c2435"></path><path d="M982.5 0L960.5 163.6L1185.8 165.6Z" fill="#0c2435" stroke="#0c2435"></path><path d="M1185.8 165.6L960.5 163.6L1002.5 380.1Z" fill="#0c2435" stroke="#0c2435"></path><path d="M960.5 163.6L751.2 344.1L1002.5 380.1Z" fill="#19435d" stroke="#19435d"></path><path d="M795.2 507.7L616.9 515.7L755.2 753.3Z" fill="#1d4e6b" stroke="#1d4e6b"></path><path d="M1565.5 742.3L1765.8 673.3L1579.5 556.7Z" fill="#081a28" stroke="#081a28"></path><path d="M1579.5 556.7L1734.8 394.1L1510.5 357.1Z" fill="#19435d" stroke="#19435d"></path><path d="M1722.8 910.9L1765.8 673.3L1565.5 742.3Z" fill="#19435d" stroke="#19435d"></path><path d="M1722.8 910.9L1565.5 742.3L1541.5 878.9Z" fill="#277297" stroke="#277297"></path><path d="M755.2 753.3L734.2 916.9L975.5 853.9Z" fill="#15384f" stroke="#15384f"></path><path d="M601.9 875.9L734.2 916.9L755.2 753.3Z" fill="#19435d" stroke="#19435d"></path><path d="M1771.8 506.7L1734.8 394.1L1579.5 556.7Z" fill="#1d4e6b" stroke="#1d4e6b"></path><path d="M1765.8 673.3L1771.8 506.7L1579.5 556.7Z" fill="#246688" stroke="#246688"></path><path d="M1361.2 1250L1520.5 1098.4L1379.2 1070.4Z" fill="#1d4e6b" stroke="#1d4e6b"></path><path d="M1379.2 1070.4L1520.5 1098.4L1541.5 878.9Z" fill="#297ea6" stroke="#297ea6"></path><path d="M1361.2 1250L1379.2 1070.4L1170.8 1065.4Z" fill="#112e42" stroke="#112e42"></path><path d="M1712.8 1074.4L1722.8 910.9L1541.5 878.9Z" fill="#1d4e6b" stroke="#1d4e6b"></path><path d="M609.9 384.1L616.9 515.7L795.2 507.7Z" fill="#205a7a" stroke="#205a7a"></path><path d="M1317.2 0L1185.8 165.6L1356.2 166.6Z" fill="#277297" stroke="#277297"></path><path d="M1317.2 0L1171.8 0L1185.8 165.6Z" fill="#246688" stroke="#246688"></path><path d="M1546.5 0L1356.2 166.6L1535.5 217.6Z" fill="#205a7a" stroke="#205a7a"></path><path d="M1546.5 0L1317.2 0L1356.2 166.6Z" fill="#297ea6" stroke="#297ea6"></path><path d="M616.9 515.7L590.9 716.3L755.2 753.3Z" fill="#277297" stroke="#277297"></path><path d="M734.2 916.9L786.2 1079.4L975.5 853.9Z" fill="#19435d" stroke="#19435d"></path><path d="M993.5 1049.4L1117.8 1250L1170.8 1065.4Z" fill="#0c2435" stroke="#0c2435"></path><path d="M602.9 1077.4L786.2 1079.4L734.2 916.9Z" fill="#277297" stroke="#277297"></path><path d="M960.5 163.6L743.2 178.6L751.2 344.1Z" fill="#19435d" stroke="#19435d"></path><path d="M751.2 344.1L609.9 384.1L795.2 507.7Z" fill="#297ea6" stroke="#297ea6"></path><path d="M781.2 0L743.2 178.6L960.5 163.6Z" fill="#19435d" stroke="#19435d"></path><path d="M605.9 215.6L609.9 384.1L751.2 344.1Z" fill="#19435d" stroke="#19435d"></path><path d="M343.6 747.3L400.6 873.9L590.9 716.3Z" fill="#19435d" stroke="#19435d"></path><path d="M921.5 1250L1117.8 1250L993.5 1049.4Z" fill="#297ea6" stroke="#297ea6"></path><path d="M1171.8 0L982.5 0L1185.8 165.6Z" fill="#297ea6" stroke="#297ea6"></path><path d="M1117.8 1250L1361.2 1250L1170.8 1065.4Z" fill="#297ea6" stroke="#297ea6"></path><path d="M1520.5 1098.4L1712.8 1074.4L1541.5 878.9Z" fill="#00101c" stroke="#00101c"></path><path d="M590.9 716.3L601.9 875.9L755.2 753.3Z" fill="#277297" stroke="#277297"></path><path d="M1881.1 330.1L1744.8 208.6L1734.8 394.1Z" fill="#15384f" stroke="#15384f"></path><path d="M1734.8 394.1L1744.8 208.6L1535.5 217.6Z" fill="#205a7a" stroke="#205a7a"></path><path d="M1718.8 1250L1712.8 1074.4L1520.5 1098.4Z" fill="#205a7a" stroke="#205a7a"></path><path d="M1905.1 732.3L1894.1 510.7L1765.8 673.3Z" fill="#00101c" stroke="#00101c"></path><path d="M1765.8 673.3L1894.1 510.7L1771.8 506.7Z" fill="#15384f" stroke="#15384f"></path><path d="M1771.8 506.7L1881.1 330.1L1734.8 394.1Z" fill="#15384f" stroke="#15384f"></path><path d="M1905.1 732.3L1765.8 673.3L1722.8 910.9Z" fill="#246688" stroke="#246688"></path><path d="M743.2 1250L921.5 1250L786.2 1079.4Z" fill="#00101c" stroke="#00101c"></path><path d="M786.2 1079.4L921.5 1250L993.5 1049.4Z" fill="#19435d" stroke="#19435d"></path><path d="M1720.8 0L1546.5 0L1535.5 217.6Z" fill="#1d4e6b" stroke="#1d4e6b"></path><path d="M1361.2 1250L1510.5 1250L1520.5 1098.4Z" fill="#246688" stroke="#246688"></path><path d="M1948.1 922.9L1905.1 732.3L1722.8 910.9Z" fill="#112e42" stroke="#112e42"></path><path d="M544.9 0L605.9 215.6L743.2 178.6Z" fill="#277297" stroke="#277297"></path><path d="M743.2 178.6L605.9 215.6L751.2 344.1Z" fill="#112e42" stroke="#112e42"></path><path d="M359.6 522.7L590.9 716.3L616.9 515.7Z" fill="#112e42" stroke="#112e42"></path><path d="M1894.1 510.7L1881.1 330.1L1771.8 506.7Z" fill="#081a28" stroke="#081a28"></path><path d="M1744.8 208.6L1720.8 0L1535.5 217.6Z" fill="#297ea6" stroke="#297ea6"></path><path d="M982.5 0L781.2 0L960.5 163.6Z" fill="#205a7a" stroke="#205a7a"></path><path d="M601.9 875.9L602.9 1077.4L734.2 916.9Z" fill="#0c2435" stroke="#0c2435"></path><path d="M400.6 873.9L602.9 1077.4L601.9 875.9Z" fill="#081a28" stroke="#081a28"></path><path d="M602.9 1077.4L743.2 1250L786.2 1079.4Z" fill="#277297" stroke="#277297"></path><path d="M1881.1 149.6L1720.8 0L1744.8 208.6Z" fill="#00101c" stroke="#00101c"></path><path d="M1962.1 1108.4L1948.1 922.9L1712.8 1074.4Z" fill="#19435d" stroke="#19435d"></path><path d="M1712.8 1074.4L1948.1 922.9L1722.8 910.9Z" fill="#246688" stroke="#246688"></path><path d="M2155.4 495.7L2097.4 394.1L1894.1 510.7Z" fill="#297ea6" stroke="#297ea6"></path><path d="M2108.4 187.6L1881.1 149.6L1881.1 330.1Z" fill="#112e42" stroke="#112e42"></path><path d="M1510.5 1250L1718.8 1250L1520.5 1098.4Z" fill="#112e42" stroke="#112e42"></path><path d="M2097.4 394.1L1881.1 330.1L1894.1 510.7Z" fill="#297ea6" stroke="#297ea6"></path><path d="M1881.1 330.1L1881.1 149.6L1744.8 208.6Z" fill="#297ea6" stroke="#297ea6"></path><path d="M359.6 522.7L616.9 515.7L609.9 384.1Z" fill="#297ea6" stroke="#297ea6"></path><path d="M590.9 716.3L400.6 873.9L601.9 875.9Z" fill="#1d4e6b" stroke="#1d4e6b"></path><path d="M602.9 1077.4L582.9 1250L743.2 1250Z" fill="#297ea6" stroke="#297ea6"></path><path d="M345.6 341.1L359.6 522.7L609.9 384.1Z" fill="#0c2435" stroke="#0c2435"></path><path d="M359.6 522.7L343.6 747.3L590.9 716.3Z" fill="#1d4e6b" stroke="#1d4e6b"></path><path d="M383.6 1068.4L582.9 1250L602.9 1077.4Z" fill="#00101c" stroke="#00101c"></path><path d="M1901.1 1250L1962.1 1108.4L1712.8 1074.4Z" fill="#0c2435" stroke="#0c2435"></path><path d="M781.2 0L544.9 0L743.2 178.6Z" fill="#205a7a" stroke="#205a7a"></path><path d="M605.9 215.6L345.6 341.1L609.9 384.1Z" fill="#15384f" stroke="#15384f"></path><path d="M360.6 145.6L345.6 341.1L605.9 215.6Z" fill="#15384f" stroke="#15384f"></path><path d="M359.6 522.7L156.3 740.3L343.6 747.3Z" fill="#00101c" stroke="#00101c"></path><path d="M2155.4 495.7L1894.1 510.7L1905.1 732.3Z" fill="#246688" stroke="#246688"></path><path d="M2142.4 755.3L1905.1 732.3L1948.1 922.9Z" fill="#277297" stroke="#277297"></path><path d="M2108.4 187.6L1902.1 0L1881.1 149.6Z" fill="#0c2435" stroke="#0c2435"></path><path d="M1881.1 149.6L1902.1 0L1720.8 0Z" fill="#0c2435" stroke="#0c2435"></path><path d="M1718.8 1250L1901.1 1250L1712.8 1074.4Z" fill="#112e42" stroke="#112e42"></path><path d="M2106.4 1074.4L1948.1 922.9L1962.1 1108.4Z" fill="#0c2435" stroke="#0c2435"></path><path d="M2106.4 1074.4L2095.4 931.9L1948.1 922.9Z" fill="#277297" stroke="#277297"></path><path d="M169.3 1065.4L383.6 1068.4L400.6 873.9Z" fill="#00101c" stroke="#00101c"></path><path d="M400.6 873.9L383.6 1068.4L602.9 1077.4Z" fill="#112e42" stroke="#112e42"></path><path d="M2095.4 931.9L2142.4 755.3L1948.1 922.9Z" fill="#19435d" stroke="#19435d"></path><path d="M2142.4 755.3L2155.4 495.7L1905.1 732.3Z" fill="#1d4e6b" stroke="#1d4e6b"></path><path d="M2097.4 394.1L2108.4 187.6L1881.1 330.1Z" fill="#246688" stroke="#246688"></path><path d="M544.9 0L360.6 145.6L605.9 215.6Z" fill="#19435d" stroke="#19435d"></path><path d="M2270.7 358.1L2108.4 187.6L2097.4 394.1Z" fill="#15384f" stroke="#15384f"></path><path d="M2101.4 1250L2106.4 1074.4L1962.1 1108.4Z" fill="#205a7a" stroke="#205a7a"></path><path d="M2095.4 931.9L2268.7 918.9L2142.4 755.3Z" fill="#19435d" stroke="#19435d"></path><path d="M544.9 0L372.6 0L360.6 145.6Z" fill="#19435d" stroke="#19435d"></path><path d="M173.3 315.1L345.6 341.1L196.3 214.6Z" fill="#15384f" stroke="#15384f"></path><path d="M173.3 315.1L165.3 502.7L345.6 341.1Z" fill="#15384f" stroke="#15384f"></path><path d="M345.6 341.1L165.3 502.7L359.6 522.7Z" fill="#297ea6" stroke="#297ea6"></path><path d="M343.6 747.3L166.3 856.9L400.6 873.9Z" fill="#1d4e6b" stroke="#1d4e6b"></path><path d="M165.3 502.7L156.3 740.3L359.6 522.7Z" fill="#0c2435" stroke="#0c2435"></path><path d="M383.6 1068.4L359.6 1250L582.9 1250Z" fill="#15384f" stroke="#15384f"></path><path d="M169.3 1065.4L359.6 1250L383.6 1068.4Z" fill="#00101c" stroke="#00101c"></path><path d="M156.3 740.3L166.3 856.9L343.6 747.3Z" fill="#112e42" stroke="#112e42"></path><path d="M196.3 214.6L345.6 341.1L360.6 145.6Z" fill="#297ea6" stroke="#297ea6"></path><path d="M168.3 0L196.3 214.6L360.6 145.6Z" fill="#00101c" stroke="#00101c"></path><path d="M2155.4 495.7L2270.7 358.1L2097.4 394.1Z" fill="#0c2435" stroke="#0c2435"></path><path d="M2305.7 553.7L2270.7 358.1L2155.4 495.7Z" fill="#15384f" stroke="#15384f"></path><path d="M2305.7 553.7L2155.4 495.7L2142.4 755.3Z" fill="#297ea6" stroke="#297ea6"></path><path d="M2274.7 0L2116.4 0L2108.4 187.6Z" fill="#15384f" stroke="#15384f"></path><path d="M2108.4 187.6L2116.4 0L1902.1 0Z" fill="#15384f" stroke="#15384f"></path><path d="M1901.1 1250L2101.4 1250L1962.1 1108.4Z" fill="#15384f" stroke="#15384f"></path><path d="M2319.7 751.3L2305.7 553.7L2142.4 755.3Z" fill="#246688" stroke="#246688"></path><path d="M2268.7 918.9L2095.4 931.9L2106.4 1074.4Z" fill="#0c2435" stroke="#0c2435"></path><path d="M2330.7 1091.4L2268.7 918.9L2106.4 1074.4Z" fill="#0c2435" stroke="#0c2435"></path><path d="M2268.7 918.9L2319.7 751.3L2142.4 755.3Z" fill="#0c2435" stroke="#0c2435"></path><path d="M0 1067.4L169.3 1065.4L166.3 856.9Z" fill="#1d4e6b" stroke="#1d4e6b"></path><path d="M166.3 856.9L169.3 1065.4L400.6 873.9Z" fill="#15384f" stroke="#15384f"></path><path d="M372.6 0L168.3 0L360.6 145.6Z" fill="#19435d" stroke="#19435d"></path><path d="M0 385.1L165.3 502.7L173.3 315.1Z" fill="#297ea6" stroke="#297ea6"></path><path d="M0 385.1L0 500.7L165.3 502.7Z" fill="#246688" stroke="#246688"></path><path d="M165.3 502.7L0 725.3L156.3 740.3Z" fill="#277297" stroke="#277297"></path><path d="M2500 334.1L2346.7 205.6L2270.7 358.1Z" fill="#15384f" stroke="#15384f"></path><path d="M2270.7 358.1L2346.7 205.6L2108.4 187.6Z" fill="#00101c" stroke="#00101c"></path><path d="M2500 334.1L2270.7 358.1L2305.7 553.7Z" fill="#0c2435" stroke="#0c2435"></path><path d="M169.3 1065.4L180.3 1250L359.6 1250Z" fill="#246688" stroke="#246688"></path><path d="M0 385.1L173.3 315.1L0 149.6Z" fill="#205a7a" stroke="#205a7a"></path><path d="M156.3 740.3L0 851.9L166.3 856.9Z" fill="#0c2435" stroke="#0c2435"></path><path d="M169.3 1065.4L0 1250L180.3 1250Z" fill="#0c2435" stroke="#0c2435"></path><path d="M0 500.7L0 725.3L165.3 502.7Z" fill="#112e42" stroke="#112e42"></path><path d="M2266.7 1250L2330.7 1091.4L2106.4 1074.4Z" fill="#19435d" stroke="#19435d"></path><path d="M2500 854.9L2500 687.3L2319.7 751.3Z" fill="#1d4e6b" stroke="#1d4e6b"></path><path d="M2500 687.3L2500 576.7L2305.7 553.7Z" fill="#246688" stroke="#246688"></path><path d="M2346.7 205.6L2274.7 0L2108.4 187.6Z" fill="#19435d" stroke="#19435d"></path><path d="M0 149.6L173.3 315.1L196.3 214.6Z" fill="#081a28" stroke="#081a28"></path><path d="M0 725.3L0 851.9L156.3 740.3Z" fill="#112e42" stroke="#112e42"></path><path d="M2101.4 1250L2266.7 1250L2106.4 1074.4Z" fill="#246688" stroke="#246688"></path><path d="M0 851.9L0 1067.4L166.3 856.9Z" fill="#205a7a" stroke="#205a7a"></path><path d="M2500 687.3L2305.7 553.7L2319.7 751.3Z" fill="#277297" stroke="#277297"></path><path d="M2346.7 205.6L2500 0L2274.7 0Z" fill="#081a28" stroke="#081a28"></path><path d="M2500 854.9L2319.7 751.3L2268.7 918.9Z" fill="#19435d" stroke="#19435d"></path><path d="M2500 854.9L2268.7 918.9L2500 1045.4Z" fill="#277297" stroke="#277297"></path><path d="M168.3 0L0 149.6L196.3 214.6Z" fill="#205a7a" stroke="#205a7a"></path><path d="M2500 1045.4L2268.7 918.9L2330.7 1091.4Z" fill="#1d4e6b" stroke="#1d4e6b"></path><path d="M2500 576.7L2500 334.1L2305.7 553.7Z" fill="#0c2435" stroke="#0c2435"></path><path d="M168.3 0L0 0L0 149.6Z" fill="#246688" stroke="#246688"></path><path d="M2500 1250L2500 1045.4L2330.7 1091.4Z" fill="#00101c" stroke="#00101c"></path><path d="M2500 334.1L2500 170.6L2346.7 205.6Z" fill="#19435d" stroke="#19435d"></path><path d="M0 1067.4L0 1250L169.3 1065.4Z" fill="#112e42" stroke="#112e42"></path><path d="M2500 170.6L2500 0L2346.7 205.6Z" fill="#0c2435" stroke="#0c2435"></path><path d="M2266.7 1250L2500 1250L2330.7 1091.4Z" fill="#205a7a" stroke="#205a7a"></path></g></svg>