<svg id="visual" viewBox="0 0 2500 1250" width="2500" height="1250" xmlns="http://www.w3.org/2000/svg" xmlns:xlink="http://www.w3.org/1999/xlink" version="1.1"><g stroke-width="1" stroke-linejoin="bevel"><path d="M1162.8 505.7L1162.8 374.1L972.5 379.1Z" fill="#1d4e6b" stroke="#1d4e6b"></path><path d="M972.5 379.1L925.5 574.7L1162.8 505.7Z" fill="#246688" stroke="#246688"></path><path d="M1319.2 320.1L1168.8 217.6L1162.8 374.1Z" fill="#205a7a" stroke="#205a7a"></path><path d="M1162.8 374.1L1168.8 217.6L972.5 379.1Z" fill="#277297" stroke="#277297"></path><path d="M1162.8 505.7L1319.2 320.1L1162.8 374.1Z" fill="#205a7a" stroke="#205a7a"></path><path d="M925.5 574.7L1117.8 737.3L1162.8 505.7Z" fill="#0c2435" stroke="#0c2435"></path><path d="M927.5 684.3L1117.8 737.3L925.5 574.7Z" fill="#15384f" stroke="#15384f"></path><path d="M1162.8 505.7L1385.2 546.7L1319.2 320.1Z" fill="#15384f" stroke="#15384f"></path><path d="M920.5 168.6L785.2 329.1L972.5 379.1Z" fill="#246688" stroke="#246688"></path><path d="M972.5 379.1L785.2 329.1L925.5 574.7Z" fill="#205a7a" stroke="#205a7a"></path><path d="M925.5 574.7L757.2 698.3L927.5 684.3Z" fill="#205a7a" stroke="#205a7a"></path><path d="M1168.8 217.6L920.5 168.6L972.5 379.1Z" fill="#00101c" stroke="#00101c"></path><path d="M1381.2 701.3L1385.2 546.7L1162.8 505.7Z" fill="#205a7a" stroke="#205a7a"></path><path d="M785.2 329.1L735.2 569.7L925.5 574.7Z" fill="#297ea6" stroke="#297ea6"></path><path d="M920.5 168.6L781.2 207.6L785.2 329.1Z" fill="#1d4e6b" stroke="#1d4e6b"></path><path d="M785.2 329.1L534.9 388.1L735.2 569.7Z" fill="#297ea6" stroke="#297ea6"></path><path d="M1553.5 201.6L1364.2 168.6L1319.2 320.1Z" fill="#081a28" stroke="#081a28"></path><path d="M1319.2 320.1L1364.2 168.6L1168.8 217.6Z" fill="#297ea6" stroke="#297ea6"></path><path d="M1168.8 217.6L965.5 0L920.5 168.6Z" fill="#081a28" stroke="#081a28"></path><path d="M735.2 569.7L757.2 698.3L925.5 574.7Z" fill="#081a28" stroke="#081a28"></path><path d="M1001.5 933.9L1173.8 923.9L1117.8 737.3Z" fill="#297ea6" stroke="#297ea6"></path><path d="M1117.8 737.3L1381.2 701.3L1162.8 505.7Z" fill="#19435d" stroke="#19435d"></path><path d="M1181.8 0L965.5 0L1168.8 217.6Z" fill="#246688" stroke="#246688"></path><path d="M920.5 168.6L809.2 0L781.2 207.6Z" fill="#0c2435" stroke="#0c2435"></path><path d="M1364.2 168.6L1181.8 0L1168.8 217.6Z" fill="#00101c" stroke="#00101c"></path><path d="M1501.5 714.3L1537.5 512.7L1385.2 546.7Z" fill="#112e42" stroke="#112e42"></path><path d="M1385.2 546.7L1542.5 380.1L1319.2 320.1Z" fill="#297ea6" stroke="#297ea6"></path><path d="M1537.5 512.7L1542.5 380.1L1385.2 546.7Z" fill="#081a28" stroke="#081a28"></path><path d="M1001.5 933.9L1117.8 737.3L927.5 684.3Z" fill="#277297" stroke="#277297"></path><path d="M1117.8 737.3L1337.2 889.9L1381.2 701.3Z" fill="#246688" stroke="#246688"></path><path d="M796.2 865.9L1001.5 933.9L927.5 684.3Z" fill="#1d4e6b" stroke="#1d4e6b"></path><path d="M757.2 698.3L796.2 865.9L927.5 684.3Z" fill="#277297" stroke="#277297"></path><path d="M965.5 0L809.2 0L920.5 168.6Z" fill="#1d4e6b" stroke="#1d4e6b"></path><path d="M1337.2 889.9L1501.5 714.3L1381.2 701.3Z" fill="#15384f" stroke="#15384f"></path><path d="M1381.2 701.3L1501.5 714.3L1385.2 546.7Z" fill="#246688" stroke="#246688"></path><path d="M1173.8 923.9L1337.2 889.9L1117.8 737.3Z" fill="#081a28" stroke="#081a28"></path><path d="M1364.2 168.6L1362.2 0L1181.8 0Z" fill="#15384f" stroke="#15384f"></path><path d="M1570.5 0L1362.2 0L1364.2 168.6Z" fill="#15384f" stroke="#15384f"></path><path d="M809.2 0L581.9 217.6L781.2 207.6Z" fill="#081a28" stroke="#081a28"></path><path d="M781.2 207.6L581.9 217.6L785.2 329.1Z" fill="#277297" stroke="#277297"></path><path d="M735.2 569.7L546.9 722.3L757.2 698.3Z" fill="#246688" stroke="#246688"></path><path d="M757.2 698.3L583.9 918.9L796.2 865.9Z" fill="#15384f" stroke="#15384f"></path><path d="M581.9 217.6L534.9 388.1L785.2 329.1Z" fill="#19435d" stroke="#19435d"></path><path d="M1693.8 381.1L1553.5 201.6L1542.5 380.1Z" fill="#297ea6" stroke="#297ea6"></path><path d="M1542.5 380.1L1553.5 201.6L1319.2 320.1Z" fill="#246688" stroke="#246688"></path><path d="M534.9 388.1L542.9 565.7L735.2 569.7Z" fill="#246688" stroke="#246688"></path><path d="M423.6 697.3L546.9 722.3L542.9 565.7Z" fill="#0c2435" stroke="#0c2435"></path><path d="M542.9 565.7L546.9 722.3L735.2 569.7Z" fill="#205a7a" stroke="#205a7a"></path><path d="M926.5 1097.4L1126.8 1038.4L1001.5 933.9Z" fill="#1d4e6b" stroke="#1d4e6b"></path><path d="M1001.5 933.9L1126.8 1038.4L1173.8 923.9Z" fill="#277297" stroke="#277297"></path><path d="M1173.8 923.9L1331.2 1102.4L1337.2 889.9Z" fill="#19435d" stroke="#19435d"></path><path d="M1692.8 514.7L1542.5 380.1L1537.5 512.7Z" fill="#19435d" stroke="#19435d"></path><path d="M1692.8 514.7L1693.8 381.1L1542.5 380.1Z" fill="#0c2435" stroke="#0c2435"></path><path d="M1717.8 689.3L1692.8 514.7L1537.5 512.7Z" fill="#0c2435" stroke="#0c2435"></path><path d="M1717.8 689.3L1537.5 512.7L1501.5 714.3Z" fill="#15384f" stroke="#15384f"></path><path d="M581.9 217.6L419.6 355.1L534.9 388.1Z" fill="#1d4e6b" stroke="#1d4e6b"></path><path d="M534.9 388.1L388.6 513.7L542.9 565.7Z" fill="#081a28" stroke="#081a28"></path><path d="M399.6 175.6L419.6 355.1L581.9 217.6Z" fill="#277297" stroke="#277297"></path><path d="M1713.8 195.6L1570.5 0L1553.5 201.6Z" fill="#15384f" stroke="#15384f"></path><path d="M1553.5 201.6L1570.5 0L1364.2 168.6Z" fill="#19435d" stroke="#19435d"></path><path d="M796.2 865.9L926.5 1097.4L1001.5 933.9Z" fill="#15384f" stroke="#15384f"></path><path d="M778.2 1074.4L926.5 1097.4L796.2 865.9Z" fill="#112e42" stroke="#112e42"></path><path d="M385.6 892.9L583.9 918.9L546.9 722.3Z" fill="#1d4e6b" stroke="#1d4e6b"></path><path d="M546.9 722.3L583.9 918.9L757.2 698.3Z" fill="#081a28" stroke="#081a28"></path><path d="M419.6 355.1L388.6 513.7L534.9 388.1Z" fill="#19435d" stroke="#19435d"></path><path d="M1693.8 381.1L1713.8 195.6L1553.5 201.6Z" fill="#112e42" stroke="#112e42"></path><path d="M1769.8 0L1713.8 195.6L1943.1 161.6Z" fill="#205a7a" stroke="#205a7a"></path><path d="M809.2 0L536.9 0L581.9 217.6Z" fill="#297ea6" stroke="#297ea6"></path><path d="M1577.5 920.9L1501.5 714.3L1337.2 889.9Z" fill="#15384f" stroke="#15384f"></path><path d="M1577.5 920.9L1717.8 689.3L1501.5 714.3Z" fill="#0c2435" stroke="#0c2435"></path><path d="M1692.8 514.7L1903.1 373.1L1693.8 381.1Z" fill="#0c2435" stroke="#0c2435"></path><path d="M388.6 513.7L423.6 697.3L542.9 565.7Z" fill="#19435d" stroke="#19435d"></path><path d="M583.9 918.9L778.2 1074.4L796.2 865.9Z" fill="#19435d" stroke="#19435d"></path><path d="M1511.5 1094.4L1577.5 920.9L1337.2 889.9Z" fill="#112e42" stroke="#112e42"></path><path d="M1331.2 1102.4L1173.8 923.9L1126.8 1038.4Z" fill="#297ea6" stroke="#297ea6"></path><path d="M1131.8 1250L1331.2 1102.4L1126.8 1038.4Z" fill="#081a28" stroke="#081a28"></path><path d="M536.9 0L399.6 175.6L581.9 217.6Z" fill="#112e42" stroke="#112e42"></path><path d="M419.6 355.1L223.3 316.1L388.6 513.7Z" fill="#246688" stroke="#246688"></path><path d="M343.6 1061.4L607.9 1075.4L583.9 918.9Z" fill="#0c2435" stroke="#0c2435"></path><path d="M583.9 918.9L607.9 1075.4L778.2 1074.4Z" fill="#081a28" stroke="#081a28"></path><path d="M991.5 1250L1126.8 1038.4L926.5 1097.4Z" fill="#0c2435" stroke="#0c2435"></path><path d="M1331.2 1102.4L1511.5 1094.4L1337.2 889.9Z" fill="#246688" stroke="#246688"></path><path d="M1577.5 920.9L1769.8 899.9L1717.8 689.3Z" fill="#19435d" stroke="#19435d"></path><path d="M991.5 1250L926.5 1097.4L799.2 1250Z" fill="#277297" stroke="#277297"></path><path d="M991.5 1250L1131.8 1250L1126.8 1038.4Z" fill="#205a7a" stroke="#205a7a"></path><path d="M1331.2 1102.4L1377.2 1250L1511.5 1094.4Z" fill="#205a7a" stroke="#205a7a"></path><path d="M799.2 1250L926.5 1097.4L778.2 1074.4Z" fill="#205a7a" stroke="#205a7a"></path><path d="M423.6 697.3L385.6 892.9L546.9 722.3Z" fill="#15384f" stroke="#15384f"></path><path d="M204.3 731.3L385.6 892.9L423.6 697.3Z" fill="#112e42" stroke="#112e42"></path><path d="M1903.1 373.1L1713.8 195.6L1693.8 381.1Z" fill="#112e42" stroke="#112e42"></path><path d="M1713.8 195.6L1769.8 0L1570.5 0Z" fill="#1d4e6b" stroke="#1d4e6b"></path><path d="M536.9 0L367.6 0L399.6 175.6Z" fill="#00101c" stroke="#00101c"></path><path d="M399.6 175.6L223.3 316.1L419.6 355.1Z" fill="#15384f" stroke="#15384f"></path><path d="M388.6 513.7L203.3 526.7L423.6 697.3Z" fill="#1d4e6b" stroke="#1d4e6b"></path><path d="M1962.1 570.7L1692.8 514.7L1717.8 689.3Z" fill="#19435d" stroke="#19435d"></path><path d="M1962.1 570.7L1903.1 373.1L1692.8 514.7Z" fill="#081a28" stroke="#081a28"></path><path d="M1763.8 1059.4L1769.8 899.9L1577.5 920.9Z" fill="#081a28" stroke="#081a28"></path><path d="M607.9 1075.4L799.2 1250L778.2 1074.4Z" fill="#081a28" stroke="#081a28"></path><path d="M570.9 1250L799.2 1250L607.9 1075.4Z" fill="#00101c" stroke="#00101c"></path><path d="M225.3 214.6L223.3 316.1L399.6 175.6Z" fill="#0c2435" stroke="#0c2435"></path><path d="M1131.8 1250L1377.2 1250L1331.2 1102.4Z" fill="#00101c" stroke="#00101c"></path><path d="M1511.5 1094.4L1763.8 1059.4L1577.5 920.9Z" fill="#0c2435" stroke="#0c2435"></path><path d="M223.3 316.1L203.3 526.7L388.6 513.7Z" fill="#0c2435" stroke="#0c2435"></path><path d="M367.6 0L225.3 214.6L399.6 175.6Z" fill="#246688" stroke="#246688"></path><path d="M223.3 316.1L0 375.1L203.3 526.7Z" fill="#081a28" stroke="#081a28"></path><path d="M1942.1 689.3L1962.1 570.7L1717.8 689.3Z" fill="#081a28" stroke="#081a28"></path><path d="M1769.8 899.9L1942.1 689.3L1717.8 689.3Z" fill="#112e42" stroke="#112e42"></path><path d="M203.3 526.7L204.3 731.3L423.6 697.3Z" fill="#0c2435" stroke="#0c2435"></path><path d="M1903.1 373.1L1943.1 161.6L1713.8 195.6Z" fill="#1d4e6b" stroke="#1d4e6b"></path><path d="M2097.4 154.6L1943.1 161.6L2150.4 340.1Z" fill="#205a7a" stroke="#205a7a"></path><path d="M1740.8 1250L1763.8 1059.4L1511.5 1094.4Z" fill="#112e42" stroke="#112e42"></path><path d="M1769.8 899.9L1952.1 930.9L1942.1 689.3Z" fill="#1d4e6b" stroke="#1d4e6b"></path><path d="M1377.2 1250L1541.5 1250L1511.5 1094.4Z" fill="#0c2435" stroke="#0c2435"></path><path d="M343.6 1061.4L583.9 918.9L385.6 892.9Z" fill="#277297" stroke="#277297"></path><path d="M407.6 1250L570.9 1250L607.9 1075.4Z" fill="#15384f" stroke="#15384f"></path><path d="M229.3 1043.4L343.6 1061.4L385.6 892.9Z" fill="#297ea6" stroke="#297ea6"></path><path d="M367.6 0L202.3 0L225.3 214.6Z" fill="#277297" stroke="#277297"></path><path d="M0 214.6L0 375.1L223.3 316.1Z" fill="#15384f" stroke="#15384f"></path><path d="M2097.4 154.6L1948.1 0L1943.1 161.6Z" fill="#0c2435" stroke="#0c2435"></path><path d="M1943.1 161.6L1948.1 0L1769.8 0Z" fill="#19435d" stroke="#19435d"></path><path d="M0 885.9L175.3 901.9L204.3 731.3Z" fill="#15384f" stroke="#15384f"></path><path d="M204.3 731.3L175.3 901.9L385.6 892.9Z" fill="#1d4e6b" stroke="#1d4e6b"></path><path d="M0 575.7L204.3 731.3L203.3 526.7Z" fill="#297ea6" stroke="#297ea6"></path><path d="M1925.1 1111.4L1952.1 930.9L1763.8 1059.4Z" fill="#00101c" stroke="#00101c"></path><path d="M1763.8 1059.4L1952.1 930.9L1769.8 899.9Z" fill="#0c2435" stroke="#0c2435"></path><path d="M1942.1 689.3L2080.4 742.3L1962.1 570.7Z" fill="#0c2435" stroke="#0c2435"></path><path d="M175.3 901.9L229.3 1043.4L385.6 892.9Z" fill="#19435d" stroke="#19435d"></path><path d="M343.6 1061.4L407.6 1250L607.9 1075.4Z" fill="#19435d" stroke="#19435d"></path><path d="M189.3 1250L407.6 1250L343.6 1061.4Z" fill="#1d4e6b" stroke="#1d4e6b"></path><path d="M1541.5 1250L1740.8 1250L1511.5 1094.4Z" fill="#081a28" stroke="#081a28"></path><path d="M2132.4 932.9L2080.4 742.3L1952.1 930.9Z" fill="#1d4e6b" stroke="#1d4e6b"></path><path d="M1952.1 930.9L2080.4 742.3L1942.1 689.3Z" fill="#0c2435" stroke="#0c2435"></path><path d="M2150.4 340.1L1943.1 161.6L1903.1 373.1Z" fill="#297ea6" stroke="#297ea6"></path><path d="M2150.4 340.1L1903.1 373.1L1962.1 570.7Z" fill="#081a28" stroke="#081a28"></path><path d="M0 214.6L223.3 316.1L225.3 214.6Z" fill="#277297" stroke="#277297"></path><path d="M0 375.1L0 575.7L203.3 526.7Z" fill="#00101c" stroke="#00101c"></path><path d="M175.3 901.9L0 1109.4L229.3 1043.4Z" fill="#205a7a" stroke="#205a7a"></path><path d="M2080.4 742.3L2143.4 569.7L1962.1 570.7Z" fill="#297ea6" stroke="#297ea6"></path><path d="M2143.4 569.7L2150.4 340.1L1962.1 570.7Z" fill="#246688" stroke="#246688"></path><path d="M1740.8 1250L1925.1 1111.4L1763.8 1059.4Z" fill="#297ea6" stroke="#297ea6"></path><path d="M202.3 0L0 214.6L225.3 214.6Z" fill="#297ea6" stroke="#297ea6"></path><path d="M0 575.7L0 711.3L204.3 731.3Z" fill="#205a7a" stroke="#205a7a"></path><path d="M2301.7 0L2110.4 0L2097.4 154.6Z" fill="#205a7a" stroke="#205a7a"></path><path d="M2097.4 154.6L2110.4 0L1948.1 0Z" fill="#15384f" stroke="#15384f"></path><path d="M202.3 0L0 0L0 214.6Z" fill="#297ea6" stroke="#297ea6"></path><path d="M0 711.3L0 885.9L204.3 731.3Z" fill="#297ea6" stroke="#297ea6"></path><path d="M229.3 1043.4L189.3 1250L343.6 1061.4Z" fill="#081a28" stroke="#081a28"></path><path d="M2148.4 1080.4L2132.4 932.9L1952.1 930.9Z" fill="#19435d" stroke="#19435d"></path><path d="M2346.7 672.3L2311.7 536.7L2143.4 569.7Z" fill="#15384f" stroke="#15384f"></path><path d="M2143.4 569.7L2285.7 355.1L2150.4 340.1Z" fill="#0c2435" stroke="#0c2435"></path><path d="M0 1109.4L189.3 1250L229.3 1043.4Z" fill="#205a7a" stroke="#205a7a"></path><path d="M1740.8 1250L1955.1 1250L1925.1 1111.4Z" fill="#19435d" stroke="#19435d"></path><path d="M1925.1 1111.4L2148.4 1080.4L1952.1 930.9Z" fill="#0c2435" stroke="#0c2435"></path><path d="M2311.7 536.7L2285.7 355.1L2143.4 569.7Z" fill="#112e42" stroke="#112e42"></path><path d="M2150.4 340.1L2348.7 212.6L2097.4 154.6Z" fill="#00101c" stroke="#00101c"></path><path d="M2346.7 672.3L2143.4 569.7L2080.4 742.3Z" fill="#246688" stroke="#246688"></path><path d="M1955.1 1250L2148.4 1080.4L1925.1 1111.4Z" fill="#205a7a" stroke="#205a7a"></path><path d="M2297.7 901.9L2346.7 672.3L2080.4 742.3Z" fill="#112e42" stroke="#112e42"></path><path d="M0 885.9L0 1109.4L175.3 901.9Z" fill="#297ea6" stroke="#297ea6"></path><path d="M2297.7 901.9L2080.4 742.3L2132.4 932.9Z" fill="#246688" stroke="#246688"></path><path d="M2500 376.1L2348.7 212.6L2285.7 355.1Z" fill="#277297" stroke="#277297"></path><path d="M2500 376.1L2285.7 355.1L2311.7 536.7Z" fill="#246688" stroke="#246688"></path><path d="M2285.7 355.1L2348.7 212.6L2150.4 340.1Z" fill="#19435d" stroke="#19435d"></path><path d="M2348.7 212.6L2301.7 0L2097.4 154.6Z" fill="#297ea6" stroke="#297ea6"></path><path d="M2148.4 1080.4L2297.7 901.9L2132.4 932.9Z" fill="#112e42" stroke="#112e42"></path><path d="M0 1109.4L0 1250L189.3 1250Z" fill="#15384f" stroke="#15384f"></path><path d="M1955.1 1250L2140.4 1250L2148.4 1080.4Z" fill="#0c2435" stroke="#0c2435"></path><path d="M2148.4 1080.4L2329.7 1088.4L2297.7 901.9Z" fill="#246688" stroke="#246688"></path><path d="M2294.7 1250L2329.7 1088.4L2148.4 1080.4Z" fill="#297ea6" stroke="#297ea6"></path><path d="M2500 719.3L2500 576.7L2346.7 672.3Z" fill="#277297" stroke="#277297"></path><path d="M2500 576.7L2500 376.1L2311.7 536.7Z" fill="#277297" stroke="#277297"></path><path d="M2348.7 212.6L2500 0L2301.7 0Z" fill="#297ea6" stroke="#297ea6"></path><path d="M2500 576.7L2311.7 536.7L2346.7 672.3Z" fill="#297ea6" stroke="#297ea6"></path><path d="M2500 719.3L2346.7 672.3L2297.7 901.9Z" fill="#00101c" stroke="#00101c"></path><path d="M2500 376.1L2500 216.6L2348.7 212.6Z" fill="#19435d" stroke="#19435d"></path><path d="M2500 915.9L2500 719.3L2297.7 901.9Z" fill="#297ea6" stroke="#297ea6"></path><path d="M2140.4 1250L2294.7 1250L2148.4 1080.4Z" fill="#15384f" stroke="#15384f"></path><path d="M2329.7 1088.4L2500 915.9L2297.7 901.9Z" fill="#277297" stroke="#277297"></path><path d="M2500 216.6L2500 0L2348.7 212.6Z" fill="#297ea6" stroke="#297ea6"></path><path d="M2500 1111.4L2500 915.9L2329.7 1088.4Z" fill="#15384f" stroke="#15384f"></path><path d="M2500 1250L2500 1111.4L2329.7 1088.4Z" fill="#277297" stroke="#277297"></path><path d="M2294.7 1250L2500 1250L2329.7 1088.4Z" fill="#205a7a" stroke="#205a7a"></path></g></svg>