<svg id="visual" viewBox="0 0 2500 1250" width="2500" height="1250" xmlns="http://www.w3.org/2000/svg" xmlns:xlink="http://www.w3.org/1999/xlink" version="1.1"><g stroke-width="1" stroke-linejoin="bevel"><path d="M1164.8 560.7L943.5 686.3L1131.8 737.3Z" fill="#246688" stroke="#246688"></path><path d="M1164.8 560.7L973.5 502.7L943.5 686.3Z" fill="#0c2435" stroke="#0c2435"></path><path d="M943.5 686.3L966.5 886.9L1131.8 737.3Z" fill="#112e42" stroke="#112e42"></path><path d="M966.5 886.9L1181.8 887.9L1131.8 737.3Z" fill="#1d4e6b" stroke="#1d4e6b"></path><path d="M1131.8 737.3L1358.2 747.3L1164.8 560.7Z" fill="#112e42" stroke="#112e42"></path><path d="M754.2 536.7L781.2 701.3L943.5 686.3Z" fill="#246688" stroke="#246688"></path><path d="M943.5 686.3L781.2 701.3L966.5 886.9Z" fill="#205a7a" stroke="#205a7a"></path><path d="M1145.8 351.1L950.5 362.1L973.5 502.7Z" fill="#205a7a" stroke="#205a7a"></path><path d="M973.5 502.7L754.2 536.7L943.5 686.3Z" fill="#297ea6" stroke="#297ea6"></path><path d="M1164.8 560.7L1145.8 351.1L973.5 502.7Z" fill="#081a28" stroke="#081a28"></path><path d="M746.2 374.1L754.2 536.7L973.5 502.7Z" fill="#246688" stroke="#246688"></path><path d="M1181.8 887.9L1358.2 747.3L1131.8 737.3Z" fill="#19435d" stroke="#19435d"></path><path d="M1164.8 560.7L1366.2 330.1L1145.8 351.1Z" fill="#1d4e6b" stroke="#1d4e6b"></path><path d="M1358.2 747.3L1376.2 556.7L1164.8 560.7Z" fill="#19435d" stroke="#19435d"></path><path d="M610.9 736.3L763.2 876.9L781.2 701.3Z" fill="#19435d" stroke="#19435d"></path><path d="M781.2 701.3L763.2 876.9L966.5 886.9Z" fill="#112e42" stroke="#112e42"></path><path d="M1181.8 887.9L1333.2 923.9L1358.2 747.3Z" fill="#297ea6" stroke="#297ea6"></path><path d="M1308.2 1085.4L1333.2 923.9L1181.8 887.9Z" fill="#246688" stroke="#246688"></path><path d="M1127.8 1090.4L1181.8 887.9L966.5 886.9Z" fill="#205a7a" stroke="#205a7a"></path><path d="M950.5 362.1L746.2 374.1L973.5 502.7Z" fill="#277297" stroke="#277297"></path><path d="M754.2 536.7L610.9 736.3L781.2 701.3Z" fill="#15384f" stroke="#15384f"></path><path d="M1376.2 556.7L1366.2 330.1L1164.8 560.7Z" fill="#15384f" stroke="#15384f"></path><path d="M1145.8 351.1L992.5 192.6L950.5 362.1Z" fill="#19435d" stroke="#19435d"></path><path d="M950.5 362.1L727.2 150.6L746.2 374.1Z" fill="#246688" stroke="#246688"></path><path d="M1168.8 162.6L992.5 192.6L1145.8 351.1Z" fill="#205a7a" stroke="#205a7a"></path><path d="M746.2 374.1L614.9 524.7L754.2 536.7Z" fill="#246688" stroke="#246688"></path><path d="M614.9 524.7L610.9 736.3L754.2 536.7Z" fill="#205a7a" stroke="#205a7a"></path><path d="M930.5 1094.4L1127.8 1090.4L966.5 886.9Z" fill="#246688" stroke="#246688"></path><path d="M1568.5 746.3L1376.2 556.7L1358.2 747.3Z" fill="#00101c" stroke="#00101c"></path><path d="M1568.5 746.3L1523.5 537.7L1376.2 556.7Z" fill="#297ea6" stroke="#297ea6"></path><path d="M1376.2 556.7L1500.5 364.1L1366.2 330.1Z" fill="#19435d" stroke="#19435d"></path><path d="M760.2 1055.4L966.5 886.9L763.2 876.9Z" fill="#277297" stroke="#277297"></path><path d="M760.2 1055.4L930.5 1094.4L966.5 886.9Z" fill="#246688" stroke="#246688"></path><path d="M1308.2 186.6L1168.8 162.6L1145.8 351.1Z" fill="#112e42" stroke="#112e42"></path><path d="M1366.2 330.1L1308.2 186.6L1145.8 351.1Z" fill="#277297" stroke="#277297"></path><path d="M1554.5 154.6L1308.2 186.6L1366.2 330.1Z" fill="#0c2435" stroke="#0c2435"></path><path d="M1523.5 537.7L1500.5 364.1L1376.2 556.7Z" fill="#112e42" stroke="#112e42"></path><path d="M1127.8 1090.4L1308.2 1085.4L1181.8 887.9Z" fill="#277297" stroke="#277297"></path><path d="M1510.5 897.9L1568.5 746.3L1358.2 747.3Z" fill="#277297" stroke="#277297"></path><path d="M564.9 877.9L760.2 1055.4L763.2 876.9Z" fill="#15384f" stroke="#15384f"></path><path d="M1510.5 897.9L1358.2 747.3L1333.2 923.9Z" fill="#112e42" stroke="#112e42"></path><path d="M1523.5 537.7L1734.8 379.1L1500.5 364.1Z" fill="#081a28" stroke="#081a28"></path><path d="M1557.5 1078.4L1510.5 897.9L1333.2 923.9Z" fill="#19435d" stroke="#19435d"></path><path d="M362.6 693.3L564.9 877.9L610.9 736.3Z" fill="#15384f" stroke="#15384f"></path><path d="M610.9 736.3L564.9 877.9L763.2 876.9Z" fill="#297ea6" stroke="#297ea6"></path><path d="M746.2 374.1L539.9 377.1L614.9 524.7Z" fill="#205a7a" stroke="#205a7a"></path><path d="M614.9 524.7L403.6 546.7L610.9 736.3Z" fill="#297ea6" stroke="#297ea6"></path><path d="M585.9 199.6L539.9 377.1L746.2 374.1Z" fill="#205a7a" stroke="#205a7a"></path><path d="M939.5 0L727.2 150.6L992.5 192.6Z" fill="#0c2435" stroke="#0c2435"></path><path d="M992.5 192.6L727.2 150.6L950.5 362.1Z" fill="#112e42" stroke="#112e42"></path><path d="M1127.8 1090.4L1140.8 1250L1308.2 1085.4Z" fill="#205a7a" stroke="#205a7a"></path><path d="M1308.2 1085.4L1557.5 1078.4L1333.2 923.9Z" fill="#297ea6" stroke="#297ea6"></path><path d="M963.5 1250L1140.8 1250L1127.8 1090.4Z" fill="#1d4e6b" stroke="#1d4e6b"></path><path d="M963.5 1250L1127.8 1090.4L930.5 1094.4Z" fill="#0c2435" stroke="#0c2435"></path><path d="M762.2 1250L930.5 1094.4L760.2 1055.4Z" fill="#246688" stroke="#246688"></path><path d="M762.2 1250L963.5 1250L930.5 1094.4Z" fill="#00101c" stroke="#00101c"></path><path d="M1370.2 0L1111.8 0L1168.8 162.6Z" fill="#112e42" stroke="#112e42"></path><path d="M1168.8 162.6L1111.8 0L992.5 192.6Z" fill="#205a7a" stroke="#205a7a"></path><path d="M1370.2 0L1168.8 162.6L1308.2 186.6Z" fill="#277297" stroke="#277297"></path><path d="M594.9 0L585.9 199.6L727.2 150.6Z" fill="#15384f" stroke="#15384f"></path><path d="M727.2 150.6L585.9 199.6L746.2 374.1Z" fill="#19435d" stroke="#19435d"></path><path d="M1111.8 0L939.5 0L992.5 192.6Z" fill="#15384f" stroke="#15384f"></path><path d="M370.6 902.9L559.9 1063.4L564.9 877.9Z" fill="#15384f" stroke="#15384f"></path><path d="M564.9 877.9L559.9 1063.4L760.2 1055.4Z" fill="#081a28" stroke="#081a28"></path><path d="M1768.8 715.3L1715.8 566.7L1568.5 746.3Z" fill="#1d4e6b" stroke="#1d4e6b"></path><path d="M1568.5 746.3L1715.8 566.7L1523.5 537.7Z" fill="#15384f" stroke="#15384f"></path><path d="M387.6 392.1L403.6 546.7L539.9 377.1Z" fill="#277297" stroke="#277297"></path><path d="M539.9 377.1L403.6 546.7L614.9 524.7Z" fill="#1d4e6b" stroke="#1d4e6b"></path><path d="M1327.2 1250L1557.5 1078.4L1308.2 1085.4Z" fill="#15384f" stroke="#15384f"></path><path d="M1510.5 897.9L1705.8 908.9L1568.5 746.3Z" fill="#19435d" stroke="#19435d"></path><path d="M1140.8 1250L1327.2 1250L1308.2 1085.4Z" fill="#297ea6" stroke="#297ea6"></path><path d="M559.9 1063.4L762.2 1250L760.2 1055.4Z" fill="#00101c" stroke="#00101c"></path><path d="M1734.8 379.1L1554.5 154.6L1500.5 364.1Z" fill="#277297" stroke="#277297"></path><path d="M1500.5 364.1L1554.5 154.6L1366.2 330.1Z" fill="#15384f" stroke="#15384f"></path><path d="M939.5 0L771.2 0L727.2 150.6Z" fill="#246688" stroke="#246688"></path><path d="M403.6 546.7L362.6 693.3L610.9 736.3Z" fill="#1d4e6b" stroke="#1d4e6b"></path><path d="M1557.5 1078.4L1705.8 908.9L1510.5 897.9Z" fill="#15384f" stroke="#15384f"></path><path d="M1554.5 154.6L1370.2 0L1308.2 186.6Z" fill="#081a28" stroke="#081a28"></path><path d="M377.6 172.6L387.6 392.1L539.9 377.1Z" fill="#15384f" stroke="#15384f"></path><path d="M403.6 546.7L222.3 688.3L362.6 693.3Z" fill="#15384f" stroke="#15384f"></path><path d="M377.6 172.6L539.9 377.1L585.9 199.6Z" fill="#205a7a" stroke="#205a7a"></path><path d="M1705.8 908.9L1768.8 715.3L1568.5 746.3Z" fill="#297ea6" stroke="#297ea6"></path><path d="M1715.8 566.7L1734.8 379.1L1523.5 537.7Z" fill="#205a7a" stroke="#205a7a"></path><path d="M1914.1 517.7L1734.8 379.1L1715.8 566.7Z" fill="#205a7a" stroke="#205a7a"></path><path d="M362.6 693.3L370.6 902.9L564.9 877.9Z" fill="#297ea6" stroke="#297ea6"></path><path d="M559.9 1063.4L540.9 1250L762.2 1250Z" fill="#15384f" stroke="#15384f"></path><path d="M771.2 0L594.9 0L727.2 150.6Z" fill="#205a7a" stroke="#205a7a"></path><path d="M370.6 902.9L385.6 1065.4L559.9 1063.4Z" fill="#00101c" stroke="#00101c"></path><path d="M1554.5 154.6L1552.5 0L1370.2 0Z" fill="#277297" stroke="#277297"></path><path d="M1748.8 0L1552.5 0L1554.5 154.6Z" fill="#081a28" stroke="#081a28"></path><path d="M1327.2 1250L1571.5 1250L1557.5 1078.4Z" fill="#112e42" stroke="#112e42"></path><path d="M1557.5 1078.4L1755.8 1096.4L1705.8 908.9Z" fill="#19435d" stroke="#19435d"></path><path d="M385.6 1065.4L540.9 1250L559.9 1063.4Z" fill="#1d4e6b" stroke="#1d4e6b"></path><path d="M594.9 0L377.6 172.6L585.9 199.6Z" fill="#112e42" stroke="#112e42"></path><path d="M231.3 494.7L222.3 688.3L403.6 546.7Z" fill="#1d4e6b" stroke="#1d4e6b"></path><path d="M1964.1 328.1L1771.8 217.6L1734.8 379.1Z" fill="#1d4e6b" stroke="#1d4e6b"></path><path d="M1734.8 379.1L1771.8 217.6L1554.5 154.6Z" fill="#15384f" stroke="#15384f"></path><path d="M1700.8 1250L1755.8 1096.4L1557.5 1078.4Z" fill="#112e42" stroke="#112e42"></path><path d="M1705.8 908.9L1921.1 871.9L1768.8 715.3Z" fill="#246688" stroke="#246688"></path><path d="M362.6 693.3L222.3 688.3L370.6 902.9Z" fill="#15384f" stroke="#15384f"></path><path d="M370.6 902.9L212.3 1033.4L385.6 1065.4Z" fill="#1d4e6b" stroke="#1d4e6b"></path><path d="M231.3 494.7L403.6 546.7L387.6 392.1Z" fill="#0c2435" stroke="#0c2435"></path><path d="M170.3 390.1L231.3 494.7L387.6 392.1Z" fill="#246688" stroke="#246688"></path><path d="M1952.1 698.3L1914.1 517.7L1768.8 715.3Z" fill="#00101c" stroke="#00101c"></path><path d="M1768.8 715.3L1914.1 517.7L1715.8 566.7Z" fill="#277297" stroke="#277297"></path><path d="M1571.5 1250L1700.8 1250L1557.5 1078.4Z" fill="#1d4e6b" stroke="#1d4e6b"></path><path d="M1933.1 1064.4L1705.8 908.9L1755.8 1096.4Z" fill="#15384f" stroke="#15384f"></path><path d="M1933.1 1064.4L1921.1 871.9L1705.8 908.9Z" fill="#00101c" stroke="#00101c"></path><path d="M1921.1 871.9L1952.1 698.3L1768.8 715.3Z" fill="#081a28" stroke="#081a28"></path><path d="M0 734.3L191.3 928.9L222.3 688.3Z" fill="#0c2435" stroke="#0c2435"></path><path d="M222.3 688.3L191.3 928.9L370.6 902.9Z" fill="#1d4e6b" stroke="#1d4e6b"></path><path d="M385.6 1065.4L343.6 1250L540.9 1250Z" fill="#15384f" stroke="#15384f"></path><path d="M191.3 182.6L170.3 390.1L387.6 392.1Z" fill="#00101c" stroke="#00101c"></path><path d="M0 517.7L0 734.3L222.3 688.3Z" fill="#246688" stroke="#246688"></path><path d="M1961.1 159.6L1748.8 0L1771.8 217.6Z" fill="#205a7a" stroke="#205a7a"></path><path d="M1771.8 217.6L1748.8 0L1554.5 154.6Z" fill="#19435d" stroke="#19435d"></path><path d="M191.3 928.9L212.3 1033.4L370.6 902.9Z" fill="#205a7a" stroke="#205a7a"></path><path d="M228.3 1250L343.6 1250L385.6 1065.4Z" fill="#277297" stroke="#277297"></path><path d="M594.9 0L355.6 0L377.6 172.6Z" fill="#19435d" stroke="#19435d"></path><path d="M377.6 172.6L191.3 182.6L387.6 392.1Z" fill="#246688" stroke="#246688"></path><path d="M1914.1 517.7L1964.1 328.1L1734.8 379.1Z" fill="#1d4e6b" stroke="#1d4e6b"></path><path d="M2103.4 530.7L1964.1 328.1L1914.1 517.7Z" fill="#00101c" stroke="#00101c"></path><path d="M1958.1 1250L1933.1 1064.4L1755.8 1096.4Z" fill="#246688" stroke="#246688"></path><path d="M1921.1 871.9L2083.4 699.3L1952.1 698.3Z" fill="#19435d" stroke="#19435d"></path><path d="M355.6 0L191.3 182.6L377.6 172.6Z" fill="#297ea6" stroke="#297ea6"></path><path d="M1964.1 328.1L1961.1 159.6L1771.8 217.6Z" fill="#0c2435" stroke="#0c2435"></path><path d="M2079.4 919.9L2083.4 699.3L1921.1 871.9Z" fill="#246688" stroke="#246688"></path><path d="M1952.1 698.3L2103.4 530.7L1914.1 517.7Z" fill="#081a28" stroke="#081a28"></path><path d="M1964.1 328.1L2103.4 328.1L1961.1 159.6Z" fill="#0c2435" stroke="#0c2435"></path><path d="M212.3 1033.4L228.3 1250L385.6 1065.4Z" fill="#19435d" stroke="#19435d"></path><path d="M0 1250L228.3 1250L212.3 1033.4Z" fill="#1d4e6b" stroke="#1d4e6b"></path><path d="M2083.4 699.3L2103.4 530.7L1952.1 698.3Z" fill="#0c2435" stroke="#0c2435"></path><path d="M1933.1 1064.4L2079.4 919.9L1921.1 871.9Z" fill="#15384f" stroke="#15384f"></path><path d="M2337.7 501.7L2275.7 360.1L2103.4 530.7Z" fill="#1d4e6b" stroke="#1d4e6b"></path><path d="M0 517.7L222.3 688.3L231.3 494.7Z" fill="#19435d" stroke="#19435d"></path><path d="M191.3 928.9L0 1039.4L212.3 1033.4Z" fill="#081a28" stroke="#081a28"></path><path d="M0 517.7L231.3 494.7L170.3 390.1Z" fill="#112e42" stroke="#112e42"></path><path d="M0 353.1L0 517.7L170.3 390.1Z" fill="#15384f" stroke="#15384f"></path><path d="M0 734.3L0 870.9L191.3 928.9Z" fill="#19435d" stroke="#19435d"></path><path d="M2103.4 530.7L2103.4 328.1L1964.1 328.1Z" fill="#297ea6" stroke="#297ea6"></path><path d="M1700.8 1250L1958.1 1250L1755.8 1096.4Z" fill="#0c2435" stroke="#0c2435"></path><path d="M1933.1 1064.4L2101.4 1110.4L2079.4 919.9Z" fill="#19435d" stroke="#19435d"></path><path d="M355.6 0L169.3 0L191.3 182.6Z" fill="#1d4e6b" stroke="#1d4e6b"></path><path d="M191.3 182.6L0 353.1L170.3 390.1Z" fill="#1d4e6b" stroke="#1d4e6b"></path><path d="M2129.4 157.6L1953.1 0L1961.1 159.6Z" fill="#297ea6" stroke="#297ea6"></path><path d="M1961.1 159.6L1953.1 0L1748.8 0Z" fill="#1d4e6b" stroke="#1d4e6b"></path><path d="M0 197.6L0 353.1L191.3 182.6Z" fill="#15384f" stroke="#15384f"></path><path d="M0 870.9L0 1039.4L191.3 928.9Z" fill="#205a7a" stroke="#205a7a"></path><path d="M169.3 0L0 197.6L191.3 182.6Z" fill="#297ea6" stroke="#297ea6"></path><path d="M1958.1 1250L2101.4 1110.4L1933.1 1064.4Z" fill="#1d4e6b" stroke="#1d4e6b"></path><path d="M2318.7 739.3L2103.4 530.7L2083.4 699.3Z" fill="#1d4e6b" stroke="#1d4e6b"></path><path d="M2275.7 360.1L2129.4 157.6L2103.4 328.1Z" fill="#15384f" stroke="#15384f"></path><path d="M2103.4 328.1L2129.4 157.6L1961.1 159.6Z" fill="#112e42" stroke="#112e42"></path><path d="M2275.7 360.1L2103.4 328.1L2103.4 530.7Z" fill="#15384f" stroke="#15384f"></path><path d="M0 1039.4L0 1250L212.3 1033.4Z" fill="#0c2435" stroke="#0c2435"></path><path d="M169.3 0L0 0L0 197.6Z" fill="#297ea6" stroke="#297ea6"></path><path d="M2318.7 739.3L2083.4 699.3L2303.7 865.9Z" fill="#205a7a" stroke="#205a7a"></path><path d="M1958.1 1250L2146.4 1250L2101.4 1110.4Z" fill="#277297" stroke="#277297"></path><path d="M2303.7 865.9L2083.4 699.3L2079.4 919.9Z" fill="#00101c" stroke="#00101c"></path><path d="M2303.7 865.9L2079.4 919.9L2296.7 1062.4Z" fill="#00101c" stroke="#00101c"></path><path d="M2335.7 165.6L2154.4 0L2129.4 157.6Z" fill="#081a28" stroke="#081a28"></path><path d="M2129.4 157.6L2154.4 0L1953.1 0Z" fill="#0c2435" stroke="#0c2435"></path><path d="M2296.7 1062.4L2079.4 919.9L2101.4 1110.4Z" fill="#205a7a" stroke="#205a7a"></path><path d="M2318.7 739.3L2337.7 501.7L2103.4 530.7Z" fill="#081a28" stroke="#081a28"></path><path d="M2275.7 360.1L2335.7 165.6L2129.4 157.6Z" fill="#15384f" stroke="#15384f"></path><path d="M2146.4 1250L2296.7 1062.4L2101.4 1110.4Z" fill="#112e42" stroke="#112e42"></path><path d="M2500 738.3L2500 565.7L2318.7 739.3Z" fill="#19435d" stroke="#19435d"></path><path d="M2318.7 739.3L2500 565.7L2337.7 501.7Z" fill="#1d4e6b" stroke="#1d4e6b"></path><path d="M2500 316.1L2335.7 165.6L2275.7 360.1Z" fill="#00101c" stroke="#00101c"></path><path d="M2146.4 1250L2308.7 1250L2296.7 1062.4Z" fill="#246688" stroke="#246688"></path><path d="M2500 738.3L2318.7 739.3L2303.7 865.9Z" fill="#205a7a" stroke="#205a7a"></path><path d="M2335.7 165.6L2317.7 0L2154.4 0Z" fill="#00101c" stroke="#00101c"></path><path d="M2500 738.3L2303.7 865.9L2500 922.9Z" fill="#19435d" stroke="#19435d"></path><path d="M2337.7 501.7L2500 316.1L2275.7 360.1Z" fill="#277297" stroke="#277297"></path><path d="M2335.7 165.6L2500 141.6L2317.7 0Z" fill="#1d4e6b" stroke="#1d4e6b"></path><path d="M2500 922.9L2303.7 865.9L2296.7 1062.4Z" fill="#00101c" stroke="#00101c"></path><path d="M2500 1082.4L2500 922.9L2296.7 1062.4Z" fill="#15384f" stroke="#15384f"></path><path d="M2500 565.7L2500 316.1L2337.7 501.7Z" fill="#297ea6" stroke="#297ea6"></path><path d="M2308.7 1250L2500 1082.4L2296.7 1062.4Z" fill="#15384f" stroke="#15384f"></path><path d="M2500 316.1L2500 141.6L2335.7 165.6Z" fill="#297ea6" stroke="#297ea6"></path><path d="M2308.7 1250L2500 1250L2500 1082.4Z" fill="#1d4e6b" stroke="#1d4e6b"></path><path d="M2500 141.6L2500 0L2317.7 0Z" fill="#19435d" stroke="#19435d"></path></g></svg>