<svg id="visual" viewBox="0 0 2500 1250" width="2500" height="1250" xmlns="http://www.w3.org/2000/svg" xmlns:xlink="http://www.w3.org/1999/xlink" version="1.1"><g stroke-width="1" stroke-linejoin="bevel"><path d="M1316.2 553.7L1169.8 729.3L1369.2 687.3Z" fill="#277297" stroke="#277297"></path><path d="M1316.2 553.7L1171.8 554.7L1169.8 729.3Z" fill="#246688" stroke="#246688"></path><path d="M985.5 710.3L1137.8 877.9L1169.8 729.3Z" fill="#0c2435" stroke="#0c2435"></path><path d="M1169.8 729.3L1370.2 924.9L1369.2 687.3Z" fill="#246688" stroke="#246688"></path><path d="M1171.8 554.7L985.5 710.3L1169.8 729.3Z" fill="#081a28" stroke="#081a28"></path><path d="M1137.8 877.9L1370.2 924.9L1169.8 729.3Z" fill="#081a28" stroke="#081a28"></path><path d="M1551.5 521.7L1369.2 367.1L1316.2 553.7Z" fill="#277297" stroke="#277297"></path><path d="M1316.2 553.7L1169.8 331.1L1171.8 554.7Z" fill="#246688" stroke="#246688"></path><path d="M1171.8 554.7L928.5 572.7L985.5 710.3Z" fill="#297ea6" stroke="#297ea6"></path><path d="M1551.5 521.7L1316.2 553.7L1369.2 687.3Z" fill="#297ea6" stroke="#297ea6"></path><path d="M1572.5 734.3L1551.5 521.7L1369.2 687.3Z" fill="#205a7a" stroke="#205a7a"></path><path d="M1515.5 915.9L1572.5 734.3L1369.2 687.3Z" fill="#081a28" stroke="#081a28"></path><path d="M1369.2 367.1L1169.8 331.1L1316.2 553.7Z" fill="#246688" stroke="#246688"></path><path d="M1001.5 345.1L928.5 572.7L1171.8 554.7Z" fill="#081a28" stroke="#081a28"></path><path d="M1370.2 924.9L1515.5 915.9L1369.2 687.3Z" fill="#19435d" stroke="#19435d"></path><path d="M1551.5 521.7L1507.5 379.1L1369.2 367.1Z" fill="#0c2435" stroke="#0c2435"></path><path d="M1327.2 142.6L1170.8 152.6L1169.8 331.1Z" fill="#19435d" stroke="#19435d"></path><path d="M985.5 710.3L989.5 925.9L1137.8 877.9Z" fill="#277297" stroke="#277297"></path><path d="M1137.8 877.9L1136.8 1067.4L1370.2 924.9Z" fill="#19435d" stroke="#19435d"></path><path d="M776.2 850.9L989.5 925.9L985.5 710.3Z" fill="#112e42" stroke="#112e42"></path><path d="M1169.8 331.1L1001.5 345.1L1171.8 554.7Z" fill="#277297" stroke="#277297"></path><path d="M989.5 925.9L1136.8 1067.4L1137.8 877.9Z" fill="#0c2435" stroke="#0c2435"></path><path d="M1370.2 924.9L1379.2 1111.4L1515.5 915.9Z" fill="#277297" stroke="#277297"></path><path d="M1760.8 854.9L1715.8 692.3L1572.5 734.3Z" fill="#246688" stroke="#246688"></path><path d="M1572.5 734.3L1715.8 692.3L1551.5 521.7Z" fill="#297ea6" stroke="#297ea6"></path><path d="M1551.5 521.7L1694.8 397.1L1507.5 379.1Z" fill="#205a7a" stroke="#205a7a"></path><path d="M1136.8 1067.4L1379.2 1111.4L1370.2 924.9Z" fill="#19435d" stroke="#19435d"></path><path d="M1515.5 915.9L1760.8 854.9L1572.5 734.3Z" fill="#081a28" stroke="#081a28"></path><path d="M1715.8 692.3L1720.8 525.7L1551.5 521.7Z" fill="#1d4e6b" stroke="#1d4e6b"></path><path d="M776.2 1064.4L994.5 1069.4L989.5 925.9Z" fill="#15384f" stroke="#15384f"></path><path d="M989.5 925.9L994.5 1069.4L1136.8 1067.4Z" fill="#00101c" stroke="#00101c"></path><path d="M1136.8 1067.4L1193.8 1250L1379.2 1111.4Z" fill="#112e42" stroke="#112e42"></path><path d="M1379.2 1111.4L1564.5 1045.4L1515.5 915.9Z" fill="#246688" stroke="#246688"></path><path d="M734.2 531.7L757.2 704.3L928.5 572.7Z" fill="#0c2435" stroke="#0c2435"></path><path d="M928.5 572.7L757.2 704.3L985.5 710.3Z" fill="#205a7a" stroke="#205a7a"></path><path d="M1720.8 525.7L1694.8 397.1L1551.5 521.7Z" fill="#297ea6" stroke="#297ea6"></path><path d="M1327.2 142.6L1169.8 331.1L1369.2 367.1Z" fill="#112e42" stroke="#112e42"></path><path d="M1327.2 142.6L1369.2 367.1L1497.5 187.6Z" fill="#277297" stroke="#277297"></path><path d="M1169.8 331.1L991.5 202.6L1001.5 345.1Z" fill="#19435d" stroke="#19435d"></path><path d="M1497.5 187.6L1369.2 367.1L1507.5 379.1Z" fill="#112e42" stroke="#112e42"></path><path d="M757.2 704.3L776.2 850.9L985.5 710.3Z" fill="#205a7a" stroke="#205a7a"></path><path d="M1170.8 152.6L991.5 202.6L1169.8 331.1Z" fill="#081a28" stroke="#081a28"></path><path d="M793.2 362.1L734.2 531.7L928.5 572.7Z" fill="#246688" stroke="#246688"></path><path d="M1718.8 214.6L1497.5 187.6L1507.5 379.1Z" fill="#0c2435" stroke="#0c2435"></path><path d="M793.2 362.1L928.5 572.7L1001.5 345.1Z" fill="#1d4e6b" stroke="#1d4e6b"></path><path d="M613.9 906.9L776.2 1064.4L776.2 850.9Z" fill="#112e42" stroke="#112e42"></path><path d="M1688.8 1034.4L1760.8 854.9L1515.5 915.9Z" fill="#00101c" stroke="#00101c"></path><path d="M1715.8 692.3L1906.1 495.7L1720.8 525.7Z" fill="#277297" stroke="#277297"></path><path d="M991.5 202.6L793.2 362.1L1001.5 345.1Z" fill="#246688" stroke="#246688"></path><path d="M1564.5 1045.4L1688.8 1034.4L1515.5 915.9Z" fill="#297ea6" stroke="#297ea6"></path><path d="M1544.5 1250L1688.8 1034.4L1564.5 1045.4Z" fill="#0c2435" stroke="#0c2435"></path><path d="M1001.5 1250L1193.8 1250L1136.8 1067.4Z" fill="#112e42" stroke="#112e42"></path><path d="M1379.2 1111.4L1544.5 1250L1564.5 1045.4Z" fill="#19435d" stroke="#19435d"></path><path d="M1193.8 1250L1330.2 1250L1379.2 1111.4Z" fill="#297ea6" stroke="#297ea6"></path><path d="M776.2 850.9L776.2 1064.4L989.5 925.9Z" fill="#19435d" stroke="#19435d"></path><path d="M994.5 1069.4L1001.5 1250L1136.8 1067.4Z" fill="#0c2435" stroke="#0c2435"></path><path d="M573.9 718.3L776.2 850.9L757.2 704.3Z" fill="#277297" stroke="#277297"></path><path d="M1945.1 371.1L1718.8 214.6L1694.8 397.1Z" fill="#081a28" stroke="#081a28"></path><path d="M1694.8 397.1L1718.8 214.6L1507.5 379.1Z" fill="#081a28" stroke="#081a28"></path><path d="M1362.2 0L1190.8 0L1327.2 142.6Z" fill="#1d4e6b" stroke="#1d4e6b"></path><path d="M1906.1 495.7L1694.8 397.1L1720.8 525.7Z" fill="#15384f" stroke="#15384f"></path><path d="M776.2 1064.4L1001.5 1250L994.5 1069.4Z" fill="#297ea6" stroke="#297ea6"></path><path d="M1327.2 142.6L1190.8 0L1170.8 152.6Z" fill="#0c2435" stroke="#0c2435"></path><path d="M1170.8 152.6L983.5 0L991.5 202.6Z" fill="#081a28" stroke="#081a28"></path><path d="M991.5 202.6L752.2 178.6L793.2 362.1Z" fill="#297ea6" stroke="#297ea6"></path><path d="M1362.2 0L1327.2 142.6L1497.5 187.6Z" fill="#081a28" stroke="#081a28"></path><path d="M1330.2 1250L1544.5 1250L1379.2 1111.4Z" fill="#15384f" stroke="#15384f"></path><path d="M1503.5 0L1362.2 0L1497.5 187.6Z" fill="#1d4e6b" stroke="#1d4e6b"></path><path d="M1920.1 754.3L1906.1 495.7L1715.8 692.3Z" fill="#246688" stroke="#246688"></path><path d="M1920.1 754.3L1715.8 692.3L1760.8 854.9Z" fill="#15384f" stroke="#15384f"></path><path d="M1962.1 915.9L1760.8 854.9L1930.1 1056.4Z" fill="#0c2435" stroke="#0c2435"></path><path d="M1962.1 915.9L1920.1 754.3L1760.8 854.9Z" fill="#19435d" stroke="#19435d"></path><path d="M536.9 496.7L573.9 718.3L734.2 531.7Z" fill="#1d4e6b" stroke="#1d4e6b"></path><path d="M734.2 531.7L573.9 718.3L757.2 704.3Z" fill="#19435d" stroke="#19435d"></path><path d="M573.9 718.3L613.9 906.9L776.2 850.9Z" fill="#081a28" stroke="#081a28"></path><path d="M791.2 0L752.2 178.6L991.5 202.6Z" fill="#1d4e6b" stroke="#1d4e6b"></path><path d="M793.2 362.1L604.9 327.1L734.2 531.7Z" fill="#15384f" stroke="#15384f"></path><path d="M1696.8 0L1503.5 0L1497.5 187.6Z" fill="#205a7a" stroke="#205a7a"></path><path d="M1190.8 0L983.5 0L1170.8 152.6Z" fill="#0c2435" stroke="#0c2435"></path><path d="M752.2 178.6L604.9 327.1L793.2 362.1Z" fill="#1d4e6b" stroke="#1d4e6b"></path><path d="M604.9 327.1L536.9 496.7L734.2 531.7Z" fill="#205a7a" stroke="#205a7a"></path><path d="M1906.1 495.7L1945.1 371.1L1694.8 397.1Z" fill="#00101c" stroke="#00101c"></path><path d="M1718.8 214.6L1696.8 0L1497.5 187.6Z" fill="#297ea6" stroke="#297ea6"></path><path d="M2083.4 364.1L1945.1 371.1L1906.1 495.7Z" fill="#297ea6" stroke="#297ea6"></path><path d="M1930.1 1056.4L1760.8 854.9L1688.8 1034.4Z" fill="#205a7a" stroke="#205a7a"></path><path d="M1920.1 754.3L2092.4 556.7L1906.1 495.7Z" fill="#297ea6" stroke="#297ea6"></path><path d="M1768.8 1250L1930.1 1056.4L1688.8 1034.4Z" fill="#00101c" stroke="#00101c"></path><path d="M1544.5 1250L1768.8 1250L1688.8 1034.4Z" fill="#112e42" stroke="#112e42"></path><path d="M1897.1 157.6L1696.8 0L1718.8 214.6Z" fill="#205a7a" stroke="#205a7a"></path><path d="M554.9 1100.4L733.2 1250L776.2 1064.4Z" fill="#246688" stroke="#246688"></path><path d="M776.2 1064.4L733.2 1250L1001.5 1250Z" fill="#00101c" stroke="#00101c"></path><path d="M983.5 0L791.2 0L991.5 202.6Z" fill="#112e42" stroke="#112e42"></path><path d="M752.2 178.6L576.9 176.6L604.9 327.1Z" fill="#277297" stroke="#277297"></path><path d="M1945.1 371.1L1897.1 157.6L1718.8 214.6Z" fill="#15384f" stroke="#15384f"></path><path d="M604.9 0L576.9 176.6L752.2 178.6Z" fill="#205a7a" stroke="#205a7a"></path><path d="M361.6 382.1L375.6 532.7L536.9 496.7Z" fill="#00101c" stroke="#00101c"></path><path d="M613.9 906.9L554.9 1100.4L776.2 1064.4Z" fill="#297ea6" stroke="#297ea6"></path><path d="M424.6 1057.4L554.9 1100.4L613.9 906.9Z" fill="#1d4e6b" stroke="#1d4e6b"></path><path d="M382.6 896.9L613.9 906.9L573.9 718.3Z" fill="#00101c" stroke="#00101c"></path><path d="M2152.4 749.3L1920.1 754.3L1962.1 915.9Z" fill="#1d4e6b" stroke="#1d4e6b"></path><path d="M2152.4 749.3L2092.4 556.7L1920.1 754.3Z" fill="#297ea6" stroke="#297ea6"></path><path d="M1945.1 371.1L2083.4 364.1L1897.1 157.6Z" fill="#277297" stroke="#277297"></path><path d="M1768.8 1250L1884.1 1250L1930.1 1056.4Z" fill="#0c2435" stroke="#0c2435"></path><path d="M2142.4 892.9L2152.4 749.3L1962.1 915.9Z" fill="#15384f" stroke="#15384f"></path><path d="M2092.4 556.7L2083.4 364.1L1906.1 495.7Z" fill="#0c2435" stroke="#0c2435"></path><path d="M361.6 382.1L536.9 496.7L604.9 327.1Z" fill="#246688" stroke="#246688"></path><path d="M536.9 496.7L375.6 532.7L573.9 718.3Z" fill="#19435d" stroke="#19435d"></path><path d="M2142.4 892.9L1962.1 915.9L2126.4 1077.4Z" fill="#1d4e6b" stroke="#1d4e6b"></path><path d="M2327.7 352.1L2143.4 181.6L2083.4 364.1Z" fill="#081a28" stroke="#081a28"></path><path d="M404.6 1250L577.9 1250L554.9 1100.4Z" fill="#15384f" stroke="#15384f"></path><path d="M554.9 1100.4L577.9 1250L733.2 1250Z" fill="#205a7a" stroke="#205a7a"></path><path d="M343.6 744.3L382.6 896.9L573.9 718.3Z" fill="#15384f" stroke="#15384f"></path><path d="M2126.4 1077.4L1962.1 915.9L1930.1 1056.4Z" fill="#0c2435" stroke="#0c2435"></path><path d="M375.6 532.7L343.6 744.3L573.9 718.3Z" fill="#0c2435" stroke="#0c2435"></path><path d="M791.2 0L604.9 0L752.2 178.6Z" fill="#081a28" stroke="#081a28"></path><path d="M362.6 212.6L361.6 382.1L604.9 327.1Z" fill="#297ea6" stroke="#297ea6"></path><path d="M382.6 896.9L424.6 1057.4L613.9 906.9Z" fill="#1d4e6b" stroke="#1d4e6b"></path><path d="M362.6 212.6L604.9 327.1L576.9 176.6Z" fill="#246688" stroke="#246688"></path><path d="M155.3 553.7L165.3 718.3L343.6 744.3Z" fill="#112e42" stroke="#112e42"></path><path d="M2143.4 181.6L1961.1 0L1897.1 157.6Z" fill="#081a28" stroke="#081a28"></path><path d="M1897.1 157.6L1961.1 0L1696.8 0Z" fill="#246688" stroke="#246688"></path><path d="M1884.1 1250L2126.4 1077.4L1930.1 1056.4Z" fill="#00101c" stroke="#00101c"></path><path d="M385.6 0L362.6 212.6L576.9 176.6Z" fill="#1d4e6b" stroke="#1d4e6b"></path><path d="M155.3 553.7L343.6 744.3L375.6 532.7Z" fill="#19435d" stroke="#19435d"></path><path d="M2314.7 495.7L2083.4 364.1L2092.4 556.7Z" fill="#15384f" stroke="#15384f"></path><path d="M2083.4 364.1L2143.4 181.6L1897.1 157.6Z" fill="#0c2435" stroke="#0c2435"></path><path d="M2142.4 892.9L2277.7 734.3L2152.4 749.3Z" fill="#297ea6" stroke="#297ea6"></path><path d="M2152.4 749.3L2277.7 734.3L2092.4 556.7Z" fill="#205a7a" stroke="#205a7a"></path><path d="M2322.7 929.9L2277.7 734.3L2142.4 892.9Z" fill="#277297" stroke="#277297"></path><path d="M424.6 1057.4L404.6 1250L554.9 1100.4Z" fill="#297ea6" stroke="#297ea6"></path><path d="M232.3 1250L404.6 1250L424.6 1057.4Z" fill="#00101c" stroke="#00101c"></path><path d="M173.3 1078.4L424.6 1057.4L382.6 896.9Z" fill="#112e42" stroke="#112e42"></path><path d="M2293.7 0L2102.4 0L2143.4 181.6Z" fill="#277297" stroke="#277297"></path><path d="M2143.4 181.6L2102.4 0L1961.1 0Z" fill="#00101c" stroke="#00101c"></path><path d="M2277.7 734.3L2314.7 495.7L2092.4 556.7Z" fill="#19435d" stroke="#19435d"></path><path d="M1884.1 1250L2149.4 1250L2126.4 1077.4Z" fill="#1d4e6b" stroke="#1d4e6b"></path><path d="M2126.4 1077.4L2269.7 1035.4L2142.4 892.9Z" fill="#246688" stroke="#246688"></path><path d="M2149.4 1250L2269.7 1035.4L2126.4 1077.4Z" fill="#15384f" stroke="#15384f"></path><path d="M2277.7 734.3L2500 570.7L2314.7 495.7Z" fill="#246688" stroke="#246688"></path><path d="M604.9 0L385.6 0L576.9 176.6Z" fill="#297ea6" stroke="#297ea6"></path><path d="M155.3 553.7L375.6 532.7L361.6 382.1Z" fill="#297ea6" stroke="#297ea6"></path><path d="M343.6 744.3L162.3 851.9L382.6 896.9Z" fill="#277297" stroke="#277297"></path><path d="M209.3 325.1L361.6 382.1L362.6 212.6Z" fill="#19435d" stroke="#19435d"></path><path d="M224.3 166.6L209.3 325.1L362.6 212.6Z" fill="#277297" stroke="#277297"></path><path d="M2269.7 1035.4L2322.7 929.9L2142.4 892.9Z" fill="#081a28" stroke="#081a28"></path><path d="M209.3 325.1L155.3 553.7L361.6 382.1Z" fill="#15384f" stroke="#15384f"></path><path d="M2314.7 495.7L2327.7 352.1L2083.4 364.1Z" fill="#0c2435" stroke="#0c2435"></path><path d="M2500 345.1L2327.7 352.1L2314.7 495.7Z" fill="#081a28" stroke="#081a28"></path><path d="M0 712.3L162.3 851.9L165.3 718.3Z" fill="#00101c" stroke="#00101c"></path><path d="M165.3 718.3L162.3 851.9L343.6 744.3Z" fill="#15384f" stroke="#15384f"></path><path d="M0 522.7L0 712.3L155.3 553.7Z" fill="#205a7a" stroke="#205a7a"></path><path d="M385.6 0L224.3 166.6L362.6 212.6Z" fill="#297ea6" stroke="#297ea6"></path><path d="M162.3 851.9L173.3 1078.4L382.6 896.9Z" fill="#0c2435" stroke="#0c2435"></path><path d="M173.3 1078.4L232.3 1250L424.6 1057.4Z" fill="#1d4e6b" stroke="#1d4e6b"></path><path d="M2500 345.1L2346.7 179.6L2327.7 352.1Z" fill="#246688" stroke="#246688"></path><path d="M2327.7 352.1L2346.7 179.6L2143.4 181.6Z" fill="#277297" stroke="#277297"></path><path d="M2500 1057.4L2500 917.9L2322.7 929.9Z" fill="#112e42" stroke="#112e42"></path><path d="M2322.7 929.9L2500 708.3L2277.7 734.3Z" fill="#19435d" stroke="#19435d"></path><path d="M2149.4 1250L2315.7 1250L2269.7 1035.4Z" fill="#205a7a" stroke="#205a7a"></path><path d="M2346.7 179.6L2293.7 0L2143.4 181.6Z" fill="#246688" stroke="#246688"></path><path d="M2500 917.9L2500 708.3L2322.7 929.9Z" fill="#081a28" stroke="#081a28"></path><path d="M2500 708.3L2500 570.7L2277.7 734.3Z" fill="#297ea6" stroke="#297ea6"></path><path d="M2346.7 179.6L2500 0L2293.7 0Z" fill="#19435d" stroke="#19435d"></path><path d="M162.3 851.9L0 900.9L173.3 1078.4Z" fill="#081a28" stroke="#081a28"></path><path d="M173.3 1078.4L0 1250L232.3 1250Z" fill="#277297" stroke="#277297"></path><path d="M155.3 553.7L0 712.3L165.3 718.3Z" fill="#277297" stroke="#277297"></path><path d="M0 522.7L155.3 553.7L0 382.1Z" fill="#246688" stroke="#246688"></path><path d="M385.6 0L181.3 0L224.3 166.6Z" fill="#00101c" stroke="#00101c"></path><path d="M0 382.1L155.3 553.7L209.3 325.1Z" fill="#081a28" stroke="#081a28"></path><path d="M0 382.1L209.3 325.1L0 188.6Z" fill="#1d4e6b" stroke="#1d4e6b"></path><path d="M2500 1057.4L2322.7 929.9L2269.7 1035.4Z" fill="#246688" stroke="#246688"></path><path d="M2500 570.7L2500 345.1L2314.7 495.7Z" fill="#0c2435" stroke="#0c2435"></path><path d="M0 712.3L0 900.9L162.3 851.9Z" fill="#081a28" stroke="#081a28"></path><path d="M0 188.6L209.3 325.1L224.3 166.6Z" fill="#19435d" stroke="#19435d"></path><path d="M2315.7 1250L2500 1057.4L2269.7 1035.4Z" fill="#15384f" stroke="#15384f"></path><path d="M0 900.9L0 1090.4L173.3 1078.4Z" fill="#297ea6" stroke="#297ea6"></path><path d="M2500 345.1L2500 173.6L2346.7 179.6Z" fill="#19435d" stroke="#19435d"></path><path d="M181.3 0L0 188.6L224.3 166.6Z" fill="#297ea6" stroke="#297ea6"></path><path d="M2315.7 1250L2500 1250L2500 1057.4Z" fill="#1d4e6b" stroke="#1d4e6b"></path><path d="M0 1090.4L0 1250L173.3 1078.4Z" fill="#1d4e6b" stroke="#1d4e6b"></path><path d="M2500 173.6L2500 0L2346.7 179.6Z" fill="#081a28" stroke="#081a28"></path><path d="M181.3 0L0 0L0 188.6Z" fill="#112e42" stroke="#112e42"></path></g></svg>